<?xml version="1.0" encoding="UTF-8"?>
<svg width="106px" height="199px" viewBox="0 0 106 199" version="1.1" xmlns="http://www.w3.org/2000/svg" xmlns:xlink="http://www.w3.org/1999/xlink">
    <!-- Generator: Sketch 51.1 (57501) - http://www.bohemiancoding.com/sketch -->
    <title>logo-studio</title>
    <desc>Created with Sketch.</desc>
    <defs></defs>
    <g id="Page-1" stroke="none" stroke-width="1" fill="none" fill-rule="evenodd">
        <g id="logo-light-bg" fill="#5B5B5B" fill-rule="nonzero">
            <path d="M54.515659,135.707875 C56.056026,116.872711 57.241311,94.157967 105.030718,96.4619963 L61.338724,198.129121 L54.515659,198.129121 L54.515659,135.707875 Z M53.197962,135.707875 C51.656679,116.872711 49.153697,94.157967 1.363374,96.4619963 L46.374897,198.129121 L53.197962,198.129121 L53.197962,135.707875 Z M87.875922,83.4725275 C87.855304,70.4702381 89.948224,40.1881868 85.726647,28.4624542 C97.899762,24.3168498 90.223584,26.9262821 103.601228,22.371337 C104.787888,21.9688645 105.577772,20.9075092 105.577772,19.7202381 C105.577772,18.532967 104.787888,17.4716117 103.601228,17.0682234 L54.111553,0.209249084 C53.452247,-0.0164835165 52.735669,-0.0164835165 52.078195,0.209249084 L2.587146,17.0686813 C1.400486,17.4716117 0.609685,18.532967 0.609685,19.7202381 C0.609685,20.907967 1.400486,21.9688645 2.587146,22.3717949 L20.534117,28.4862637 C16.249771,40.0897436 18.31291,70.0270147 18.313368,83.4880952 C21.357907,83.9981685 24.626948,84.7669414 27.829098,85.7202381 C30.438833,86.4967949 33.011457,87.4015568 35.389358,88.3937729 L44.501898,79.8621795 C33.796302,75.3374542 25.462192,58.6684982 24.910097,47.1854396 C32.289381,46.7115385 58.043567,43.8438645 59.802023,35.9739011 C62.231239,40.2010073 75.081987,51.6039377 80.281757,52.4084249 C80.281757,52.4084249 75.234558,73.4592491 61.447769,79.8475275 L70.751366,88.3763736 C73.116897,87.3905678 75.675317,86.492674 78.270391,85.7202381 C81.503696,84.757326 84.805726,83.9844322 87.875922,83.4725275 Z M96.034094,24.9537546 L96.061126,36.03663 L95.257955,36.03663 C94.698987,35.989011 94.205539,36.3685897 94.140937,36.8937729 L93.099058,46.9615385 C92.863101,48.8791209 103.445908,48.8873626 103.220489,46.9505495 C102.866323,44.1149267 102.515365,39.7216117 102.166698,36.8855311 C102.099805,36.3635531 101.604523,35.9835165 101.046473,36.0306777 L100.241926,36.0306777 L100.259337,23.5119048 L96.034094,24.9537546 Z" id="logo-studio"></path>
        </g>
    </g>
</svg>