<?xml version="1.0" encoding="UTF-8"?>
<svg width="442px" height="80px" viewBox="0 0 442 80" version="1.1" xmlns="http://www.w3.org/2000/svg" xmlns:xlink="http://www.w3.org/1999/xlink">
    <!-- Generator: Sketch 52.2 (67145) - http://www.bohemiancoding.com/sketch -->
    <title>logo_book_cursor copy@</title>
    <desc>Created with Sketch.</desc>
    <g id="logo_book_cursor-copy" stroke="none" stroke-width="1" fill="none" fill-rule="evenodd">
        <g id="logo">
            <g id="Group-2" transform="translate(124.000000, 0.000000)">
                <path d="M2.84217094e-13,39.0451613 L2.84217094e-13,2.03870968 L15.483871,2.03870968 C17.531193,2.03870968 19.3849379,2.39999639 21.0451613,3.12258065 C22.7053846,3.8451649 24.1247253,4.81719819 25.3032258,6.03870968 C26.4817263,7.26022116 27.3892441,8.67956181 28.0258065,10.2967742 C28.6623688,11.9139866 28.9806452,13.6257974 28.9806452,15.4322581 C28.9806452,17.2215143 28.6623688,18.9247231 28.0258065,20.5419355 C27.3892441,22.1591479 26.4817263,23.5784885 25.3032258,24.8 C24.1247253,26.0215115 22.7053846,26.9935448 21.0451613,27.716129 C19.3849379,28.4387133 17.531193,28.8 15.483871,28.8 L8.56774194,28.8 L8.56774194,39.0451613 L2.84217094e-13,39.0451613 Z M8.56774194,21.8064516 L14.4258065,21.8064516 C15.3032302,21.8064516 16.1161253,21.6301093 16.8645161,21.2774194 C17.612907,20.9247294 18.2408577,20.4602179 18.7483871,19.883871 C19.2559165,19.307524 19.6516115,18.6322619 19.9354839,17.8580645 C20.2193563,17.0838671 20.3612903,16.275273 20.3612903,15.4322581 C20.3612903,14.5892431 20.2193563,13.776348 19.9354839,12.9935484 C19.6516115,12.2107488 19.2559165,11.5311857 18.7483871,10.9548387 C18.2408577,10.3784917 17.617208,9.91398026 16.8774194,9.56129032 C16.1376307,9.20860039 15.3204346,9.03225806 14.4258065,9.03225806 L8.56774194,9.03225806 L8.56774194,21.8064516 Z M30.0645161,26.2967742 C30.0645161,24.4731092 30.3870935,22.7526963 31.0322581,21.1354839 C31.6774226,19.5182715 32.6107466,18.0989308 33.8322581,16.8774194 C35.0537695,15.6559079 36.5333246,14.6838746 38.2709677,13.9612903 C40.0086108,13.2387061 41.9870857,12.8774194 44.2064516,12.8774194 C46.4258175,12.8774194 48.4085934,13.2387061 50.1548387,13.9612903 C51.901084,14.6838746 53.3806391,15.6559079 54.5935484,16.8774194 C55.8064577,18.0989308 56.7311796,19.5182715 57.3677419,21.1354839 C58.0043043,22.7526963 58.3225806,24.4731092 58.3225806,26.2967742 C58.3225806,28.1204392 58.0043043,29.8451532 57.3677419,31.4709677 C56.7311796,33.0967823 55.8064577,34.520424 54.5935484,35.7419355 C53.3806391,36.963447 51.901084,37.9354803 50.1548387,38.6580645 C48.4085934,39.3806488 46.4258175,39.7419355 44.2064516,39.7419355 C41.9870857,39.7419355 40.0086108,39.3806488 38.2709677,38.6580645 C36.5333246,37.9354803 35.0537695,36.963447 33.8322581,35.7419355 C32.6107466,34.520424 31.6774226,33.1010834 31.0322581,31.483871 C30.3870935,29.8666586 30.0645161,28.1376436 30.0645161,26.2967742 Z M38.1419355,26.2967742 C38.1419355,27.2086067 38.2838695,28.0559101 38.5677419,28.8387097 C38.8516143,29.6215093 39.2559114,30.3096745 39.7806452,30.9032258 C40.305379,31.4967772 40.9376307,31.9612886 41.6774194,32.2967742 C42.417208,32.6322597 43.2430062,32.8 44.1548387,32.8 C45.0666712,32.8 45.9053725,32.6322597 46.6709677,32.2967742 C47.436563,31.9612886 48.0817178,31.4967772 48.6064516,30.9032258 C49.1311854,30.3096745 49.5440845,29.6258103 49.8451613,28.8516129 C50.1462381,28.0774155 50.2967742,27.2258111 50.2967742,26.2967742 C50.2967742,25.4193505 50.1462381,24.5849502 49.8451613,23.7935484 C49.5440845,23.0021466 49.1311854,22.3139814 48.6064516,21.7290323 C48.0817178,21.1440831 47.440864,20.6795716 46.683871,20.3354839 C45.9268779,19.9913961 45.0838756,19.8193548 44.1548387,19.8193548 C43.2430062,19.8193548 42.417208,19.9913961 41.6774194,20.3354839 C40.9376307,20.6795716 40.305379,21.1440831 39.7806452,21.7290323 C39.2559114,22.3139814 38.8516143,23.0021466 38.5677419,23.7935484 C38.2838695,24.5849502 38.1419355,25.4193505 38.1419355,26.2967742 Z M61.7806452,39.0451613 L61.7806452,2.03870968 L69.8580645,2.03870968 L69.8580645,39.0451613 L61.7806452,39.0451613 Z M73.3935484,30.5290323 L81.316129,30.5290323 C81.316129,31.8709745 81.6946199,32.8344057 82.4516129,33.4193548 C83.2086059,34.004304 84.1806392,34.2967742 85.3677419,34.2967742 C86.348392,34.2967742 87.152685,34.1118298 87.7806452,33.7419355 C88.4086053,33.3720412 88.7225806,32.7655956 88.7225806,31.9225806 C88.7225806,31.4236534 88.5892486,31.0150554 88.3225806,30.6967742 C88.0559126,30.378493 87.6473146,30.0946249 87.0967742,29.8451613 C86.5462338,29.5956977 85.8408645,29.3419368 84.9806452,29.083871 C84.1204258,28.8258052 83.0881781,28.4989267 81.883871,28.1032258 C80.7999946,27.7591381 79.7806499,27.4021524 78.8258065,27.0322581 C77.870963,26.6623637 77.0322617,26.2021533 76.3096774,25.6516129 C75.5870932,25.1010725 75.0236579,24.4301115 74.6193548,23.6387097 C74.2150517,22.8473079 74.0129032,21.8666725 74.0129032,20.6967742 C74.0129032,19.354832 74.2795672,18.1935533 74.8129032,17.2129032 C75.3462392,16.2322532 76.0946188,15.4236591 77.0580645,14.7870968 C78.0215102,14.1505345 79.1741868,13.6731199 80.516129,13.3548387 C81.8580712,13.0365575 83.3376263,12.8774194 84.9548387,12.8774194 C86.9333432,12.8774194 88.636552,13.101073 90.0645161,13.5483871 C91.4924803,13.9957012 92.662361,14.6064477 93.5741935,15.3806452 C94.4860261,16.1548426 95.1612881,17.0666614 95.6,18.116129 C96.0387119,19.1655966 96.2580645,20.2924671 96.2580645,21.4967742 L88.283871,21.4967742 C88.283871,20.4473066 88.0129059,19.6301105 87.4709677,19.0451613 C86.9290295,18.4602121 86.1075324,18.1677419 85.0064516,18.1677419 C84.1634366,18.1677419 83.4408632,18.3526863 82.8387097,18.7225806 C82.2365561,19.092475 81.9354839,19.6473081 81.9354839,20.3870968 C81.9354839,20.886024 82.0774179,21.28602 82.3612903,21.5870968 C82.6451627,21.8881735 83.0623628,22.1591386 83.6129032,22.4 C84.1634436,22.6408614 84.8430067,22.8860203 85.6516129,23.1354839 C86.4602191,23.3849475 87.3892421,23.6817187 88.4387097,24.0258065 C89.5741992,24.3354854 90.6322532,24.679568 91.6129032,25.0580645 C92.5935533,25.436561 93.4580608,25.8967715 94.2064516,26.4387097 C94.9548425,26.9806479 95.5483849,27.660211 95.9870968,28.4774194 C96.4258086,29.2946277 96.6451613,30.3311765 96.6451613,31.5870968 C96.6451613,33.0666741 96.335487,34.3268765 95.716129,35.3677419 C95.0967711,36.4086074 94.2666719,37.2559107 93.2258065,37.9096774 C92.184941,38.5634441 90.976351,39.0322566 89.6,39.316129 C88.223649,39.6000014 86.7785022,39.7419355 85.2645161,39.7419355 C81.4967554,39.7419355 78.5763545,38.9548466 76.5032258,37.3806452 C74.4300972,35.8064437 73.3935484,33.5225956 73.3935484,30.5290323 Z M100.36129,39.0451613 L100.36129,2.03870968 L108.43871,2.03870968 L108.43871,24.3612903 L116.335484,13.5741935 L125.935484,13.5741935 L116,26.2967742 L125.883871,39.0451613 L116.283871,39.0451613 L108.43871,28.3612903 L108.43871,39.0451613 L100.36129,39.0451613 Z M127.767742,5.10967742 C127.767742,3.6645089 128.262361,2.45161781 129.251613,1.47096774 C130.240865,0.490317677 131.475261,0 132.954839,0 C133.694627,0 134.378491,0.129030968 135.006452,0.387096774 C135.634412,0.645162581 136.189245,1.00214826 136.670968,1.45806452 C137.152691,1.91398077 137.522579,2.46021187 137.780645,3.09677419 C138.038711,3.73333652 138.167742,4.40429755 138.167742,5.10967742 C138.167742,5.81505729 138.038711,6.47741626 137.780645,7.09677419 C137.522579,7.71613213 137.152691,8.26236323 136.670968,8.73548387 C136.189245,9.20860452 135.634412,9.57849329 135.006452,9.84516129 C134.378491,10.1118293 133.694627,10.2451613 132.954839,10.2451613 C132.21505,10.2451613 131.535487,10.1118293 130.916129,9.84516129 C130.296771,9.57849329 129.75054,9.20860452 129.277419,8.73548387 C128.804299,8.26236323 128.43441,7.71613213 128.167742,7.09677419 C127.901074,6.47741626 127.767742,5.81505729 127.767742,5.10967742 Z M128.929032,39.0451613 L128.929032,13.5741935 L137.006452,13.5741935 L137.006452,39.0451613 L128.929032,39.0451613 Z M154.451613,39.0451613 L154.451613,2.03870968 L164.335484,2.03870968 L174.219355,27.7935484 L184,2.03870968 L193.729032,2.03870968 L193.729032,39.0451613 L185.367742,39.0451613 L185.367742,16.1032258 L177.393548,39.0451613 L171.045161,39.0451613 L162.812903,16.1032258 L162.812903,39.0451613 L154.451613,39.0451613 Z M197.316129,20.5419355 C197.316129,18.0128906 197.754834,15.5742053 198.632258,13.2258065 C199.509682,10.8774076 200.79569,8.80431006 202.490323,7.00645161 C204.184955,5.20859316 206.245149,3.77634942 208.670968,2.70967742 C211.096786,1.64300542 213.840845,1.10967742 216.903226,1.10967742 C219.965607,1.10967742 222.705364,1.64300542 225.122581,2.70967742 C227.539797,3.77634942 229.59569,5.20859316 231.290323,7.00645161 C232.984955,8.80431006 234.270963,10.8774076 235.148387,13.2258065 C236.025811,15.5742053 236.464516,18.0128906 236.464516,20.5419355 C236.464516,23.0709804 236.025811,25.5096657 235.148387,27.8580645 C234.270963,30.2064634 232.984955,32.2795609 231.290323,34.0774194 C229.59569,35.8752778 227.539797,37.3118226 225.122581,38.3870968 C222.705364,39.462371 219.965607,40 216.903226,40 C213.840845,40 211.096786,39.462371 208.670968,38.3870968 C206.245149,37.3118226 204.184955,35.8752778 202.490323,34.0774194 C200.79569,32.2795609 199.509682,30.2107644 198.632258,27.8709677 C197.754834,25.5311711 197.316129,23.0881848 197.316129,20.5419355 Z M206.090323,20.5419355 C206.090323,22.0559215 206.335481,23.5182725 206.825806,24.9290323 C207.316131,26.339792 208.025802,27.5913924 208.954839,28.683871 C209.883876,29.7763495 211.019348,30.6494591 212.36129,31.3032258 C213.703233,31.9569925 215.217196,32.283871 216.903226,32.283871 C218.589256,32.283871 220.103219,31.9569925 221.445161,31.3032258 C222.787103,30.6494591 223.926877,29.7763495 224.864516,28.683871 C225.802155,27.5913924 226.516127,26.339792 227.006452,24.9290323 C227.496777,23.5182725 227.741935,22.0559215 227.741935,20.5419355 C227.741935,19.0279494 227.496777,17.5655985 227.006452,16.1548387 C226.516127,14.744079 225.802155,13.4924786 224.864516,12.4 C223.926877,11.3075214 222.791405,10.4387129 221.458065,9.79354839 C220.124725,9.14838387 218.60646,8.82580645 216.903226,8.82580645 C215.217196,8.82580645 213.703233,9.14838387 212.36129,9.79354839 C211.019348,10.4387129 209.883876,11.3075214 208.954839,12.4 C208.025802,13.4924786 207.316131,14.744079 206.825806,16.1548387 C206.335481,17.5655985 206.090323,19.0279494 206.090323,20.5419355 Z M238.193548,20.5419355 C238.193548,18.0128906 238.632254,15.5742053 239.509677,13.2258065 C240.387101,10.8774076 241.67311,8.80431006 243.367742,7.00645161 C245.062374,5.20859316 247.122569,3.77634942 249.548387,2.70967742 C251.974206,1.64300542 254.718264,1.10967742 257.780645,1.10967742 C260.843026,1.10967742 263.582784,1.64300542 266,2.70967742 C268.417216,3.77634942 270.47311,5.20859316 272.167742,7.00645161 C273.862374,8.80431006 275.148383,10.8774076 276.025806,13.2258065 C276.90323,15.5742053 277.341935,18.0128906 277.341935,20.5419355 C277.341935,23.0709804 276.90323,25.5096657 276.025806,27.8580645 C275.148383,30.2064634 273.862374,32.2795609 272.167742,34.0774194 C270.47311,35.8752778 268.417216,37.3118226 266,38.3870968 C263.582784,39.462371 260.843026,40 257.780645,40 C254.718264,40 251.974206,39.462371 249.548387,38.3870968 C247.122569,37.3118226 245.062374,35.8752778 243.367742,34.0774194 C241.67311,32.2795609 240.387101,30.2107644 239.509677,27.8709677 C238.632254,25.5311711 238.193548,23.0881848 238.193548,20.5419355 Z M246.967742,20.5419355 C246.967742,22.0559215 247.212901,23.5182725 247.703226,24.9290323 C248.193551,26.339792 248.903221,27.5913924 249.832258,28.683871 C250.761295,29.7763495 251.896767,30.6494591 253.23871,31.3032258 C254.580652,31.9569925 256.094615,32.283871 257.780645,32.283871 C259.466675,32.283871 260.980638,31.9569925 262.322581,31.3032258 C263.664523,30.6494591 264.804296,29.7763495 265.741935,28.683871 C266.679575,27.5913924 267.393546,26.339792 267.883871,24.9290323 C268.374196,23.5182725 268.619355,22.0559215 268.619355,20.5419355 C268.619355,19.0279494 268.374196,17.5655985 267.883871,16.1548387 C267.393546,14.744079 266.679575,13.4924786 265.741935,12.4 C264.804296,11.3075214 263.668824,10.4387129 262.335484,9.79354839 C261.002144,9.14838387 259.483879,8.82580645 257.780645,8.82580645 C256.094615,8.82580645 254.580652,9.14838387 253.23871,9.79354839 C251.896767,10.4387129 250.761295,11.3075214 249.832258,12.4 C248.903221,13.4924786 248.193551,14.744079 247.703226,16.1548387 C247.212901,17.5655985 246.967742,19.0279494 246.967742,20.5419355 Z M279.070968,20.5419355 C279.070968,18.0128906 279.501071,15.5742053 280.36129,13.2258065 C281.22151,10.8774076 282.486013,8.80431006 284.154839,7.00645161 C285.823664,5.20859316 287.883859,3.77634942 290.335484,2.70967742 C292.787109,1.64300542 295.595683,1.10967742 298.76129,1.10967742 C301.479583,1.10967742 303.92257,1.50537239 306.090323,2.29677419 C308.258075,3.088176 310.133325,4.17633716 311.716129,5.56129032 C313.298933,6.94624348 314.567737,8.57633471 315.522581,10.4516129 C316.477424,12.3268911 317.075268,14.313968 317.316129,16.4129032 L308.387097,16.4129032 C308.180644,15.3290268 307.832261,14.3268863 307.341935,13.4064516 C306.85161,12.4860169 306.197854,11.6860249 305.380645,11.0064516 C304.563437,10.3268783 303.61721,9.79355032 302.541935,9.40645161 C301.466661,9.0193529 300.249469,8.82580645 298.890323,8.82580645 C297.135475,8.82580645 295.565598,9.14838387 294.180645,9.79354839 C292.795692,10.4387129 291.630112,11.2989194 290.683871,12.3741935 C289.73763,13.4494677 289.015056,14.7010681 288.516129,16.1290323 C288.017202,17.5569964 287.767742,19.0279494 287.767742,20.5419355 C287.767742,22.1591479 288.043008,23.6817133 288.593548,25.1096774 C289.144089,26.5376415 289.905371,27.7806399 290.877419,28.8387097 C291.849467,29.8967795 293.019348,30.7354808 294.387097,31.3548387 C295.754846,31.9741966 297.290314,32.283871 298.993548,32.283871 C301.488185,32.283871 303.526874,31.6559203 305.109677,30.4 C306.692481,29.1440797 307.750535,27.6043102 308.283871,25.7806452 L317.367742,25.7806452 C317.023654,27.7591497 316.348392,29.5999915 315.341935,31.3032258 C314.335479,33.0064601 313.04947,34.5118214 311.483871,35.8193548 C309.918272,37.1268883 308.068828,38.1505339 305.935484,38.8903226 C303.80214,39.6301112 301.453776,40 298.890323,40 C295.793533,40 293.019367,39.470973 290.567742,38.4129032 C288.116117,37.3548334 286.034417,35.9354928 284.322581,34.1548387 C282.610744,32.3741846 281.307531,30.3139902 280.412903,27.9741935 C279.518275,25.6343969 279.070968,23.1570023 279.070968,20.5419355 Z" id="Polski-MOOC" fill="#E41D37"></path>
                <path d="M-2.84217094e-14,79.7563452 L-2.84217094e-14,62.2862944 L2.16852792,62.2862944 L2.16852792,64.235533 C2.51776824,63.5857836 3.03756,63.0497483 3.72791878,62.6274112 C4.41827756,62.205074 5.25481742,61.9939086 6.23756345,61.9939086 C7.04975025,61.9939086 7.80507265,62.1502522 8.5035533,62.4629442 C9.20203395,62.7756361 9.80913448,63.2081191 10.3248731,63.7604061 C10.8406117,64.3126931 11.2406077,64.9502502 11.5248731,65.6730964 C11.8091385,66.3959427 11.951269,67.155326 11.951269,67.951269 C11.951269,68.7472121 11.8091385,69.5045649 11.5248731,70.2233503 C11.2406077,70.9421356 10.8446726,71.5715709 10.3370558,72.1116751 C9.82943909,72.6517794 9.22639943,73.0842623 8.52791878,73.4091371 C7.82943813,73.7340118 7.06599399,73.8964467 6.23756345,73.8964467 C5.25481742,73.8964467 4.41827756,73.6832509 3.72791878,73.2568528 C3.03756,72.8304547 2.51776824,72.292389 2.16852792,71.6426396 L2.16852792,79.7563452 L-2.84217094e-14,79.7563452 Z M2.16852792,67.951269 C2.16852792,68.5035561 2.25989756,69.0192869 2.44263959,69.4984772 C2.62538162,69.9776674 2.88324707,70.4020286 3.21624365,70.7715736 C3.54924024,71.1411186 3.94923624,71.4294406 4.41624365,71.6365482 C4.88325107,71.8436559 5.40507326,71.9472081 5.98172589,71.9472081 C6.56650039,71.9472081 7.09238345,71.839595 7.55939086,71.6243655 C8.02639827,71.409136 8.42639427,71.1167531 8.75939086,70.7472081 C9.09238745,70.3776631 9.34619202,69.9533019 9.52081218,69.4741117 C9.69543235,68.9949215 9.78274112,68.4873123 9.78274112,67.951269 C9.78274112,67.4152257 9.69543235,66.9035557 9.52081218,66.4162437 C9.34619202,65.9289316 9.09238745,65.5025399 8.75939086,65.1370558 C8.42639427,64.7715718 8.02639827,64.4791889 7.55939086,64.2598985 C7.09238345,64.040608 6.56650039,63.9309645 5.98172589,63.9309645 C5.39695139,63.9309645 4.87309876,64.040608 4.41015228,64.2598985 C3.94720581,64.4791889 3.54924024,64.7675109 3.21624365,65.1248731 C2.88324707,65.4822353 2.62538162,65.9065965 2.44263959,66.3979695 C2.25989756,66.8893426 2.16852792,67.4071039 2.16852792,67.951269 Z M14.1563452,73.6162437 L14.1563452,56.1461929 L16.3248731,56.1461929 L16.3248731,73.6162437 L14.1563452,73.6162437 Z M18.5055838,67.951269 C18.5055838,67.155326 18.6477143,66.3959427 18.9319797,65.6730964 C19.2162451,64.9502502 19.6162411,64.3126931 20.1319797,63.7604061 C20.6477183,63.2081191 21.250758,62.7756361 21.9411168,62.4629442 C22.6314755,62.1502522 23.3908588,61.9939086 24.2192893,61.9939086 C25.1857916,61.9939086 26.0182706,62.205074 26.7167513,62.6274112 C27.4152319,63.0497483 27.9390845,63.5857836 28.2883249,64.235533 L28.2883249,62.2862944 L30.4324873,62.2862944 L30.4324873,73.6162437 L28.2883249,73.6162437 L28.2883249,71.6426396 C27.9390845,72.292389 27.4152319,72.8304547 26.7167513,73.2568528 C26.0182706,73.6832509 25.1776699,73.8964467 24.1949239,73.8964467 C23.3664933,73.8964467 22.6071101,73.7380726 21.9167513,73.4213198 C21.2263925,73.1045669 20.6274137,72.672084 20.119797,72.1238579 C19.6121802,71.5756318 19.2162451,70.9421356 18.9319797,70.2233503 C18.6477143,69.5045649 18.5055838,68.7472121 18.5055838,67.951269 Z M20.6497462,67.951269 C20.6497462,68.5035561 20.7411158,69.0192869 20.9238579,69.4984772 C21.1065999,69.9776674 21.3644653,70.3979677 21.6974619,70.7593909 C22.0304585,71.120814 22.4284241,71.409136 22.8913706,71.6243655 C23.354317,71.839595 23.8781697,71.9472081 24.4629442,71.9472081 C25.0477187,71.9472081 25.5736017,71.839595 26.0406091,71.6243655 C26.5076165,71.409136 26.9076125,71.120814 27.2406091,70.7593909 C27.5736057,70.3979677 27.8314712,69.9776674 28.0142132,69.4984772 C28.1969552,69.0192869 28.2883249,68.5035561 28.2883249,67.951269 C28.2883249,67.398982 28.1969552,66.8832511 28.0142132,66.4040609 C27.8314712,65.9248707 27.5736057,65.5025399 27.2406091,65.1370558 C26.9076125,64.7715718 26.5076165,64.4791889 26.0406091,64.2598985 C25.5736017,64.040608 25.0477187,63.9309645 24.4629442,63.9309645 C23.8781697,63.9309645 23.354317,64.040608 22.8913706,64.2598985 C22.4284241,64.4791889 22.0304585,64.7715718 21.6974619,65.1370558 C21.3644653,65.5025399 21.1065999,65.9269011 20.9238579,66.4101523 C20.7411158,66.8934034 20.6497462,67.4071039 20.6497462,67.951269 Z M32.0893401,64.1137056 L32.0893401,62.2862944 L34.1847716,62.2862944 L34.1847716,58.4730964 L36.3532995,58.4730964 L36.3532995,62.2862944 L39.3015228,62.2862944 L39.3015228,64.1137056 L36.3532995,64.1137056 L36.3532995,69.3279188 C36.3532995,69.8802058 36.3999995,70.3167497 36.493401,70.6375635 C36.5868025,70.9583772 36.7167504,71.2060905 36.8832487,71.3807107 C37.049747,71.5553308 37.2446689,71.6670048 37.4680203,71.715736 C37.6913717,71.7644672 37.9451762,71.7888325 38.2294416,71.7888325 C38.4649758,71.7888325 38.7269021,71.7807107 39.0152284,71.764467 C39.3035547,71.7482233 39.5329941,71.723858 39.7035533,71.6913706 L39.7035533,73.6162437 C39.4842629,73.6487311 39.1959409,73.6812181 38.8385787,73.7137056 C38.4812165,73.7461931 38.111677,73.7624365 37.7299492,73.7624365 C37.3807089,73.7624365 37.0010173,73.7299496 36.5908629,73.6649746 C36.1807086,73.5999997 35.7969561,73.4375648 35.4395939,73.177665 C35.0822317,72.9177652 34.7837575,72.5218301 34.5441624,71.9898477 C34.3045673,71.4578654 34.1847716,70.7289386 34.1847716,69.8030457 L34.1847716,64.1137056 L32.0893401,64.1137056 Z M39.715736,64.1137056 L39.715736,62.2862944 L42.164467,62.2862944 L42.164467,60.3126904 C42.164467,59.2974569 42.3005063,58.4994953 42.5725888,57.9187817 C42.8446714,57.3380682 43.177663,56.9055852 43.5715736,56.6213198 C43.9654842,56.3370544 44.3736019,56.1624369 44.7959391,56.0974619 C45.2182762,56.032487 45.5796939,56 45.880203,56 C46.3269058,56 46.6802017,56.0284261 46.9401015,56.0852792 C47.2000013,56.1421323 47.4111667,56.215228 47.5736041,56.3045685 L47.5736041,58.1441624 C47.3705574,58.0791875 47.173605,58.030457 46.9827411,57.9979695 C46.7918772,57.9654821 46.5299509,57.9492386 46.1969543,57.9492386 C45.9939076,57.9492386 45.7827422,57.9654821 45.5634518,57.9979695 C45.3441613,58.030457 45.1431481,58.1177658 44.9604061,58.2598985 C44.7776641,58.4020312 44.6274118,58.6192879 44.5096447,58.9116751 C44.3918776,59.2040624 44.3329949,59.5979671 44.3329949,60.093401 L44.3329949,62.2862944 L47.5736041,62.2862944 L47.5736041,64.1137056 L44.3329949,64.1137056 L44.3329949,73.6162437 L42.164467,73.6162437 L42.164467,64.1137056 L39.715736,64.1137056 Z M47.8416244,67.951269 C47.8416244,67.155326 47.9837549,66.3959427 48.2680203,65.6730964 C48.5522857,64.9502502 48.9522817,64.3126931 49.4680203,63.7604061 C49.9837589,63.2081191 50.6111638,62.7756361 51.3502538,62.4629442 C52.0893438,62.1502522 52.9055793,61.9939086 53.7989848,61.9939086 C54.7005121,61.9939086 55.5167476,62.1502522 56.2477157,62.4629442 C56.9786839,62.7756361 57.6060888,63.2081191 58.1299492,63.7604061 C58.6538097,64.3126931 59.0578666,64.9502502 59.342132,65.6730964 C59.6263974,66.3959427 59.7685279,67.155326 59.7685279,67.951269 C59.7685279,68.7472121 59.6263974,69.5045649 59.342132,70.2233503 C59.0578666,70.9421356 58.6578706,71.5756318 58.142132,72.1238579 C57.6263934,72.672084 56.9989885,73.1045669 56.2598985,73.4213198 C55.5208085,73.7380726 54.7005121,73.8964467 53.7989848,73.8964467 C52.8812137,73.8964467 52.0588869,73.7380726 51.3319797,73.4213198 C50.6050725,73.1045669 49.9837589,72.672084 49.4680203,72.1238579 C48.9522817,71.5756318 48.5522857,70.9421356 48.2680203,70.2233503 C47.9837549,69.5045649 47.8416244,68.7472121 47.8416244,67.951269 Z M49.9857868,67.951269 C49.9857868,68.5035561 50.0771564,69.0192869 50.2598985,69.4984772 C50.4426405,69.9776674 50.7005059,70.3979677 51.0335025,70.7593909 C51.3664991,71.120814 51.7644647,71.409136 52.2274112,71.6243655 C52.6903576,71.839595 53.2142103,71.9472081 53.7989848,71.9472081 C54.3837593,71.9472081 54.9096423,71.839595 55.3766497,71.6243655 C55.8436572,71.409136 56.2436532,71.120814 56.5766497,70.7593909 C56.9096463,70.3979677 57.1675118,69.9776674 57.3502538,69.4984772 C57.5329958,69.0192869 57.6243655,68.5035561 57.6243655,67.951269 C57.6243655,67.398982 57.5329958,66.8832511 57.3502538,66.4040609 C57.1675118,65.9248707 56.9096463,65.5025399 56.5766497,65.1370558 C56.2436532,64.7715718 55.8436572,64.4791889 55.3766497,64.2598985 C54.9096423,64.040608 54.3837593,63.9309645 53.7989848,63.9309645 C53.2142103,63.9309645 52.6903576,64.040608 52.2274112,64.2598985 C51.7644647,64.4791889 51.3664991,64.7715718 51.0335025,65.1370558 C50.7005059,65.5025399 50.4426405,65.9269011 50.2598985,66.4101523 C50.0771564,66.8934034 49.9857868,67.4071039 49.9857868,67.951269 Z M61.9492386,73.6162437 L61.9492386,62.2862944 L64.1177665,62.2862944 L64.1177665,64.5035533 C64.4182756,63.7888289 64.917763,63.2121849 65.6162437,62.7736041 C66.3147243,62.3350232 67.0781684,62.115736 67.906599,62.115736 C68.3208143,62.115736 68.6700493,62.1725883 68.9543147,62.2862944 L68.9543147,64.284264 C68.7187805,64.2355328 68.5319804,64.2030458 68.3939086,64.186802 C68.2558369,64.1705583 68.1096454,64.1624365 67.9553299,64.1624365 C66.6395873,64.1624365 65.6710691,64.5705543 65.0497462,65.386802 C64.4284233,66.2030498 64.1177665,67.2893333 64.1177665,68.6456853 L64.1177665,73.6162437 L61.9492386,73.6162437 Z M70.2700508,73.6162437 L70.2700508,62.2862944 L72.4385787,62.2862944 L72.4385787,64.3086294 C72.6741129,63.65888 73.0741089,63.1106621 73.6385787,62.6639594 C74.2030485,62.2172566 74.9604013,61.9939086 75.9106599,61.9939086 C76.828431,61.9939086 77.5939056,62.2091349 78.2071066,62.6395939 C78.8203076,63.0700529 79.2243645,63.6588795 79.4192893,64.4060914 C79.6710672,63.7563419 80.1096415,63.1918806 80.7350254,62.7126904 C81.3604092,62.2335001 82.1969491,61.9939086 83.2446701,61.9939086 C83.926907,61.9939086 84.5137031,62.1096435 85.0050761,62.3411168 C85.4964492,62.57259 85.8944147,62.8873077 86.1989848,63.2852792 C86.5035548,63.6832507 86.7309637,64.1563424 86.8812183,64.7045685 C87.0314728,65.2527946 87.106599,65.8355299 87.106599,66.4527919 L87.106599,73.6162437 L84.9380711,73.6162437 L84.9380711,67.0984772 C84.9380711,66.0507562 84.7350274,65.2568555 84.328934,64.7167513 C83.9228406,64.176647 83.3258923,63.906599 82.5380711,63.906599 C81.6933968,63.906599 81.0213223,64.2314688 80.5218274,64.8812183 C80.0223325,65.5309677 79.7725888,66.5218208 79.7725888,67.8538071 L79.7725888,73.6162437 L77.6040609,73.6162437 L77.6040609,67.2324873 C77.6040609,66.0873039 77.4010173,65.2467032 76.9949239,64.7106599 C76.5888305,64.1746166 76.0081256,63.906599 75.2527919,63.906599 C74.4081176,63.906599 73.7279214,64.227408 73.2121827,64.8690355 C72.6964441,65.5106631 72.4385787,66.505577 72.4385787,67.8538071 L72.4385787,73.6162437 L70.2700508,73.6162437 Z M89.1167513,67.951269 C89.1167513,67.155326 89.2588818,66.3959427 89.5431472,65.6730964 C89.8274126,64.9502502 90.2274086,64.3126931 90.7431472,63.7604061 C91.2588858,63.2081191 91.8619255,62.7756361 92.5522843,62.4629442 C93.242643,62.1502522 94.0020263,61.9939086 94.8304569,61.9939086 C95.7969591,61.9939086 96.6294381,62.205074 97.3279188,62.6274112 C98.0263994,63.0497483 98.5502521,63.5857836 98.8994924,64.235533 L98.8994924,62.2862944 L101.043655,62.2862944 L101.043655,73.6162437 L98.8994924,73.6162437 L98.8994924,71.6426396 C98.5502521,72.292389 98.0263994,72.8304547 97.3279188,73.2568528 C96.6294381,73.6832509 95.7888374,73.8964467 94.8060914,73.8964467 C93.9776608,73.8964467 93.2182776,73.7380726 92.5279188,73.4213198 C91.83756,73.1045669 91.2385812,72.672084 90.7309645,72.1238579 C90.2233477,71.5756318 89.8274126,70.9421356 89.5431472,70.2233503 C89.2588818,69.5045649 89.1167513,68.7472121 89.1167513,67.951269 Z M91.2609137,67.951269 C91.2609137,68.5035561 91.3522834,69.0192869 91.5350254,69.4984772 C91.7177674,69.9776674 91.9756329,70.3979677 92.3086294,70.7593909 C92.641626,71.120814 93.0395916,71.409136 93.5025381,71.6243655 C93.9654845,71.839595 94.4893372,71.9472081 95.0741117,71.9472081 C95.6588862,71.9472081 96.1847692,71.839595 96.6517766,71.6243655 C97.1187841,71.409136 97.5187801,71.120814 97.8517766,70.7593909 C98.1847732,70.3979677 98.4426387,69.9776674 98.6253807,69.4984772 C98.8081227,69.0192869 98.8994924,68.5035561 98.8994924,67.951269 C98.8994924,67.398982 98.8081227,66.8832511 98.6253807,66.4040609 C98.4426387,65.9248707 98.1847732,65.5025399 97.8517766,65.1370558 C97.5187801,64.7715718 97.1187841,64.4791889 96.6517766,64.2598985 C96.1847692,64.040608 95.6588862,63.9309645 95.0741117,63.9309645 C94.4893372,63.9309645 93.9654845,64.040608 93.5025381,64.2598985 C93.0395916,64.4791889 92.641626,64.7715718 92.3086294,65.1370558 C91.9756329,65.5025399 91.7177674,65.9269011 91.5350254,66.4101523 C91.3522834,66.8934034 91.2609137,67.4071039 91.2609137,67.951269 Z M108.804061,67.9025381 C108.804061,67.0578638 108.934009,66.2761457 109.193909,65.5573604 C109.453808,64.8385751 109.819287,64.2132006 110.290355,63.6812183 C110.761424,63.1492359 111.334007,62.7350269 112.008122,62.4385787 C112.682237,62.1421305 113.437559,61.9939086 114.274112,61.9939086 C115.053811,61.9939086 115.772586,62.1218261 116.430457,62.377665 C117.088328,62.6335038 117.65279,62.9949215 118.123858,63.4619289 C118.594926,63.9289363 118.964466,64.4730933 119.232487,65.0944162 C119.500509,65.7157391 119.634518,66.3837528 119.634518,67.0984772 C119.634518,67.2609145 119.630457,67.4598973 119.622335,67.6954315 C119.614213,67.9309656 119.585787,68.207105 119.537056,68.5238579 L111.02132,68.5238579 C111.02132,69.0030481 111.088324,69.4558354 111.222335,69.8822335 C111.356346,70.3086316 111.56142,70.6842623 111.837563,71.0091371 C112.113707,71.3340118 112.467003,71.5918772 112.897462,71.7827411 C113.327921,71.973605 113.843652,72.0690355 114.44467,72.0690355 C115.305588,72.0690355 115.957358,71.8903571 116.4,71.5329949 C116.842642,71.1756327 117.153299,70.7573628 117.33198,70.2781726 L119.537056,70.2781726 C119.439593,70.7573628 119.252793,71.2121806 118.97665,71.6426396 C118.700506,72.0730986 118.349241,72.4548207 117.922843,72.7878173 C117.496445,73.1208138 116.988835,73.3888315 116.4,73.5918782 C115.811165,73.7949249 115.159394,73.8964467 114.44467,73.8964467 C113.494411,73.8964467 112.665993,73.7299509 111.959391,73.3969543 C111.252788,73.0639577 110.665992,72.6213226 110.198985,72.0690355 C109.731977,71.5167485 109.382742,70.8791914 109.151269,70.1563452 C108.919796,69.4334989 108.804061,68.6822374 108.804061,67.9025381 Z M111.045685,66.8791878 L117.539086,66.8791878 C117.539086,65.945173 117.240612,65.2040637 116.643655,64.6558376 C116.046698,64.1076115 115.273101,63.8335025 114.322843,63.8335025 C113.421315,63.8335025 112.657871,64.091368 112.032487,64.6071066 C111.407103,65.1228452 111.078173,65.8801981 111.045685,66.8791878 Z M121.072081,67.951269 C121.072081,67.155326 121.214212,66.3959427 121.498477,65.6730964 C121.782743,64.9502502 122.182739,64.3126931 122.698477,63.7604061 C123.214216,63.2081191 123.817255,62.7756361 124.507614,62.4629442 C125.197973,62.1502522 125.957356,61.9939086 126.785787,61.9939086 C127.752289,61.9939086 128.584768,62.205074 129.283249,62.6274112 C129.981729,63.0497483 130.505582,63.5857836 130.854822,64.235533 L130.854822,56.1461929 L132.998985,56.1461929 L132.998985,73.6162437 L130.854822,73.6162437 L130.854822,71.6426396 C130.505582,72.292389 129.981729,72.8304547 129.283249,73.2568528 C128.584768,73.6832509 127.744167,73.8964467 126.761421,73.8964467 C125.932991,73.8964467 125.173608,73.7380726 124.483249,73.4213198 C123.79289,73.1045669 123.193911,72.672084 122.686294,72.1238579 C122.178678,71.5756318 121.782743,70.9421356 121.498477,70.2233503 C121.214212,69.5045649 121.072081,68.7472121 121.072081,67.951269 Z M123.216244,67.951269 C123.216244,68.5035561 123.307613,69.0192869 123.490355,69.4984772 C123.673097,69.9776674 123.930963,70.3979677 124.263959,70.7593909 C124.596956,71.120814 124.994922,71.409136 125.457868,71.6243655 C125.920814,71.839595 126.444667,71.9472081 127.029442,71.9472081 C127.614216,71.9472081 128.140099,71.839595 128.607107,71.6243655 C129.074114,71.409136 129.47411,71.120814 129.807107,70.7593909 C130.140103,70.3979677 130.397969,69.9776674 130.580711,69.4984772 C130.763453,69.0192869 130.854822,68.5035561 130.854822,67.951269 C130.854822,67.398982 130.763453,66.8832511 130.580711,66.4040609 C130.397969,65.9248707 130.140103,65.5025399 129.807107,65.1370558 C129.47411,64.7715718 129.074114,64.4791889 128.607107,64.2598985 C128.140099,64.040608 127.614216,63.9309645 127.029442,63.9309645 C126.444667,63.9309645 125.920814,64.040608 125.457868,64.2598985 C124.994922,64.4791889 124.596956,64.7715718 124.263959,65.1370558 C123.930963,65.5025399 123.673097,65.9269011 123.490355,66.4101523 C123.307613,66.8934034 123.216244,67.4071039 123.216244,67.951269 Z M135.874112,68.9746193 L135.874112,62.2862944 L138.04264,62.2862944 L138.04264,68.280203 C138.04264,68.8162463 138.093401,69.307612 138.194924,69.7543147 C138.296447,70.2010175 138.458882,70.5868004 138.682234,70.9116751 C138.905585,71.2365498 139.195937,71.4944153 139.553299,71.6852792 C139.910662,71.8761431 140.349236,71.9715736 140.869036,71.9715736 C141.421323,71.9715736 141.904566,71.8680213 142.318782,71.6609137 C142.732997,71.4538061 143.07208,71.1715754 143.336041,70.8142132 C143.600001,70.456851 143.798984,70.0446724 143.932995,69.577665 C144.067006,69.1106576 144.13401,68.6172615 144.13401,68.0974619 L144.13401,62.2862944 L146.302538,62.2862944 L146.302538,73.6162437 L144.13401,73.6162437 L144.13401,71.5939086 C143.801014,72.2923893 143.293404,72.8507593 142.611168,73.2690355 C141.928931,73.6873117 141.08833,73.8964467 140.08934,73.8964467 C139.374616,73.8964467 138.730967,73.7746205 138.158376,73.5309645 C137.585784,73.2873084 137.108631,72.917769 136.726904,72.422335 C136.410151,71.991876 136.188833,71.5086321 136.062944,70.9725888 C135.937055,70.4365455 135.874112,69.7705624 135.874112,68.9746193 Z M149.42132,73.6162437 L149.42132,56.1461929 L151.589848,56.1461929 L151.589848,67.4517766 L156.328934,62.2862944 L159.070051,62.2862944 L153.904569,67.951269 L159.070051,73.6162437 L156.328934,73.6162437 L151.589848,68.4751269 L151.589848,73.6162437 L149.42132,73.6162437 Z M158.984772,67.951269 C158.984772,67.155326 159.126902,66.3959427 159.411168,65.6730964 C159.695433,64.9502502 160.095429,64.3126931 160.611168,63.7604061 C161.126906,63.2081191 161.729946,62.7756361 162.420305,62.4629442 C163.110663,62.1502522 163.870047,61.9939086 164.698477,61.9939086 C165.664979,61.9939086 166.497458,62.205074 167.195939,62.6274112 C167.89442,63.0497483 168.418272,63.5857836 168.767513,64.235533 L168.767513,62.2862944 L170.911675,62.2862944 L170.911675,73.6162437 L168.767513,73.6162437 L168.767513,71.6426396 C168.418272,72.292389 167.89442,72.8304547 167.195939,73.2568528 C166.497458,73.6832509 165.656858,73.8964467 164.674112,73.8964467 C163.845681,73.8964467 163.086298,73.7380726 162.395939,73.4213198 C161.70558,73.1045669 161.106602,72.672084 160.598985,72.1238579 C160.091368,71.5756318 159.695433,70.9421356 159.411168,70.2233503 C159.126902,69.5045649 158.984772,68.7472121 158.984772,67.951269 Z M161.128934,67.951269 C161.128934,68.5035561 161.220304,69.0192869 161.403046,69.4984772 C161.585788,69.9776674 161.843653,70.3979677 162.17665,70.7593909 C162.509646,71.120814 162.907612,71.409136 163.370558,71.6243655 C163.833505,71.839595 164.357357,71.9472081 164.942132,71.9472081 C165.526906,71.9472081 166.05279,71.839595 166.519797,71.6243655 C166.986804,71.409136 167.3868,71.120814 167.719797,70.7593909 C168.052794,70.3979677 168.310659,69.9776674 168.493401,69.4984772 C168.676143,69.0192869 168.767513,68.5035561 168.767513,67.951269 C168.767513,67.398982 168.676143,66.8832511 168.493401,66.4040609 C168.310659,65.9248707 168.052794,65.5025399 167.719797,65.1370558 C167.3868,64.7715718 166.986804,64.4791889 166.519797,64.2598985 C166.05279,64.040608 165.526906,63.9309645 164.942132,63.9309645 C164.357357,63.9309645 163.833505,64.040608 163.370558,64.2598985 C162.907612,64.4791889 162.509646,64.7715718 162.17665,65.1370558 C161.843653,65.5025399 161.585788,65.9269011 161.403046,66.4101523 C161.220304,66.8934034 161.128934,67.4071039 161.128934,67.951269 Z M173.141117,67.951269 C173.141117,67.1878134 173.260913,66.4487345 173.500508,65.7340102 C173.740103,65.0192858 174.09746,64.3837591 174.572589,63.8274112 C175.047718,63.2710632 175.646697,62.8263976 176.369543,62.493401 C177.092389,62.1604044 177.937051,61.9939086 178.903553,61.9939086 C179.748228,61.9939086 180.487306,62.1177653 181.120812,62.3654822 C181.754318,62.6131992 182.288323,62.9441604 182.722843,63.3583756 C183.157363,63.7725909 183.490354,64.2416217 183.721827,64.7654822 C183.953301,65.2893427 184.093401,65.8355302 184.142132,66.4040609 L181.973604,66.4040609 C181.892385,65.7055803 181.606094,65.1187841 181.114721,64.6436548 C180.623348,64.1685255 179.902543,63.9309645 178.952284,63.9309645 C178.318779,63.9309645 177.774622,64.040608 177.319797,64.2598985 C176.864972,64.4791889 176.487311,64.7756326 176.186802,65.1492386 C175.886293,65.5228445 175.664975,65.9512666 175.522843,66.4345178 C175.38071,66.9177689 175.309645,67.4233476 175.309645,67.951269 C175.309645,68.4873123 175.38071,68.9949215 175.522843,69.4741117 C175.664975,69.9533019 175.886293,70.3776631 176.186802,70.7472081 C176.487311,71.1167531 176.869033,71.409136 177.33198,71.6243655 C177.794926,71.839595 178.351266,71.9472081 179.001015,71.9472081 C179.902543,71.9472081 180.582739,71.7461949 181.041624,71.3441624 C181.50051,70.94213 181.819288,70.4040643 181.99797,69.7299492 L184.166497,69.7299492 C184.085279,70.2822363 183.920813,70.8101498 183.673096,71.3137056 C183.425379,71.8172614 183.080205,72.2598966 182.637563,72.6416244 C182.194922,73.0233522 181.667008,73.3279176 181.053807,73.5553299 C180.440606,73.7827423 179.731984,73.8964467 178.927919,73.8964467 C177.945173,73.8964467 177.092389,73.7299509 176.369543,73.3969543 C175.646697,73.0639577 175.047718,72.6213226 174.572589,72.0690355 C174.09746,71.5167485 173.740103,70.8832523 173.500508,70.1685279 C173.260913,69.4538035 173.141117,68.7147246 173.141117,67.951269 Z M186.225381,75.0903553 L188.345178,75.0903553 C188.377665,75.9918827 188.63147,76.7167485 189.106599,77.2649746 C189.581728,77.8132007 190.395933,78.0873096 191.549239,78.0873096 C192.613203,78.0873096 193.411165,77.8071094 193.943147,77.2467005 C194.47513,76.6862916 194.741117,75.7441691 194.741117,74.4203046 L194.741117,71.5939086 C194.391876,72.2923893 193.884267,72.8507593 193.218274,73.2690355 C192.552281,73.6873117 191.71168,73.8964467 190.696447,73.8964467 C189.916747,73.8964467 189.246703,73.7705596 188.686294,73.5187817 C188.125886,73.2670038 187.671068,72.909647 187.321827,72.4467005 C187.005075,72.0162415 186.785787,71.5289367 186.663959,70.9847716 C186.542131,70.4406064 186.481218,69.7461971 186.481218,68.9015228 L186.481218,62.2862944 L188.649746,62.2862944 L188.649746,68.2314721 C188.649746,68.7675154 188.696446,69.2629419 188.789848,69.7177665 C188.883249,70.1725911 189.037562,70.5664958 189.252792,70.8994924 C189.468021,71.232489 189.754313,71.4944153 190.111675,71.6852792 C190.469037,71.8761431 190.919794,71.9715736 191.463959,71.9715736 C192.03249,71.9715736 192.523856,71.8680213 192.938071,71.6609137 C193.352286,71.4538061 193.6934,71.1715754 193.961421,70.8142132 C194.229443,70.456851 194.426395,70.0446724 194.552284,69.577665 C194.678173,69.1106576 194.741117,68.6172615 194.741117,68.0974619 L194.741117,62.2862944 L196.909645,62.2862944 L196.909645,74.4203046 C196.909645,75.4192943 196.779697,76.2700472 196.519797,76.9725888 C196.259897,77.6751304 195.898479,78.2517744 195.435533,78.7025381 C194.972587,79.1533017 194.412186,79.4822325 193.754315,79.6893401 C193.096443,79.8964477 192.369547,80 191.573604,80 C190.639589,80 189.839597,79.8761434 189.173604,79.6284264 C188.507611,79.3807094 187.963454,79.0355352 187.541117,78.5928934 C187.11878,78.1502516 186.797971,77.6304598 186.57868,77.0335025 C186.35939,76.4365452 186.241624,75.788836 186.225381,75.0903553 Z M198.115736,77.8558376 C198.367514,77.9370562 198.572588,77.991878 198.730964,78.0203046 C198.889341,78.0487311 199.033502,78.0629442 199.163452,78.0629442 C199.54518,78.0629442 199.841623,77.941118 200.052792,77.6974619 C200.26396,77.4538059 200.369543,77.0680229 200.369543,76.5401015 L200.369543,62.2862944 L202.513706,62.2862944 L202.513706,76.6619289 C202.513706,77.2791909 202.446701,77.7989827 202.31269,78.2213198 C202.17868,78.6436569 201.99594,78.9847703 201.764467,79.2446701 C201.532994,79.5045698 201.258885,79.69137 200.942132,79.8050761 C200.625379,79.9187823 200.276144,79.9756345 199.894416,79.9756345 C199.610151,79.9756345 199.293403,79.9472084 198.944162,79.8903553 C198.594922,79.8335023 198.318783,79.7644674 198.115736,79.6832487 L198.115736,77.8558376 Z M199.68731,57.9979695 C199.68731,57.5187793 199.857866,57.1045703 200.198985,56.7553299 C200.540103,56.4060896 200.954312,56.2314721 201.441624,56.2314721 C201.920815,56.2314721 202.330963,56.4060896 202.672081,56.7553299 C203.0132,57.1045703 203.183756,57.5187793 203.183756,57.9979695 C203.183756,58.4771598 203.0132,58.8832471 202.672081,59.2162437 C202.330963,59.5492402 201.920815,59.715736 201.441624,59.715736 C200.962434,59.715736 200.550256,59.5492402 200.205076,59.2162437 C199.859897,58.8832471 199.68731,58.4771598 199.68731,57.9979695 Z M205.99797,73.6162437 L205.99797,62.2862944 L208.166497,62.2862944 L208.166497,64.284264 C208.499494,63.5857833 209.003042,63.0294437 209.677157,62.6152284 C210.351272,62.2010132 211.187812,61.9939086 212.186802,61.9939086 C212.91777,61.9939086 213.565479,62.1177653 214.129949,62.3654822 C214.694419,62.6131992 215.167511,62.98883 215.549239,63.4923858 C215.865991,63.9228448 216.09137,64.4040583 216.225381,64.9360406 C216.359392,65.468023 216.426396,66.1319757 216.426396,66.9279188 L216.426396,73.6162437 L214.257868,73.6162437 L214.257868,67.5979695 C214.257868,67.0862919 214.207107,66.6010175 214.105584,66.142132 C214.00406,65.6832464 213.841625,65.2913722 213.618274,64.9664975 C213.394923,64.6416227 213.100509,64.3837573 212.735025,64.1928934 C212.369541,64.0020295 211.926906,63.906599 211.407107,63.906599 C210.85482,63.906599 210.375637,64.0162426 209.969543,64.235533 C209.56345,64.4548234 209.228428,64.7431454 208.964467,65.1005076 C208.700506,65.4578698 208.501524,65.868018 208.367513,66.3309645 C208.233502,66.7939109 208.166497,67.2771548 208.166497,67.7807107 L208.166497,73.6162437 L205.99797,73.6162437 Z M218.387817,67.951269 C218.387817,67.155326 218.529948,66.3959427 218.814213,65.6730964 C219.098479,64.9502502 219.498475,64.3126931 220.014213,63.7604061 C220.529952,63.2081191 221.132991,62.7756361 221.82335,62.4629442 C222.513709,62.1502522 223.273092,61.9939086 224.101523,61.9939086 C225.068025,61.9939086 225.900504,62.205074 226.598985,62.6274112 C227.297465,63.0497483 227.821318,63.5857836 228.170558,64.235533 L228.170558,62.2862944 L230.314721,62.2862944 L230.314721,73.6162437 L228.170558,73.6162437 L228.170558,71.6426396 C227.821318,72.292389 227.297465,72.8304547 226.598985,73.2568528 C225.900504,73.6832509 225.059903,73.8964467 224.077157,73.8964467 C223.248727,73.8964467 222.489344,73.7380726 221.798985,73.4213198 C221.108626,73.1045669 220.509647,72.672084 220.00203,72.1238579 C219.494414,71.5756318 219.098479,70.9421356 218.814213,70.2233503 C218.529948,69.5045649 218.387817,68.7472121 218.387817,67.951269 Z M220.53198,67.951269 C220.53198,68.5035561 220.623349,69.0192869 220.806091,69.4984772 C220.988833,69.9776674 221.246699,70.3979677 221.579695,70.7593909 C221.912692,71.120814 222.310658,71.409136 222.773604,71.6243655 C223.236551,71.839595 223.760403,71.9472081 224.345178,71.9472081 C224.929952,71.9472081 225.455835,71.839595 225.922843,71.6243655 C226.38985,71.409136 226.789846,71.120814 227.122843,70.7593909 C227.455839,70.3979677 227.713705,69.9776674 227.896447,69.4984772 C228.079189,69.0192869 228.170558,68.5035561 228.170558,67.951269 C228.170558,67.398982 228.079189,66.8832511 227.896447,66.4040609 C227.713705,65.9248707 227.455839,65.5025399 227.122843,65.1370558 C226.789846,64.7715718 226.38985,64.4791889 225.922843,64.2598985 C225.455835,64.040608 224.929952,63.9309645 224.345178,63.9309645 C223.760403,63.9309645 223.236551,64.040608 222.773604,64.2598985 C222.310658,64.4791889 221.912692,64.7715718 221.579695,65.1370558 C221.246699,65.5025399 220.988833,65.9269011 220.806091,66.4101523 C220.623349,66.8934034 220.53198,67.4071039 220.53198,67.951269 Z" id="platforma-edukacyjna" fill="#5B5B5B"></path>
            </g>
            <g id="Group" fill-rule="nonzero">
                <path d="M92.952381,43.9153332 L63.8030784,35.1257499 C62.7621763,34.8118749 60.6331496,36.0956561 59.8644027,36.8644061 C59.0956558,37.633156 57.8118757,39.7621871 58.1257494,40.8030932 L68.0085662,72.0211901 C61.2148379,72.2978956 54.1209249,75.2022134 51.5061831,77.9545992 C50.2686386,79.2612644 48.5502318,80 46.7549721,80 L46.2238365,80 C44.4152111,80 42.6863243,79.2586718 41.4354141,77.9465164 C38.6761516,75.0557788 30.984937,71.9997255 23.9020148,71.9997255 L5.31150821,71.9997255 C2.38487038,71.9997255 -3.55271368e-14,69.6105778 -3.55271368e-14,66.6664633 L-3.55271368e-14,5.33326216 C-3.55271368e-14,2.39189282 2.38487038,-7.10542736e-15 5.3116601,-7.10542736e-15 L23.9021667,-7.10542736e-15 C33.6594487,-7.10542736e-15 41.8711671,2.85596639 46.4762664,7.33062382 C51.0813658,2.85596639 59.2930841,-7.10542736e-15 69.0505181,-7.10542736e-15 L87.6408727,-7.10542736e-15 C90.5702445,-7.10542736e-15 92.9525328,2.39189282 92.952381,5.33326216 L92.952381,43.9153332 Z M10,15 C8.8954305,15 8,15.8954305 8,17 C8,18.1045695 8.8954305,19 10,19 L34,19 C35.1045695,19 36,18.1045695 36,17 C36,15.8954305 35.1045695,15 34,15 L10,15 Z M10,23 C8.8954305,23 8,23.8954305 8,25 C8,26.1045695 8.8954305,27 10,27 L34,27 C35.1045695,27 36,26.1045695 36,25 C36,23.8954305 35.1045695,23 34,23 L10,23 Z M58,15 C56.8954305,15 56,15.8954305 56,17 C56,18.1045695 56.8954305,19 58,19 L82,19 C83.1045695,19 84,18.1045695 84,17 C84,15.8954305 83.1045695,15 82,15 L58,15 Z M58,23 C56.8954305,23 56,23.8954305 56,25 C56,26.1045695 56.8954305,27 58,27 L82,27 C83.1045695,27 84,26.1045695 84,25 C84,23.8954305 83.1045695,23 82,23 L58,23 Z M10,31 C8.8954305,31 8,31.8954305 8,33 C8,34.1045695 8.8954305,35 10,35 L34,35 C35.1045695,35 36,34.1045695 36,33 C36,31.8954305 35.1045695,31 34,31 L10,31 Z M10,39 C8.8954305,39 8,39.8954305 8,41 C8,42.1045695 8.8954305,43 10,43 L34,43 C35.1045695,43 36,42.1045695 36,41 C36,39.8954305 35.1045695,39 34,39 L10,39 Z M10,47 C8.8954305,47 8,47.8954305 8,49 C8,50.1045695 8.8954305,51 10,51 L18,51 C19.1045695,51 20,50.1045695 20,49 C20,47.8954305 19.1045695,47 18,47 L10,47 Z" id="Path-2" fill="#5B5B5B"></path>
                <path d="M100.279664,38.7203384 C99.639042,38.0797135 98.6981864,37.8432291 97.830768,38.1047916 L62.7492684,48.6831497 C61.7879442,48.9729935 61.0992751,49.818384 61.0098223,50.8186182 C60.9203695,51.8188525 61.4480237,52.7728368 62.3427857,53.2287742 L72.2430584,58.2734611 L62.6340345,67.8824444 C61.6736478,68.8427568 61.6736478,70.399866 62.6341127,71.3601784 L67.6398738,76.3659591 C68.6001824,77.3263496 70.1572855,77.3263496 71.1176723,76.3659591 L80.7266962,66.7568977 L85.7713634,76.6572091 C86.2272209,77.5519746 87.1813577,78.0796308 88.1815099,77.9901776 C89.1816622,77.9007245 90.0270494,77.212209 90.3169701,76.2507247 L100.895209,41.1692444 C101.15677,40.3018226 100.920287,39.3609633 100.279664,38.7203384 Z" id="Path" fill="#E41D37" transform="translate(81.000000, 58.000000) scale(-1, 1) translate(-81.000000, -58.000000) "></path>
            </g>
        </g>
    </g>
</svg>