<svg xmlns="http://www.w3.org/2000/svg" width="580.07" height="410" viewBox="0 0 580.07 410"><defs><style>.a{fill:#c82742;}.b{fill:#f2f2f2;}.c{fill:#3f3d56;}.d{fill:#2f2e41;}.e{opacity:0.1;}.f{fill:#2f5dab;}.g{fill:#a0616a;}.h{fill:#fff;}</style></defs><g transform="translate(-959.688 -193)"><g transform="translate(959.688 193)"><ellipse class="a" cx="33.882" cy="33.882" rx="33.882" ry="33.882" transform="translate(305.688 19.036)"/><path class="b" d="M286.3,338.821c0,65.44-38.9,88.289-86.892,88.289s-86.892-22.849-86.892-88.289,86.892-148.69,86.892-148.69S286.3,273.381,286.3,338.821Z" transform="translate(-48.97 -122.736)"/><path class="c" d="M127.109,354.078,128,299.311l37.036-67.755-36.9,59.163.4-24.625,25.525-49.02-25.419,42.5h0l.72-44.29L156.7,176.261l-27.219,32.062.449-81.213L127.1,234.621l.232-4.435L99.544,187.65l27.344,51.05L124.3,288.164l-.077-1.313L92.185,242.088l31.939,49.4-.324,6.186-.058.093.026.508-6.569,125.5h8.777l1.053-64.821,31.861-49.28Z" transform="translate(20.247 -59.555)"/><path class="b" d="M738.441,244.672c0,79.946-47.527,107.861-106.154,107.861S526.133,324.618,526.133,244.672,632.287,63.021,632.287,63.021,738.441,164.725,738.441,244.672Z" transform="translate(-243.245 -63.021)"/><path class="c" d="M568.9,277.483l1.087-66.956,45.246-82.835-45.075,72.331.489-30.106,31.183-59.93L570.777,161.95h0l.879-54.148L605.048,60.09l-33.253,39.2L572.344,0l-3.452,131.439.284-5.422-33.949-52,33.4,62.411L565.468,196.9l-.094-1.6-39.138-54.725,39.019,60.4-.4,7.563-.07.114.032.621L556.8,362.688h10.722l1.287-79.248,38.923-60.248Z" transform="translate(-183.839 0)"/><ellipse class="c" cx="219.174" cy="11.912" rx="219.174" ry="11.912" transform="translate(0 357.059)"/><ellipse class="c" cx="75.176" cy="7.147" rx="75.176" ry="7.147" transform="translate(429.719 395.706)"/><rect class="d" width="19.059" height="178.939" transform="translate(265.937 183.944)"/><path class="c" d="M460.966,394.781h-117V361.958h117l33.882,16.412Z" transform="translate(-98.11 -170.202)"/><path class="e" d="M460.966,405.546h-117v2.647h117l33.882-16.412-2.732-1.324Z" transform="translate(-98.11 -183.609)"/><path class="c" d="M205.849,476.781h117V443.958h-117L171.967,460.37Z" transform="translate(-17.247 -208.761)"/><path class="e" d="M174.7,472.458l-2.732,1.324,33.882,16.412h117v-2.647h-117Z" transform="translate(-17.247 -222.169)"/><ellipse class="d" cx="5.823" cy="5.823" rx="5.823" ry="5.823" transform="translate(269.643 201.284)"/><ellipse class="d" cx="5.823" cy="5.823" rx="5.823" ry="5.823" transform="translate(269.643 244.724)"/><path class="f" d="M410.4,686.29c0,11.895-7.071,16.048-15.794,16.048q-.3,0-.605-.007c-.4-.009-.8-.028-1.2-.055-7.873-.557-13.989-4.924-13.989-15.987,0-11.448,14.63-25.895,15.729-26.964l0,0,.064-.062S410.4,674.4,410.4,686.29Z" transform="translate(-174.151 -343.347)"/><path class="c" d="M401.92,700.519l5.777-8.072-5.791,8.958-.015.927c-.4-.009-.8-.028-1.2-.055l.623-11.9,0-.092.011-.017.059-1.124-5.806-8.98L401.4,688.3l.013.239.471-8.992-4.97-9.279,5.031,7.7.49-18.642,0-.063v.062l-.082,14.7L407.3,668.2l-4.968,7.094-.131,8.051,4.62-7.726-4.639,8.911L402.106,689l6.707-10.754-6.732,12.315Z" transform="translate(-182.035 -343.347)"/><path class="f" d="M881.317,798.893s-7.5,6.312-11.441,5.918-11.441-.395-8.285,3.945,16.176,6.707,21.7,7.1,17.753.789,16.964-1.578-1.578-13.414-4.735-14.2S881.317,798.893,881.317,798.893Z" transform="translate(-400.754 -409.056)"/><path class="f" d="M965.122,784.806s-5.524,8.095-9.43,8.775-11.126,2.695-6.92,6.027,17.383,2.113,22.809,1.009,17.312-4.011,15.916-6.079-5.125-12.5-8.377-12.408S965.122,784.806,965.122,784.806Z" transform="translate(-441.537 -401.167)"/><path class="d" d="M887.609,561.915s-5.078,34.774-3.894,41.086,1.973,16.175,1.973,16.175-.789,8.285,0,12.23,5.523,41.425,5.523,42.214-.789,3.156,0,5.129,2.367.394,0,3.551-.789,3.945-.395,3.945,15.781,1.578,16.57,0-.394-1.973,0-3.945.789-2.367,1.578-2.762,2.367.395,1.184-1.578-3.945-4.34-3.156-5.523-.395-9.863-.395-9.863-.789-19.331-1.184-31.167,3.551-24.066,3.551-24.066a45.139,45.139,0,0,0,10.258,26.433c10.257,12.23,15.386,35.112,15.386,35.112s2.367,3.551,1.184,6.707-4.734,1.184-1.184,3.156,15.781-.789,16.964-1.973-1.578-2.762-.789-5.918,3.945-2.367,1.184-3.945-3.551-1.184-3.551-2.762-7.1-35.9-18.148-45.764l-.789-35.9s9.863-25.249-.395-27.616S887.609,561.915,887.609,561.915Z" transform="translate(-411.437 -294.04)"/><path class="g" d="M904.74,385.1s6.707,16.57,5.129,18.937,19.332-7.89,19.332-7.89-6.707-16.57-6.707-18.543S904.74,385.1,904.74,385.1Z" transform="translate(-421.416 -210.822)"/><ellipse class="g" cx="14.597" cy="14.597" rx="14.597" ry="14.597" transform="translate(473.659 149.217)"/><path class="f" d="M922.087,400.065s-10.257-1.184-15.386,5.129-5.918,7.89-5.918,7.89-12.23,19.726-9.863,29.589a28.537,28.537,0,0,1,1.578,2.762c.789,1.578.789,23.671,0,27.222s-1.578,4.734-.789,9.863-6.312,13.414,1.973,14.992,14.6.395,17.359-3.156.395-5.918,9.074-5.918a20.877,20.877,0,0,0,14.2-5.918s-4.34-4.734-2.762-5.523,0-2.762-.789-4.734-.789-3.551.394-3.551.395-.789-.394-2.762,13.808-35.9,5.129-45.764S922.876,404.8,922.876,404.8,924.454,398.881,922.087,400.065Z" transform="translate(-414.302 -221.408)"/><path class="g" d="M893.971,471v17.359l-12.625,41.819s-8.285,21.7,0,21.7,7.841-20.71,7.841-20.71l17.8-31.366s7.1-24.855,6.312-26.827S893.971,471,893.971,471Z" transform="translate(-408.674 -254.841)"/><path class="f" d="M912.944,422.556s-11.836,4.734-8.679,17.359,0,12.23,0,12.23,16.175-1.578,21.3,1.973l1.183-4.734S931.487,422.162,912.944,422.556Z" transform="translate(-420.94 -232.082)"/><path class="d" d="M898.318,341.4a5.824,5.824,0,0,1-5.471-.851,4.407,4.407,0,0,1-1.243-5.2c.755-1.483,2.371-2.3,3.921-2.9a36.439,36.439,0,0,1,10.678-2.411,9.716,9.716,0,0,1,5.136.693c.771.395,1.44.964,2.2,1.372a26.205,26.205,0,0,0,4.553,1.4,11.4,11.4,0,0,1,6.965,6.4,13.736,13.736,0,0,1,.858,3.178,17.7,17.7,0,0,1-.921,8.861c-1.682,4.478-5.209,8.392-5.408,13.171-2.159-1.566-2.959-4.393-4.689-6.423a8.737,8.737,0,0,0-4.987-2.892,2.778,2.778,0,0,1-1.486-.542,2.394,2.394,0,0,1-.543-1.266l-1.477-6.974c-.3-1.419-.68-2.967-1.847-3.829a5.591,5.591,0,0,0-2.408-.848,37.763,37.763,0,0,0-6.168-.562" transform="translate(-415.046 -188.551)"/><rect class="a" width="40" height="4" transform="translate(220.441 248.136)"/><rect class="b" width="40" height="4" transform="translate(220.441 244.133)"/><rect class="b" width="40" height="4" transform="translate(220.441 252.138)"/><path class="f" d="M0,0H40V4H0Z" transform="translate(296.494 205.108)"/><rect class="b" width="40" height="4" transform="translate(296.494 201.105)"/><rect class="b" width="40" height="4" transform="translate(296.494 209.111)"/></g><g transform="translate(985.767 488.052)"><ellipse class="d" cx="23.085" cy="23.085" rx="23.085" ry="23.085" transform="translate(6.492 15.218)"/><rect class="d" width="7.013" height="12.565" transform="matrix(0.956, -0.294, 0.294, 0.956, 24.844, 58.714)"/><rect class="d" width="7.013" height="12.565" transform="matrix(0.956, -0.294, 0.294, 0.956, 38.251, 54.593)"/><ellipse class="d" cx="5.844" cy="2.192" rx="5.844" ry="2.192" transform="matrix(0.956, -0.294, 0.294, 0.956, 27.934, 68.769)"/><ellipse class="d" cx="5.844" cy="2.192" rx="5.844" ry="2.192" transform="matrix(0.956, -0.294, 0.294, 0.956, 41.256, 64.369)"/><ellipse class="h" cx="7.89" cy="7.89" rx="7.89" ry="7.89" transform="translate(20.53 24.655)"/><ellipse class="c" cx="2.63" cy="2.63" rx="2.63" ry="2.63" transform="translate(25.789 29.915)"/><path class="f" d="M652.837,519.739c-4.234-7.432-1.016-17.245,7.187-21.919s18.286-2.437,22.52,4.995-.7,12.169-8.9,16.842S657.071,527.171,652.837,519.739Z" transform="translate(-650.972 -495.378)"/><path class="f" d="M771.776,593.812c0,16.094-9.567,21.714-21.37,21.714q-.41,0-.819-.009c-.547-.012-1.088-.038-1.624-.074-10.652-.754-18.927-6.662-18.927-21.63,0-15.49,19.794-35.036,21.281-36.482l0,0,.086-.083S771.776,577.718,771.776,593.812Z" transform="translate(-706.224 -539.166)"/><path class="c" d="M778.7,613.064l7.816-10.921-7.835,12.12-.021,1.254c-.547-.012-1.089-.038-1.624-.074l.842-16.1-.007-.125.014-.023.079-1.521-7.855-12.15,7.88,11.01.018.323.637-12.166-6.725-12.555,6.807,10.42.663-25.222,0-.086v.083l-.111,19.889,6.7-7.885-6.722,9.6-.177,10.892,6.251-10.454-6.277,12.056-.1,6.056,9.075-14.55-9.109,16.663Z" transform="translate(-735.294 -539.166)"/><ellipse class="d" cx="3.624" cy="11.543" rx="3.624" ry="11.543" transform="translate(8.633 45.504) rotate(-64.626)"/></g></g></svg>