<svg xmlns="http://www.w3.org/2000/svg" xmlns:xlink="http://www.w3.org/1999/xlink" width="629" height="483.303" viewBox="0 0 629 483.303"><defs><style>.a,.d,.i{fill:#2f5dab;}.a,.b,.e,.h{opacity:0.1;}.c{fill:#3f3d56;}.f{fill:#d0d2d5;}.g{fill:#fff;}.h{fill:#444053;}.i{opacity:0.3;}.j{fill:#fa5959;}.j,.k,.l{opacity:0.8;}.k{fill:#fed253;}.l{fill:#8ccf4d;}.m{fill:url(#a);}.n{fill:#2f2e41;}.o{fill:#454b69;}.p{fill:#fbbebe;}.q{fill:#c82742;}</style><linearGradient id="a" x1="0.459" y1="0.999" x2="0.459" y2="-0.006" gradientUnits="objectBoundingBox"><stop offset="0" stop-color="gray" stop-opacity="0.251"/><stop offset="0.54" stop-color="gray" stop-opacity="0.122"/><stop offset="1" stop-color="gray" stop-opacity="0.102"/></linearGradient></defs><ellipse class="a" cx="261.279" cy="20.339" rx="261.279" ry="20.339" transform="translate(26.891 385.964)"/><g class="b" transform="translate(417.683 56.722)"><path class="c" d="M891.786,494.932c-1.565-4.752-7.914-6.94-14.176-4.881A15.261,15.261,0,0,0,875,491.179c-.4-.111-.814-.21-1.233-.284a13.819,13.819,0,0,0,.388-4.185,15.162,15.162,0,0,0,6.718-13.233,15.18,15.18,0,0,0,6.694-13.233,14.645,14.645,0,0,0,5.072-5.744c3.02-5.979,1.769-12.7-2.8-15.008s-10.724.666-13.744,6.644a14.6,14.6,0,0,0-1.621,7.489,15.181,15.181,0,0,0-6.693,13.233,15.181,15.181,0,0,0-6.693,13.233,15.187,15.187,0,0,0-6.718,13.239,14.644,14.644,0,0,0-5.072,5.744,15.69,15.69,0,0,0-1.282,3.538,13.053,13.053,0,0,0-2.737-2.915,15.641,15.641,0,0,0-.616-2.773c-2.059-6.268-7.581-10.09-12.327-8.524s-6.94,7.908-4.881,14.176a14.219,14.219,0,0,0,4.66,6.829,15.641,15.641,0,0,0,.616,2.773,13.561,13.561,0,0,0,6.256,7.858,14.32,14.32,0,0,0-.512,2.4,15.587,15.587,0,0,0-4.647,9.19,15.575,15.575,0,0,0-4.647,9.2,15.182,15.182,0,0,0-3.082,4.2c-3.026,5.979-1.775,12.7,2.792,15.008s10.724-.659,13.751-6.644a15.174,15.174,0,0,0,1.541-4.986,15.587,15.587,0,0,0,4.647-9.19,15.575,15.575,0,0,0,4.647-9.2,15.538,15.538,0,0,0,4.592-9.19,15.538,15.538,0,0,0,4.66-9.208,14.863,14.863,0,0,0,2.089-2.465,14.459,14.459,0,0,0,7.563-.475,15.257,15.257,0,0,0,2.607-1.128,14.3,14.3,0,0,0,8.271-.3C889.506,505.213,893.345,499.691,891.786,494.932Z" transform="translate(-789.962 -260.223)"/><g class="b" transform="translate(35.148 195.097)"><path d="M914.024,499.53a13.25,13.25,0,0,1-2.12,1.7,14.175,14.175,0,0,1-.684,5.2,16.135,16.135,0,0,0,1.294-2.114,15.185,15.185,0,0,0,1.51-4.777Z" transform="translate(-858.399 -478.654)"/><path d="M924.884,478.06a13.252,13.252,0,0,1-2.12,1.695,14.175,14.175,0,0,1-.684,5.2,15.809,15.809,0,0,0,1.294-2.12,15.318,15.318,0,0,0,1.51-4.771Z" transform="translate(-862.566 -470.417)"/><path d="M899.648,468.378a13.512,13.512,0,0,1,.1-2.718,15.365,15.365,0,0,0-2.946,4.049,15.8,15.8,0,0,0-.937,2.3A14.02,14.02,0,0,1,899.648,468.378Z" transform="translate(-852.51 -465.66)"/><path d="M833.07,597.169a14.542,14.542,0,0,1,1.818-2.083,14.125,14.125,0,0,1,.536-2.465,15.465,15.465,0,0,0-1.411,2.287,15.785,15.785,0,0,0-.943,2.262Z" transform="translate(-828.417 -514.369)"/><path d="M840.61,582.307a14.542,14.542,0,0,1,1.818-2.083,14.165,14.165,0,0,1,.511-2.4h0a15.827,15.827,0,0,0-1.356,2.213A16.48,16.48,0,0,0,840.61,582.307Z" transform="translate(-831.309 -508.691)"/><path d="M903.342,520.909a12.83,12.83,0,0,1-2.114,1.689,13.842,13.842,0,0,1-.388,4.185,11.561,11.561,0,0,1,1.233.284,15.272,15.272,0,0,1,2.607-1.128c6.274-2.059,12.617.129,14.176,4.881a7.2,7.2,0,0,1,.2,3.7c2.065-2.428,2.922-5.387,2.034-8.1-1.565-4.752-7.914-6.94-14.176-4.881a15.259,15.259,0,0,0-2.607,1.128c-.4-.111-.814-.21-1.233-.284C903.188,521.889,903.275,521.4,903.342,520.909Z" transform="translate(-854.417 -486.801)"/><path d="M827.881,607.49a15.46,15.46,0,0,0-1.411,2.287,16.368,16.368,0,0,0-.949,2.305,15.091,15.091,0,0,1,1.849-2.1A14.133,14.133,0,0,1,827.881,607.49Z" transform="translate(-825.52 -520.074)"/><path d="M888.738,489.848a13.557,13.557,0,0,1,.1-2.718,15.366,15.366,0,0,0-2.946,4.049,15.8,15.8,0,0,0-.937,2.3A14.022,14.022,0,0,1,888.738,489.848Z" transform="translate(-848.325 -473.897)"/><path d="M875.016,577.926a14.97,14.97,0,0,1-.616,2.7,16.444,16.444,0,0,0,1.288-2.12,15.713,15.713,0,0,0,1-2.465A14.936,14.936,0,0,1,875.016,577.926Z" transform="translate(-844.273 -508.008)"/><path d="M859.936,607.746a14.888,14.888,0,0,1-.616,2.7,15.816,15.816,0,0,0,1.294-2.12,16.319,16.319,0,0,0,1-2.465A14.532,14.532,0,0,1,859.936,607.746Z" transform="translate(-838.488 -519.449)"/><path d="M867.476,592.849a14.861,14.861,0,0,1-.616,2.7,16.439,16.439,0,0,0,1.319-2.083,15.713,15.713,0,0,0,1-2.465,14.934,14.934,0,0,1-1.707,1.849Z" transform="translate(-841.38 -513.747)"/><path d="M882.556,562.989a14.792,14.792,0,0,1-.616,2.693,15.94,15.94,0,0,0,1.288-2.114,15.69,15.69,0,0,0,1.011-2.508A14.3,14.3,0,0,1,882.556,562.989Z" transform="translate(-847.166 -502.261)"/><path d="M831.659,523.5c4.758-1.559,10.281,2.256,12.327,8.524a15.841,15.841,0,0,1,.616,2.78,13.056,13.056,0,0,1,2.737,2.915,15.735,15.735,0,0,1,1.282-3.544c.216-.419.45-.82.69-1.233a12.987,12.987,0,0,0-2.465-2.576,15.635,15.635,0,0,0-.616-2.774c-2.059-6.268-7.581-10.09-12.327-8.524-2.712.888-4.586,3.334-5.313,6.428A7.2,7.2,0,0,1,831.659,523.5Z" transform="translate(-826.698 -486.017)"/><path d="M867.018,532.792a13.465,13.465,0,0,1,.111-2.712,15.245,15.245,0,0,0-2.952,4.049,15.462,15.462,0,0,0-.937,2.293,14.178,14.178,0,0,1,3.778-3.63Z" transform="translate(-839.992 -490.375)"/><path d="M877.878,511.312a13.465,13.465,0,0,1,.111-2.712,15.111,15.111,0,0,0-2.952,4.043,15.8,15.8,0,0,0-.937,2.3A14.021,14.021,0,0,1,877.878,511.312Z" transform="translate(-844.158 -482.134)"/><path d="M852.4,622.641a14.946,14.946,0,0,1-.616,2.706,15.859,15.859,0,0,0,2.3-4.616,14.53,14.53,0,0,1-1.683,1.911Z" transform="translate(-835.595 -525.154)"/></g><path class="c" d="M932.472,417.3a14.594,14.594,0,0,0,5.073-5.744c3.026-5.979,1.775-12.7-2.792-15.014s-10.724.666-13.751,6.65a14.6,14.6,0,0,0-1.615,7.507,15.181,15.181,0,0,0-6.693,13.233,14.552,14.552,0,0,0-5.073,5.744,15.221,15.221,0,0,0-.931,2.274,12.85,12.85,0,0,1,6.638-4.931,7.544,7.544,0,0,0,9.578,4.832,12.851,12.851,0,0,1,0,8.265,15.7,15.7,0,0,0,1.282-2.1,14.6,14.6,0,0,0,1.615-7.489A15.144,15.144,0,0,0,932.5,417.3Z" transform="translate(-821.513 -243.745)"/><path class="d" d="M997.743,240.723a44.371,44.371,0,0,0,5.375-2.977l-19.926-14.558,23.421,12.062a44.457,44.457,0,0,0,16.641-31.008l-39.8.407,39.89-6.669a44.377,44.377,0,1,0-87.878,11.267,44.432,44.432,0,0,0-8.173,4.931l20.8,28.925-24.974-25.319a44.426,44.426,0,0,0-12.432,40.438,44.377,44.377,0,1,0,62.282,31.5,44.377,44.377,0,0,0,24.777-48.993Z" transform="translate(-813.218 -152.001)"/><path class="e" d="M914.619,274.605a44.235,44.235,0,0,0-3.914,28.789,44.377,44.377,0,1,0,62.282,31.5C981.7,330.847,916.85,270.161,914.619,274.605Z" transform="translate(-813.226 -197.174)"/><circle class="d" cx="6.589" cy="6.589" r="6.589" transform="translate(144.814)"/><circle class="d" cx="6.589" cy="6.589" r="6.589" transform="translate(183.298 4.228)"/><circle class="d" cx="6.589" cy="6.589" r="6.589" transform="translate(198.14 63.434)"/><circle class="d" cx="6.589" cy="6.589" r="6.589" transform="translate(178.109 93)"/><circle class="d" cx="6.589" cy="6.589" r="6.589" transform="translate(150.743 154.406)"/><circle class="e" cx="6.589" cy="6.589" r="6.589" transform="translate(150.743 154.406)"/><circle class="d" cx="6.589" cy="6.589" r="6.589" transform="translate(89.898 84.858)"/><circle class="e" cx="6.589" cy="6.589" r="6.589" transform="translate(89.898 84.858)"/><path class="e" d="M910.41,464.442c-4.382-2.213-5.707-8.481-3.149-14.262-.136.234-.265.475-.388.727-3.026,5.979-1.775,12.7,2.792,15.008s10.724-.666,13.744-6.644c.129-.247.24-.5.351-.746C920.623,464.017,914.786,466.661,910.41,464.442Z" transform="translate(-820.95 -264.624)"/><path class="e" d="M899.85,485.318c-4.376-2.213-5.707-8.481-3.143-14.268-.136.24-.271.481-.394.727-3.026,5.979-1.775,12.7,2.792,15.008s10.724-.659,13.751-6.644c.123-.247.24-.493.351-.746C910.063,484.887,904.232,487.531,899.85,485.318Z" transform="translate(-816.899 -272.63)"/><path class="e" d="M889.291,506.192c-4.376-2.213-5.707-8.481-3.143-14.262-.136.234-.271.475-.394.727-3.026,5.979-1.769,12.7,2.8,15.008S899.27,507,902.3,501.021c.123-.247.24-.5.351-.746C899.51,505.767,893.673,508.411,889.291,506.192Z" transform="translate(-812.848 -280.641)"/><path class="e" d="M878.769,527.122c-4.382-2.213-5.707-8.481-3.15-14.262-.136.234-.265.475-.394.721-3.02,5.979-1.769,12.7,2.8,15.014s10.724-.666,13.744-6.65c.129-.247.24-.493.351-.746C888.963,526.66,883.127,529.3,878.769,527.122Z" transform="translate(-808.81 -288.671)"/><path class="e" d="M868.18,547.942c-4.382-2.213-5.707-8.481-3.15-14.262-.136.234-.265.475-.388.727-3.026,5.979-1.775,12.7,2.792,15.008s10.724-.666,13.751-6.644c.123-.247.24-.5.351-.746C878.405,547.517,872.556,550.161,868.18,547.942Z" transform="translate(-804.748 -296.659)"/><path class="e" d="M857.62,568.822c-4.376-2.213-5.707-8.481-3.143-14.262-.136.234-.271.475-.394.721-3.026,5.979-1.775,12.7,2.8,15.014s10.694-.672,13.775-6.65c.123-.247.24-.493.351-.746C867.833,568.391,862.027,571.035,857.62,568.822Z" transform="translate(-800.697 -304.67)"/><path class="e" d="M847.063,589.692c-4.376-2.213-5.707-8.481-3.143-14.262-.135.24-.265.475-.394.727-3.02,5.979-1.769,12.7,2.8,15.008s10.724-.666,13.744-6.644c.13-.247.24-.5.351-.746C857.282,589.267,851.445,591.911,847.063,589.692Z" transform="translate(-796.648 -312.676)"/><path class="e" d="M836.51,610.572c-4.382-2.213-5.707-8.481-3.15-14.262q-.2.351-.388.721c-3.026,5.979-1.775,12.7,2.792,15.014s10.724-.666,13.751-6.65c.123-.247.234-.493.345-.746C846.723,610.141,840.886,612.76,836.51,610.572Z" transform="translate(-792.598 -320.687)"/><path class="e" d="M829.57,624.288c-4.376-2.219-5.707-8.481-3.143-14.268-.136.24-.271.481-.394.727-3.026,5.979-1.775,12.7,2.792,15.008s10.724-.659,13.751-6.644c.123-.247.24-.493.351-.746C839.783,623.857,833.946,626.5,829.57,624.288Z" transform="translate(-789.935 -325.947)"/><path class="d" d="M983.245,519.744a23.051,23.051,0,0,0,1.233-6.034,3.291,3.291,0,1,0-.5-6.546,23,23,0,0,0-12.1-15.6,3.294,3.294,0,0,0-5.88-2.971,3.082,3.082,0,0,0-.3.881,23.107,23.107,0,0,0-20.259,6.071,23.2,23.2,0,0,0-6.052-.179l-2.669,12.148-.16-11.711a23.064,23.064,0,1,0,12.327,44.377,3.254,3.254,0,0,0,1.387,1.331,3.291,3.291,0,0,0,4.512-4.24,23.009,23.009,0,0,0,2.958-2.416,23.082,23.082,0,0,0,24.229-12.222l-12.419-2.089Z" transform="translate(-826.018 -278.667)"/><g class="b" transform="translate(92.382 215.813)"><path d="M964.039,530.432c-4.586-6.052-7.4-13.221-10.632-20.1a84.055,84.055,0,0,0-4.357-8.234l-2.428-2.829c-.407.345-.814.7-1.233,1.079a23.2,23.2,0,0,0-6.053-.179l-2.669,12.148-.16-11.711a23.064,23.064,0,1,0,12.327,44.377,3.254,3.254,0,0,0,1.387,1.331,3.291,3.291,0,0,0,4.512-4.24,23.026,23.026,0,0,0,2.958-2.416,23.107,23.107,0,0,0,13.831-2.046,32.487,32.487,0,0,1-7.482-7.18Z" transform="translate(-918.381 -499.27)"/></g><path class="d" d="M825.331,478.719a3.291,3.291,0,0,0-2.946-4.777,23.033,23.033,0,0,0-7.211-12.838,23.128,23.128,0,0,0,.678-7.211l-12.111-2.065,11.76-.74a23.416,23.416,0,0,0-.869-3.254,3.365,3.365,0,0,0,1.085-1.233,3.3,3.3,0,0,0-4.062-4.586,23.064,23.064,0,0,0-41.166,19.057,3.236,3.236,0,0,0-1.639,1.541,3.291,3.291,0,0,0,4.16,4.542,23.131,23.131,0,0,0,4.37,5.331,23.051,23.051,0,0,0,1.072,14.644l16.241-4.216-14.484,7.618a23.064,23.064,0,0,0,42.472-10.022,3.285,3.285,0,0,0,2.65-1.794Z" transform="translate(-768.494 -257.753)"/><path class="e" d="M830.412,495.944a3.291,3.291,0,0,0-2.946-4.777,23.033,23.033,0,0,0-7.211-12.838c.1-.388.185-.77.259-1.159a8.123,8.123,0,0,0-1.19,1.054c-2.188,2.4-3.31,5.621-5.473,8.043a15.765,15.765,0,0,1-10.188,4.752,38.789,38.789,0,0,1-11.421-.918c-3.119-.616-6.281-1.331-9.442-1.029a5.279,5.279,0,0,0-.9.117c.185.179.37.357.561.53a23.052,23.052,0,0,0,1.073,14.644l16.241-4.222-14.484,7.618a23.064,23.064,0,0,0,42.472-10.022,3.285,3.285,0,0,0,2.65-1.794Z" transform="translate(-773.575 -274.978)"/></g><g class="b" transform="translate(0 196.248)"><path class="c" d="M177.363,550.692c.789-2.4,3.988-3.5,7.143-2.465a7.874,7.874,0,0,1,1.313.567c.2-.055.413-.1.616-.142a6.94,6.94,0,0,1-.2-2.108,7.68,7.68,0,0,1-3.371-6.669,7.659,7.659,0,0,1-3.371-6.663,7.4,7.4,0,0,1-2.552-2.9c-1.516-3.008-.9-6.392,1.411-7.563s5.405.339,6.928,3.347a7.4,7.4,0,0,1,.814,3.778,7.624,7.624,0,0,1,3.371,6.663,7.643,7.643,0,0,1,3.371,6.669,7.624,7.624,0,0,1,3.371,6.663,7.4,7.4,0,0,1,2.558,2.9,7.8,7.8,0,0,1,.616,1.787,6.571,6.571,0,0,1,1.374-1.473,7.751,7.751,0,0,1,.32-1.4c1.042-3.156,3.821-5.079,6.219-4.314s3.495,3.988,2.465,7.143a7.192,7.192,0,0,1-2.348,3.445,7.808,7.808,0,0,1-.32,1.393,6.841,6.841,0,0,1-3.15,3.957,7.91,7.91,0,0,1,.259,1.233,7.748,7.748,0,0,1,1.559,2.114,7.593,7.593,0,0,1,.777,2.515,7.734,7.734,0,0,1,1.566,2.114,7.637,7.637,0,0,1,.777,2.515,7.675,7.675,0,0,1,1.566,2.12c1.522,3.008.894,6.4-1.405,7.556s-5.405-.333-6.928-3.347a7.692,7.692,0,0,1-.777-2.515A7.828,7.828,0,0,1,199,572.985a7.828,7.828,0,0,1-2.342-4.629,7.766,7.766,0,0,1-1.566-2.114,7.846,7.846,0,0,1-.777-2.515,7.748,7.748,0,0,1-1.559-2.114,7.593,7.593,0,0,1-.777-2.515,7.167,7.167,0,0,1-1.054-1.233,7.335,7.335,0,0,1-3.809-.234,8.2,8.2,0,0,1-1.319-.573,7.156,7.156,0,0,1-4.16-.148C178.509,555.869,176.58,553.089,177.363,550.692Z" transform="translate(-122.206 -432.446)"/><g class="b" transform="translate(55.01 98.288)"><path d="M187.17,553a6.611,6.611,0,0,0,1.072.857,6.971,6.971,0,0,0,.345,2.613,7.36,7.36,0,0,1-.653-1.066,7.68,7.68,0,0,1-.764-2.4Z" transform="translate(-181.458 -542.491)"/><path d="M181.7,542.2a6.91,6.91,0,0,0,1.072.851,7.02,7.02,0,0,0,.345,2.62A7.828,7.828,0,0,1,181.7,542.2Z" transform="translate(-179.359 -538.348)"/><path d="M194.1,537.318a6.848,6.848,0,0,0-.049-1.368,7.8,7.8,0,0,1,1.485,2.04,8.015,8.015,0,0,1,.468,1.159,7.039,7.039,0,0,0-1.9-1.831Z" transform="translate(-184.098 -535.95)"/><path d="M228.093,602.211a7.177,7.177,0,0,0-.912-1.048,7.639,7.639,0,0,0-.271-1.233,8.156,8.156,0,0,1,.709,1.146,8.016,8.016,0,0,1,.475,1.134Z" transform="translate(-196.704 -560.496)"/><path d="M224.271,594.7a7.181,7.181,0,0,0-.912-1.048,7.242,7.242,0,0,0-.259-1.233h0a7.811,7.811,0,0,1,1.159,2.268Z" transform="translate(-195.243 -557.615)"/><path d="M186.992,563.786a6.231,6.231,0,0,0,1.066.844,6.717,6.717,0,0,0,.2,2.108,6.174,6.174,0,0,0-.616.142,8.173,8.173,0,0,0-1.319-.567c-3.156-1.035-6.354.068-7.137,2.465a3.587,3.587,0,0,0-.1,1.849,4.271,4.271,0,0,1-1.023-4.074c.789-2.4,3.988-3.5,7.143-2.465a7.874,7.874,0,0,1,1.313.567c.2-.056.413-.1.616-.142a6.367,6.367,0,0,1-.136-.727Z" transform="translate(-177.902 -546.596)"/><path d="M230.71,607.4a7.887,7.887,0,0,1,.709,1.153,8.009,8.009,0,0,1,.475,1.159,7.229,7.229,0,0,0-.912-1.054A7.642,7.642,0,0,0,230.71,607.4Z" transform="translate(-198.162 -563.362)"/><path d="M199.569,548.148a6.83,6.83,0,0,0-.049-1.368,7.7,7.7,0,0,1,1.485,2.04,7.934,7.934,0,0,1,.468,1.153A7.014,7.014,0,0,0,199.569,548.148Z" transform="translate(-186.196 -540.105)"/><path d="M206.977,592.5a7.359,7.359,0,0,0,.3,1.356,7.784,7.784,0,0,1-1.159-2.324,7.223,7.223,0,0,0,.857.968Z" transform="translate(-188.728 -557.274)"/><path d="M214.571,607.533a7.8,7.8,0,0,0,.308,1.356,7.354,7.354,0,0,1-.653-1.066,7.939,7.939,0,0,1-.505-1.233A8.01,8.01,0,0,0,214.571,607.533Z" transform="translate(-191.644 -563.051)"/><path d="M210.777,600.023a7.359,7.359,0,0,0,.3,1.356,7.939,7.939,0,0,1-.653-1.066,7.768,7.768,0,0,1-.505-1.233,7.226,7.226,0,0,0,.857.943Z" transform="translate(-190.186 -560.17)"/><path d="M203.2,585a7.31,7.31,0,0,0,.3,1.362,7.67,7.67,0,0,1-.616-1.066,7.535,7.535,0,0,1-.512-1.233A6.86,6.86,0,0,0,203.2,585Z" transform="translate(-187.29 -554.408)"/><path d="M223.036,565.1c-2.4-.789-5.177,1.134-6.213,4.314a7.755,7.755,0,0,0-.32,1.4,6.552,6.552,0,0,0-1.381,1.467,7.907,7.907,0,0,0-.647-1.787c-.1-.21-.222-.413-.345-.616a6.552,6.552,0,0,1,1.233-1.294,7.754,7.754,0,0,1,.321-1.4c1.042-3.156,3.821-5.079,6.219-4.314a4.271,4.271,0,0,1,2.675,3.242,3.655,3.655,0,0,0-1.541-1.011Z" transform="translate(-191.801 -546.212)"/><path d="M210.509,569.768a6.846,6.846,0,0,0-.049-1.368,7.7,7.7,0,0,1,1.485,2.04,8.014,8.014,0,0,1,.468,1.159,6.952,6.952,0,0,0-1.9-1.831Z" transform="translate(-190.393 -548.4)"/><path d="M205.039,558.948a6.858,6.858,0,0,0-.049-1.368,7.909,7.909,0,0,1,1.485,2.04,8.018,8.018,0,0,1,.468,1.159,7.04,7.04,0,0,0-1.9-1.831Z" transform="translate(-188.295 -544.248)"/><path d="M218.371,615.043a7.333,7.333,0,0,0,.308,1.362,7.772,7.772,0,0,1-.653-1.072,7.932,7.932,0,0,1-.505-1.233A8.01,8.01,0,0,0,218.371,615.043Z" transform="translate(-193.102 -565.933)"/></g><path class="c" d="M168.565,511.587a7.347,7.347,0,0,1-2.552-2.891c-1.522-3.014-.894-6.4,1.405-7.562s5.405.333,6.928,3.347a7.353,7.353,0,0,1,.814,3.772,7.643,7.643,0,0,1,3.371,6.669,7.4,7.4,0,0,1,2.558,2.891,8.158,8.158,0,0,1,.468,1.146,6.515,6.515,0,0,0-3.347-2.465,3.8,3.8,0,0,1-4.826,2.465,6.484,6.484,0,0,0,0,4.16,8.125,8.125,0,0,1-.616-1.054,7.4,7.4,0,0,1-.82-3.772,7.661,7.661,0,0,1-3.371-6.669Z" transform="translate(-118.012 -424.153)"/><path class="d" d="M102.528,422.457a22.694,22.694,0,0,1-2.706-1.5l10.034-7.334-11.8,6.071a22.4,22.4,0,0,1-8.376-15.618l20.056.21-20.1-3.365a22.367,22.367,0,1,1,44.26,5.67,22.634,22.634,0,0,1,4.117,2.465l-10.478,14.57,12.58-12.746a22.386,22.386,0,0,1,6.262,20.37,22.367,22.367,0,1,1-31.372,15.865,22.361,22.361,0,0,1-12.481-24.654Z" transform="translate(-89.03 -377.759)"/><path class="e" d="M159.924,439.707a22.262,22.262,0,0,1,1.972,14.5,22.367,22.367,0,1,1-31.372,15.865C126.13,468.034,158.8,437.47,159.924,439.707Z" transform="translate(-104.546 -400.693)"/><circle class="d" cx="3.322" cy="3.322" r="3.322" transform="translate(26.86)"/><circle class="d" cx="3.322" cy="3.322" r="3.322" transform="translate(7.47 2.133)"/><circle class="d" cx="3.322" cy="3.322" r="3.322" transform="translate(0 31.957)"/><circle class="d" cx="3.322" cy="3.322" r="3.322" transform="translate(10.09 46.854)"/><circle class="d" cx="3.322" cy="3.322" r="3.322" transform="translate(23.871 77.789)"/><circle class="e" cx="3.322" cy="3.322" r="3.322" transform="translate(23.871 77.789)"/><circle class="d" cx="3.322" cy="3.322" r="3.322" transform="translate(54.522 42.75)"/><circle class="e" cx="3.322" cy="3.322" r="3.322" transform="translate(54.522 42.75)"/><path class="e" d="M184.06,535.337c2.207-1.116,2.872-4.271,1.584-7.187.068.123.136.24.2.364,1.522,3.014.894,6.4-1.411,7.563s-5.4-.333-6.922-3.347c-.062-.123-.123-.247-.179-.376C178.914,535.121,181.854,536.452,184.06,535.337Z" transform="translate(-122.673 -434.669)"/><path class="e" d="M189.374,545.857c2.207-1.116,2.878-4.277,1.59-7.187.068.117.136.24.2.364,1.522,3.014.894,6.4-1.411,7.563s-5.4-.333-6.922-3.347c-.068-.123-.123-.253-.179-.376C184.234,545.653,187.18,546.972,189.374,545.857Z" transform="translate(-124.714 -438.705)"/><path class="e" d="M194.694,556.367c2.207-1.116,2.878-4.271,1.584-7.187.074.123.136.24.2.37,1.522,3.008.888,6.4-1.411,7.556s-5.4-.333-6.922-3.347c-.068-.123-.123-.247-.179-.376C189.548,556.151,192.488,557.482,194.694,556.367Z" transform="translate(-126.755 -442.737)"/><path class="e" d="M200.014,566.887c2.207-1.116,2.878-4.271,1.584-7.187.068.117.136.24.2.364,1.529,3.014.894,6.4-1.405,7.563s-5.405-.333-6.928-3.347c-.062-.123-.117-.253-.173-.376C194.868,566.665,197.808,568,200.014,566.887Z" transform="translate(-128.796 -446.773)"/><path class="e" d="M205.33,577.4c2.207-1.116,2.872-4.271,1.584-7.18.068.117.136.24.2.364,1.522,3.014.894,6.4-1.405,7.563s-5.405-.339-6.928-3.347c-.062-.129-.117-.253-.179-.376C200.184,577.185,203.124,578.516,205.33,577.4Z" transform="translate(-130.833 -450.81)"/><path class="e" d="M210.65,587.917c2.207-1.116,2.872-4.271,1.584-7.187.068.123.136.24.2.364,1.522,3.014.894,6.4-1.405,7.563s-5.405-.333-6.928-3.347c-.062-.123-.123-.247-.179-.376C205.5,587.676,208.444,589.032,210.65,587.917Z" transform="translate(-132.874 -454.842)"/><path class="e" d="M215.97,598.437c2.2-1.116,2.872-4.277,1.584-7.187.068.117.136.24.2.364,1.522,3.014.894,6.4-1.411,7.563s-5.4-.339-6.922-3.347c-.062-.129-.123-.253-.179-.376C210.824,598.215,213.764,599.552,215.97,598.437Z" transform="translate(-134.915 -458.878)"/><path class="e" d="M221.284,608.947c2.207-1.116,2.878-4.271,1.584-7.187.074.123.136.24.2.37,1.522,3.008.888,6.4-1.411,7.556s-5.4-.333-6.922-3.347c-.068-.123-.123-.247-.179-.376C216.144,608.731,219.078,610.062,221.284,608.947Z" transform="translate(-136.956 -462.91)"/><path class="e" d="M224.81,615.857c2.207-1.116,2.872-4.271,1.584-7.187.068.123.136.24.2.37,1.522,3.008.894,6.4-1.405,7.556s-5.405-.333-6.928-3.347c-.062-.123-.123-.247-.179-.376C219.646,615.653,222.585,616.972,224.81,615.857Z" transform="translate(-138.307 -465.561)"/><path class="d" d="M131.448,563.194a11.446,11.446,0,0,1-.616-3.039,1.658,1.658,0,1,1,.253-3.3,11.6,11.6,0,0,1,6.1-7.858,1.661,1.661,0,1,1,2.965-1.5,1.5,1.5,0,0,1,.148.444,11.661,11.661,0,0,1,10.207,3.082,11.513,11.513,0,0,1,3.082-.086l1.344,6.114.031-5.9a11.618,11.618,0,1,1-6.213,22.367,1.7,1.7,0,0,1-.7.672,1.664,1.664,0,0,1-2.28-2.139,11.617,11.617,0,0,1-1.485-1.233,11.63,11.63,0,0,1-12.2-6.163l6.256-1.054Z" transform="translate(-104.199 -441.744)"/><g class="b" transform="translate(33.11 108.723)"><path d="M146.173,568.578c2.311-3.082,3.729-6.656,5.356-10.12a41.113,41.113,0,0,1,2.194-4.154l1.233-1.424c.21.179.413.357.616.542a11.516,11.516,0,0,1,3.082-.086L160,559.45l.018-5.88a11.618,11.618,0,1,1-6.213,22.367,1.7,1.7,0,0,1-.7.672,1.664,1.664,0,0,1-2.28-2.139,11.618,11.618,0,0,1-1.485-1.233,11.711,11.711,0,0,1-6.971-1.029,16.388,16.388,0,0,0,3.8-3.63Z" transform="translate(-142.37 -552.88)"/></g><path class="d" d="M214.8,542.534a1.652,1.652,0,0,1,.733-2.225,1.627,1.627,0,0,1,.752-.179,11.618,11.618,0,0,1,3.63-6.472,11.532,11.532,0,0,1-.339-3.63l6.1-1.023-5.923-.376a11.494,11.494,0,0,1,.444-1.639,1.627,1.627,0,0,1-.549-.616,1.664,1.664,0,0,1,2.046-2.311,11.483,11.483,0,0,1,4.234-3.655,11.612,11.612,0,0,1,16.5,13.251,1.658,1.658,0,0,1-1.27,3.063,11.549,11.549,0,0,1-2.2,2.675,11.649,11.649,0,0,1-.536,7.4l-8.154-2.145,7.291,3.84a11.624,11.624,0,0,1-20.235-.949,11.778,11.778,0,0,1-1.2-4.1A1.646,1.646,0,0,1,214.8,542.534Z" transform="translate(-136.979 -431.216)"/><path class="e" d="M214.8,551.2a1.652,1.652,0,0,1,.733-2.225,1.627,1.627,0,0,1,.752-.179,11.618,11.618,0,0,1,3.63-6.472c-.049-.191-.092-.388-.129-.579a4.48,4.48,0,0,1,.616.53c1.1,1.233,1.67,2.829,2.755,4.049a7.957,7.957,0,0,0,5.134,2.4,19.442,19.442,0,0,0,5.751-.462,16.859,16.859,0,0,1,4.758-.524l.456.062-.284.265a11.649,11.649,0,0,1-.536,7.4l-8.173-2.145,7.291,3.84a11.624,11.624,0,0,1-20.235-.949,11.778,11.778,0,0,1-1.2-4.1A1.646,1.646,0,0,1,214.8,551.2Z" transform="translate(-136.979 -439.887)"/></g><path class="a" d="M411.727,98.66a12.469,12.469,0,0,0-7.236.789,10.675,10.675,0,0,1-8.69,0,12.179,12.179,0,0,0-10.219.2,6.336,6.336,0,0,1-2.94.733c-4.142,0-7.587-4.173-8.3-9.677a8.056,8.056,0,0,0,2.071-2.231c2.428-3.914,6.163-6.428,10.41-6.428s7.945,2.465,10.373,6.355a8.013,8.013,0,0,0,6.878,3.784h.111C407.45,92.17,410.3,94.814,411.727,98.66Z" transform="translate(-198.653 -66.666)"/><path class="a" d="M424.3,71.827,417.6,76.073l4.062-7.4a6.62,6.62,0,0,0-4.049-1.442h-.1a7.945,7.945,0,0,1-1.387-.1l-2.274,1.442.974-1.769a8.13,8.13,0,0,1-3.969-2.989l-4.074,2.545,2.564-4.666a11.881,11.881,0,0,0-9.1-4.6c-4.222,0-8.012,2.515-10.416,6.428a7.778,7.778,0,0,1-6.885,3.7h-.2c-4.66,0-8.444,5.282-8.444,11.809s3.784,11.8,8.444,11.8a6.336,6.336,0,0,0,2.94-.733,12.154,12.154,0,0,1,10.219-.2,10.706,10.706,0,0,0,8.69,0,12.173,12.173,0,0,1,10.126.2,6.38,6.38,0,0,0,2.909.715c4.666,0,8.444-5.282,8.444-11.8a15.013,15.013,0,0,0-1.775-7.18Z" transform="translate(-198.648 -57.09)"/><path class="a" d="M175.752,232.746a17.874,17.874,0,0,0-10.336,1.122A15.23,15.23,0,0,1,153,233.837a17.393,17.393,0,0,0-14.6.29,9.091,9.091,0,0,1-4.2,1.048c-5.917,0-10.841-5.96-11.865-13.825a11.347,11.347,0,0,0,2.958-3.186c3.47-5.59,8.845-9.184,14.879-9.184s11.341,3.55,14.792,9.079a11.415,11.415,0,0,0,9.862,5.405h.154C169.657,223.458,173.737,227.236,175.752,232.746Z" transform="translate(-101.575 -115.573)"/><path class="a" d="M193.711,194.388l-9.566,6.065,5.806-10.558a9.455,9.455,0,0,0-5.787-2.065h-.154a11.193,11.193,0,0,1-1.985-.148l-3.23,2.089,1.393-2.527a11.526,11.526,0,0,1-5.67-4.314l-5.806,3.7,3.655-6.718c-3.4-4.074-7.969-6.57-13-6.57-6.034,0-11.409,3.587-14.879,9.177a11.125,11.125,0,0,1-9.861,5.307H134.3c-6.663,0-12.062,7.55-12.062,16.869s5.4,16.869,12.062,16.869a9,9,0,0,0,4.2-1.054,17.393,17.393,0,0,1,14.6-.284,15.23,15.23,0,0,0,12.413.031,17.412,17.412,0,0,1,14.472.277,9.029,9.029,0,0,0,4.154,1.029c6.663,0,12.062-7.556,12.062-16.869A21.424,21.424,0,0,0,193.711,194.388Z" transform="translate(-101.537 -101.69)"/><path class="a" d="M836.62,137.641a12.475,12.475,0,0,1,7.236.789,10.657,10.657,0,0,0,8.684,0,12.179,12.179,0,0,1,10.219.2,6.354,6.354,0,0,0,2.94.733c4.142,0,7.593-4.173,8.308-9.677a7.969,7.969,0,0,1-2.071-2.231c-2.416-3.926-6.194-6.459-10.429-6.459s-7.938,2.465-10.367,6.355a8.013,8.013,0,0,1-6.891,3.8h-.1C840.867,131.151,838.007,133.8,836.62,137.641Z" transform="translate(-376.651 -81.609)"/><path class="a" d="M815.057,110.846l6.693,4.234-4.068-7.4a6.632,6.632,0,0,1,4.049-1.442h.111a8.011,8.011,0,0,0,1.387-.1l2.268,1.442-.974-1.769a8.142,8.142,0,0,0,4.006-2.977l4.062,2.576-2.57-4.666a11.845,11.845,0,0,1,9.1-4.6c4.222,0,8.013,2.515,10.416,6.428a7.772,7.772,0,0,0,6.885,3.7h.222c4.666,0,8.444,5.282,8.444,11.809s-3.778,11.8-8.444,11.8a6.373,6.373,0,0,1-2.94-.733,12.154,12.154,0,0,0-10.219-.2,10.694,10.694,0,0,1-8.684,0,12.185,12.185,0,0,0-10.133.2,6.361,6.361,0,0,1-2.909.715c-4.66,0-8.444-5.282-8.444-11.8a15.015,15.015,0,0,1,1.738-7.211Z" transform="translate(-367.704 -72.072)"/><ellipse class="a" cx="70.88" cy="12.327" rx="70.88" ry="12.327" transform="translate(307.717 453.146)"/><path class="f" d="M487.076,630.324,377.25,628.913l.327-2.817,5.307-46.466h96.452l7.094,46.466.542,3.525Z" transform="translate(-145.331 -223.224)"/><path class="e" d="M486.972,658.545H432.166l-54.916-.709.327-2.817H486.429Z" transform="translate(-145.33 -252.328)"/><rect class="f" width="145.734" height="3.519" transform="translate(213.62 403.401)"/><path class="c" d="M633.548,178.2a9.165,9.165,0,0,0-9.122-9.2H217.442a9.165,9.165,0,0,0-9.122,9.208V424.9H633.548Z" transform="translate(-134.562 -100.025)"/><path class="f" d="M208.32,580.19v28.894a9.122,9.122,0,0,0,9.122,9.122H624.426a9.122,9.122,0,0,0,9.122-9.122V580.19Z" transform="translate(-134.562 -258.521)"/><rect class="g" width="392.136" height="221.767" transform="translate(91.361 84.115)"/><path class="d" d="M550.8,612.242a9.492,9.492,0,0,0,7.476-3.63h0a9.878,9.878,0,0,0,.74-1.085l-5.22-.881,5.64.037a9.5,9.5,0,0,0,.179-7.526l-7.563,3.92,6.977-5.128a9.5,9.5,0,1,0-15.7,10.638h0a9.491,9.491,0,0,0,7.47,3.655Z" transform="translate(-262.926 -263.51)"/><path class="e" d="M483.48,584.77,527.3,628.777l-6.724-44.007Z" transform="translate(-186.168 -225.19)"/><rect class="h" width="392.562" height="12.956" transform="translate(91.052 84.286)"/><rect class="i" width="118.276" height="7.883" rx="0.58" transform="translate(226.758 86.726)"/><path class="c" d="M640.919,203.068h-.29l-.1-.092a2.4,2.4,0,0,0,.555-1.535,2.33,2.33,0,1,0-2.324,2.348,2.4,2.4,0,0,0,1.535-.561l.1.092v.29l1.806,1.806.536-.542Zm-2.163,0a1.615,1.615,0,1,1,1.15-.475A1.627,1.627,0,0,1,638.756,203.068Z" transform="translate(-299.528 -111.585)"/><circle class="j" cx="2.373" cy="2.373" r="2.373" transform="translate(95.737 88.575)"/><circle class="k" cx="2.373" cy="2.373" r="2.373" transform="translate(102.264 88.575)"/><circle class="l" cx="2.373" cy="2.373" r="2.373" transform="translate(108.797 88.575)"/><path class="d" d="M561.491,341.231c-5.381-7.15-13.177-11.661-21.856-11.661s-16.475,4.512-21.856,11.661a23.6,23.6,0,0,0,43.711,0Z" transform="translate(-253.89 -162.005)"/><path class="d" d="M502.853,349.973a5.653,5.653,0,0,1-1.085-.616,4.352,4.352,0,0,1-1.2-1.547,4.425,4.425,0,1,0-7.224,1.072,4.93,4.93,0,0,0,1.048.844,3.045,3.045,0,0,1,1.177,1.233,8.9,8.9,0,0,0,2.046,2.687,17.875,17.875,0,0,0,2.8,1.972,40.87,40.87,0,0,0-2.305,12.056,16.672,16.672,0,0,0-4.7.758,7.573,7.573,0,0,0-2.176,1.085,5.215,5.215,0,0,0-.536-.037,4.432,4.432,0,1,0,4.148,5.991,2.829,2.829,0,0,1,2.287-1.849,10.328,10.328,0,0,1,1.14-.074,39.693,39.693,0,0,0,5.27,16.438,12.93,12.93,0,0,0-4.9,6.693,1.847,1.847,0,0,0-.351.253,4.2,4.2,0,0,0-.518.481,4.425,4.425,0,1,0,7.427,1.448,2.9,2.9,0,0,1,.721-3.131,12.424,12.424,0,0,1,1.048-.9c5,5.837,10.946,9.578,18.373,10.022v-39.6C515.538,364.716,506.983,358.324,502.853,349.973Zm61.53,19.55a4.883,4.883,0,0,0-.536.037,8.356,8.356,0,0,0-2.176-1.085,16.555,16.555,0,0,0-4.7-.758,41.766,41.766,0,0,0-2.305-12.05,17.874,17.874,0,0,0,2.8-1.972,9.6,9.6,0,0,0,2.12-2.817,2.6,2.6,0,0,1,1.091-1.079h0a4.425,4.425,0,1,0-6.163-1.954,4.2,4.2,0,0,1-1.2,1.547,11.63,11.63,0,0,1-1.085.8,27.146,27.146,0,0,1-22.484,15.094V404.92c7.4-.444,13.381-4.2,18.373-10.022.388.308.715.586.992.844a3,3,0,0,1,.777,3.224,4.425,4.425,0,1,0,7.445-1.436,4.2,4.2,0,0,0-.518-.481c-.2-.16-.351-.253-.351-.253a12.752,12.752,0,0,0-4.931-6.693,39.692,39.692,0,0,0,5.27-16.438,9.805,9.805,0,0,1,1.091.074,2.958,2.958,0,0,1,2.373,1.849,4.425,4.425,0,0,0,8.536-1.344,4.493,4.493,0,0,0-4.432-4.721Z" transform="translate(-241.8 -166.612)"/><path class="m" d="M704.669,684.5a5.89,5.89,0,0,0-1.337-1.485c-2.693-2.546-3.945-6.281-4.61-9.942s-.857-7.4-1.923-10.977a36.2,36.2,0,0,0-2.169-5.344c-.616-1.319-1.393-3.9-2.521-4.826a1.664,1.664,0,0,0-.777-.376,9.154,9.154,0,0,0-2.231-2.971c-1.763-1.6-3.914-2.866-5.091-4.931a11.1,11.1,0,0,0-1.19-2.028c-.8-.875-2.052-1.233-2.786-2.157-.955-1.2-.74-2.909-.616-4.432s0-3.347-1.319-4.148c-.789-.487-1.806-.438-2.626-.869a3.8,3.8,0,0,1-1.695-3.556c.025-1.387.456-2.737.567-4.123.345-4.413-2.564-8.8-1.442-13.079a26.592,26.592,0,0,1,2.12-4.536,9.47,9.47,0,0,0,.616-1.565,22.025,22.025,0,0,0,6,1.448c-3.4-7.618-2.533-16.469-4.117-24.654l.2-.277a12.845,12.845,0,0,0,2.6-7.31c0-3.045-1.424-5.892-2.065-8.875-.549-2.533-.524-5.183-1.233-7.673a23.207,23.207,0,0,0-1.948-4.45q-1.153-2.139-2.422-4.21-1.183-3.92-2.373-7.84c-1.109-3.667-2.25-7.4-4.407-10.564-.789-1.159-1.029-3.513-2.244-4.216a5.429,5.429,0,0,0-3.2-.561c-1.713-.962-3.217-2.348-3.433-4.247a4.114,4.114,0,0,1,.123-1.233h.21c2.712-.247,4.086-2.638,5.5-4.734,2.28-3.39,1.411-7.975,0-11.834a8.013,8.013,0,0,0-1.849-3.26c-1.978-1.849-5.109-1.442-7.661-2.336-.857-.3-1.658-.746-2.533-.955a7.58,7.58,0,0,0-5.023.943,49.967,49.967,0,0,1-4.629,2.41c-1.627.616-3.636,1.1-4.037,2.774a3.082,3.082,0,0,0,.136,1.683,6.275,6.275,0,0,0,1.9,2.749,10.977,10.977,0,0,0,6.7,15.3c.468.752.906,1.516,1.307,2.3a7.581,7.581,0,0,1,1.072,4.487,13.83,13.83,0,0,0-1.233,1.51,29.047,29.047,0,0,0-3.7,8.24,87.309,87.309,0,0,0-2.977,11.261c-1.5,3.2-3.341,6.256-4.432,9.615a21.7,21.7,0,0,1-5.781-.777l-5.2-1.177a11.758,11.758,0,0,1-5.116-2.052c-.752-.616-1.337-1.436-2.1-2.046s-2.3-1.325-3.137-.82a2.468,2.468,0,0,0-.425.327c-.764-1.547-1.492-3.082-2.379-4.579-1.276-2.1-3.174-4.012-5.578-4.413a5.677,5.677,0,0,0-4.185.974c-1.405,1-2.287,3.082-1.233,4.487a8.192,8.192,0,0,0,.857.875,18,18,0,0,1,1.9,2.644,13.5,13.5,0,0,0,8.314,5.4l-.216.616c-.438,1.282-1.368,2.829-1.134,4.16l23.138,7.92a14.256,14.256,0,0,0,4.66,1.029,7.522,7.522,0,0,0,1.849-.247V572.2c.062,8.13-1.233,16.2-1.473,24.327a6.309,6.309,0,0,0,.937,4.24,4.747,4.747,0,0,0,4.53,1.233,10.559,10.559,0,0,0,1.146-.259,42.733,42.733,0,0,1,1.183,6.231l1.529,11.008a16.724,16.724,0,0,1,.24,3.415c-.179,2.583-1.541,4.894-2.527,7.279s-1.572,5.239-.277,7.47c.407.69.968,1.276,1.331,1.991a8.1,8.1,0,0,1,.616,3.5q.142,4.98.271,9.972a1.128,1.128,0,0,0-.777.154c-1.282,1-1.14,5.751-1.233,7.224-.1,2.465,0,4.98-.136,7.47a44.511,44.511,0,0,1-1.609,9.917,6.342,6.342,0,0,1-1.411,2.841,6,6,0,0,1-2.508,1.3,28.653,28.653,0,0,1-9.5,1.294,9.347,9.347,0,0,0-3.864.327,2.661,2.661,0,0,0-1.744,3.082c.376,1.035,1.516,1.529,2.545,1.917a40.382,40.382,0,0,1,6.78,3.119,18.329,18.329,0,0,0,2.62,1.485,13.51,13.51,0,0,0,2.7.666l10.928,1.886c2.237.382,4.931.616,6.354-1.233a5.6,5.6,0,0,0,.844-3.624c-.062-2.465-.555-4.974-.234-7.439a22.892,22.892,0,0,1,1.146-4.271q1.633-4.851,3.279-9.7a50.948,50.948,0,0,0,2.632-9.917c.154-1.233.142-2.638-.8-3.408a2.183,2.183,0,0,0-.814-.419c-.037-2.971-.425-5.948-.259-8.918.043-.74.117-1.479.179-2.225a10.853,10.853,0,0,1,1.522,1.8c1.054,1.652,1.442,3.834,3.051,4.931,1.368.937,3.4.888,4.358,2.243a6.321,6.321,0,0,1,.69,1.67,11.907,11.907,0,0,0,2.465,3.914,19.719,19.719,0,0,0,1.522,3.908q1.362,2.878,2.712,5.738a66.92,66.92,0,0,0,3.082,6.022,16.982,16.982,0,0,1,2.065,3.982c.869,3.045-.549,6.385-2.792,8.629s-5.2,3.532-8.117,4.734a2.286,2.286,0,0,0-.826.493,1.6,1.6,0,0,0-.376,1.072,3.48,3.48,0,0,0,2.515,3.082,9.407,9.407,0,0,0,4.21.154c7.877-.955,15.729-2.878,22.694-6.706a8.011,8.011,0,0,0,2.706-2.089,3.162,3.162,0,0,0,.45-3.211Z" transform="translate(-285.739 -226.218)"/><path class="n" d="M711.4,574.216q1.972,3.026,3.7,6.2a22.807,22.807,0,0,1,1.954,4.419c.715,2.465.7,5.1,1.233,7.612.616,2.958,2.059,5.781,2.059,8.814a12.673,12.673,0,0,1-2.6,7.248,34.4,34.4,0,0,1-5.436,5.609,115.637,115.637,0,0,1-7.692-37.726,13.235,13.235,0,0,1,.579-5.3c.4-1.048,2.324-3.92,3.563-2.792.45.413.567,2.274.844,2.9A22.263,22.263,0,0,0,711.4,574.216Z" transform="translate(-325.782 -253.857)"/><path class="e" d="M711.4,574.216q1.972,3.026,3.7,6.2a22.807,22.807,0,0,1,1.954,4.419c.715,2.465.7,5.1,1.233,7.612.616,2.958,2.059,5.781,2.059,8.814a12.673,12.673,0,0,1-2.6,7.248,34.4,34.4,0,0,1-5.436,5.609,115.637,115.637,0,0,1-7.692-37.726,13.235,13.235,0,0,1,.579-5.3c.4-1.048,2.324-3.92,3.563-2.792.45.413.567,2.274.844,2.9A22.263,22.263,0,0,0,711.4,574.216Z" transform="translate(-325.782 -253.857)"/><path class="f" d="M414.163,430.854c-4.875,4.869-5.461,7.014-8.388,7.982s-13.461,6.422-10.151,12.469l8.9,5.88.259.173,1.362,4.093-13.461,23.963s-22.188-10.145-24.364,4.863-.8,19.107-1.381,27.119.191,10.33-1.763,10.33-2.724-5.264-2.724-5.264-.123-.24-.339-.69c-2.9-6.034-22.607-50.331,8.955-80.778,0,0,14.62-.961,18.139-17.726,2.428-11.587,10.922-10.589,16.567-8.228a18.723,18.723,0,0,1,5.066,2.977,24.947,24.947,0,0,1,3.63,4.314C416.08,424.869,416.955,428.055,414.163,430.854Z" transform="translate(-190.598 -194.453)"/><path class="e" d="M409.369,484.542l1.362,4.093L397.27,512.6s-22.188-10.145-24.364,4.863-.8,19.107-1.381,27.119.191,10.33-1.763,10.33-2.724-5.264-2.724-5.264-.123-.24-.339-.69c-.98-7.495-5.948-51.335,12.062-49.006,0,0,14.614,6.829,16.949,4.1,1.849-2.157,10.059-14.564,13.4-19.655Z" transform="translate(-195.19 -221.683)"/><path class="e" d="M435.792,423.205l-8.9,10.114s-10.336,13.831-12.481,13.245a10,10,0,0,0-1.954-.228,3.8,3.8,0,0,1-2.465-6.4c3.526-3.7,10.022-10.718,10.447-12.278s4.561-8.395,6.632-11.741a18.724,18.724,0,0,1,5.066,2.977A24.952,24.952,0,0,1,435.792,423.205Z" transform="translate(-211.972 -195.257)"/><path class="o" d="M690.509,597.262c-1.51,3.02-9.245,14.348-12.629,19.3l-1.584,2.33s-.616,4.093-10.718-.98-247.45-105.222-247.45-105.222l-1.609-4.832,11.711-17.535,260.14,100.507S692.463,593.36,690.509,597.262Z" transform="translate(-215.197 -224.075)"/><path class="e" d="M677.881,627.475,676.3,629.8s-.616,4.093-10.718-.98S418.129,523.6,418.129,523.6l-1.609-4.832Z" transform="translate(-215.17 -235.001)"/><path class="p" d="M602.7,588.89c-2.41-.395-5.085-.2-6.958,1.362a5.726,5.726,0,0,0-2,3.8c-.16,1.707.832,3.735,2.546,3.864a8.11,8.11,0,0,0,1.233-.08,18.417,18.417,0,0,1,3.23.271,13.184,13.184,0,0,0,11.236-4.536c1.473-1.849-.468-2.65-2.207-3.02C607.408,590.043,605.084,589.272,602.7,588.89Z" transform="translate(-283.108 -261.758)"/><path class="c" d="M673.7,669.6l1.529,10.86a16.541,16.541,0,0,1,.234,3.4c-.179,2.558-1.541,4.851-2.521,7.217s-1.578,5.2-.277,7.4c.4.684.962,1.27,1.325,1.978a7.964,7.964,0,0,1,.616,3.47l.419,15.409a96.966,96.966,0,0,0,14.287-.08.8.8,0,0,0,.518-.16.838.838,0,0,0,.179-.561c.21-3.606-.419-7.217-.216-10.823.074-1.319.259-2.632.284-3.957.074-5.368-2.576-10.626-1.775-15.932a35.119,35.119,0,0,1,.986-3.963c2.533-9.245,2-18.959,1.436-28.506a.672.672,0,0,0-.123-.431.653.653,0,0,0-.333-.179,17.535,17.535,0,0,0-15.889,3.02c-.672.542-2.367,1.066-2.811,1.713-.616.9.191,1.8.549,2.755A35.068,35.068,0,0,1,673.7,669.6Z" transform="translate(-312.99 -287.12)"/><path class="e" d="M673.7,669.6l1.529,10.86a16.541,16.541,0,0,1,.234,3.4c-.179,2.558-1.541,4.851-2.521,7.217s-1.578,5.2-.277,7.4c.4.684.962,1.27,1.325,1.978a7.964,7.964,0,0,1,.616,3.47l.419,15.409a96.966,96.966,0,0,0,14.287-.08.8.8,0,0,0,.518-.16.838.838,0,0,0,.179-.561c.21-3.606-.419-7.217-.216-10.823.074-1.319.259-2.632.284-3.957.074-5.368-2.576-10.626-1.775-15.932a35.119,35.119,0,0,1,.986-3.963c2.533-9.245,2-18.959,1.436-28.506a.672.672,0,0,0-.123-.431.653.653,0,0,0-.333-.179,17.535,17.535,0,0,0-15.889,3.02c-.672.542-2.367,1.066-2.811,1.713-.616.9.191,1.8.549,2.755A35.068,35.068,0,0,1,673.7,669.6Z" transform="translate(-312.99 -287.12)"/><path class="c" d="M707.272,663.98a26.725,26.725,0,0,0-2.12,4.5c-1.122,4.247,1.781,8.629,1.436,12.98-.111,1.374-.536,2.712-.567,4.086a3.812,3.812,0,0,0,1.695,3.538c.82.419,1.849.376,2.619.857,1.3.8,1.448,2.6,1.319,4.117s-.345,3.211.616,4.395c.733.918,1.991,1.276,2.78,2.145a10.58,10.58,0,0,1,1.19,2.009c1.177,2.059,3.328,3.316,5.091,4.931s3.254,3.982,2.465,6.219c-.579,1.639-2.206,2.65-3.772,3.421a40.017,40.017,0,0,1-8.98,3.174,2.168,2.168,0,0,1-1.029.055,2.2,2.2,0,0,1-.9-.616c-1.818-1.781-3.7-3.649-4.536-6.046a6.2,6.2,0,0,0-.69-1.652c-.961-1.35-2.989-1.3-4.358-2.231-1.6-1.091-1.991-3.254-3.039-4.888s-2.583-2.607-3.7-4.043c-1.886-2.391-2.348-5.584-3.7-8.314-.573-1.159-1.307-2.243-1.763-3.452a18.85,18.85,0,0,1-.844-4.462c-.869-7.2-3.082-14.447-1.689-21.572.308-1.566.783-3.082.98-4.7.339-2.792-.2-5.652.216-8.438a2.324,2.324,0,0,1,.931-1.794,2.465,2.465,0,0,1,1.06-.216,72.274,72.274,0,0,1,10.959.247c1.849.179,3.92.555,5.029,2.065.943,1.294.894,3.026,1.2,4.6.376,1.935,1.356,2.989,2.385,4.505S708.031,662.415,707.272,663.98Z" transform="translate(-318.024 -284.777)"/><path class="n" d="M676.01,753.666a4.325,4.325,0,0,1,2.8.555c.937.771.949,2.182.8,3.384a50.79,50.79,0,0,1-2.638,9.861l-3.279,9.621a22.588,22.588,0,0,0-1.146,4.24c-.321,2.465.173,4.931.234,7.4a5.8,5.8,0,0,1-.851,3.593c-1.393,1.794-4.111,1.584-6.348,1.233L654.672,791.7a12.983,12.983,0,0,1-2.7-.659,18.868,18.868,0,0,1-2.619-1.473,40.309,40.309,0,0,0-6.78-3.082c-1.023-.382-2.17-.869-2.539-1.9a2.661,2.661,0,0,1,1.744-3.082,9.447,9.447,0,0,1,3.865-.333,28.972,28.972,0,0,0,9.492-1.282,6,6,0,0,0,2.5-1.294,6.164,6.164,0,0,0,1.442-2.9,43.247,43.247,0,0,0,1.652-9.862c.129-2.465.043-4.931.142-7.4.062-1.461-.08-6.163,1.2-7.168.98-.752,5.011,1.325,6.336,1.627A30.82,30.82,0,0,0,676.01,753.666Z" transform="translate(-300.919 -324.379)"/><path class="n" d="M741.432,759.853c1.066,3.532,1.233,7.267,1.923,10.9s1.911,7.335,4.6,9.862a6.081,6.081,0,0,1,1.337,1.479,3.119,3.119,0,0,1-.462,3.223,8.091,8.091,0,0,1-2.706,2.077c-6.958,3.8-14.792,5.714-22.688,6.663a9.561,9.561,0,0,1-4.2-.154,3.467,3.467,0,0,1-2.509-3.082,1.572,1.572,0,0,1,.37-1.066,2.3,2.3,0,0,1,.832-.487c2.909-1.2,5.861-2.5,8.111-4.7s3.661-5.547,2.792-8.543a16.9,16.9,0,0,0-2.077-3.951,66.788,66.788,0,0,1-3.082-5.972l-2.712-5.689a14.919,14.919,0,0,1-1.732-5.214,25.023,25.023,0,0,0,10-1.6,15.721,15.721,0,0,0,4.111-2.465c1.048-.875,2-2.509,3.414-1.368,1.134.912,1.849,3.482,2.515,4.783A35.119,35.119,0,0,1,741.432,759.853Z" transform="translate(-330.481 -323.712)"/><path class="p" d="M684.549,534.455c.271,2.367,2.564,3.926,4.752,4.863l-13.849,4.419c.894-1.714.173-3.809-.715-5.547a31.386,31.386,0,0,0-2.465-3.951c-.136-.191-.29-.432-.191-.653a.69.69,0,0,1,.388-.3,34.824,34.824,0,0,1,8.894-3.045c.9-.129,2.6-.487,3.273.425S684.42,533.364,684.549,534.455Z" transform="translate(-313.258 -239.183)"/><path class="e" d="M684.549,534.455c.271,2.367,2.564,3.926,4.752,4.863l-13.849,4.419c.894-1.714.173-3.809-.715-5.547a31.386,31.386,0,0,0-2.465-3.951c-.136-.191-.29-.432-.191-.653a.69.69,0,0,1,.388-.3,34.824,34.824,0,0,1,8.894-3.045c.9-.129,2.6-.487,3.273.425S684.42,533.364,684.549,534.455Z" transform="translate(-313.258 -239.183)"/><circle class="p" cx="10.86" cy="10.86" r="10.86" transform="translate(352.39 275.491)"/><path class="q" d="M663.422,620.218a4.8,4.8,0,0,0,4.53,1.233c3.791-.616,6.891-3.408,10.6-4.413,4.549-1.233,9.362.351,13.658,2.293s8.567,4.314,13.264,4.647c-4.247-9.467-1.818-20.857-5.88-30.4-.992-2.336-2.379-4.586-2.6-7.113-.277-3.137,1.288-6.163,1.529-9.282.222-2.78-.616-5.547-1.418-8.2l-2.971-9.763c-1.109-3.643-2.25-7.347-4.4-10.478-.8-1.153-1.035-3.488-2.243-4.185-2.638-1.522-6.638.394-9.5.5s-5.467,2.139-7.137,4.438a28.531,28.531,0,0,0-3.7,8.179,77.751,77.751,0,0,0-3.285,13.085c-.093.666-.173,1.331-.234,2-.616,6.33.284,12.7.333,19.057v.043c.062,8.068-1.233,16.087-1.473,24.148C662.472,617.482,662.509,619.09,663.422,620.218Z" transform="translate(-309.612 -244.646)"/><path class="e" d="M664.581,595.8a13.906,13.906,0,0,0,5.7-3.415,23.836,23.836,0,0,0,3.784-4.314,30.733,30.733,0,0,0,3.26-6.823,79.731,79.731,0,0,0,4.314-19.889c.16-1.849.21-3.834-.894-5.3a4.463,4.463,0,0,0-5.393-1.307,8.936,8.936,0,0,0-3.273,3.519,45.45,45.45,0,0,0-4.592,8.518c-.493,1.344-.857,2.724-1.338,4.074a37.592,37.592,0,0,1-1.689,3.9c-.092.666-.173,1.331-.234,2C663.656,583.1,664.531,589.441,664.581,595.8Z" transform="translate(-310.173 -248.573)"/><path class="q" d="M662.6,554.122c1.1,1.467,1.054,3.47.9,5.294a79.62,79.62,0,0,1-4.314,19.889,30.467,30.467,0,0,1-3.26,6.878,24.078,24.078,0,0,1-3.784,4.314c-2.1,1.911-4.647,3.618-7.489,3.643a14.276,14.276,0,0,1-4.66-1.017l-23.144-7.877c-.234-1.319.7-2.86,1.134-4.13l1.233-3.655a4.648,4.648,0,0,1,1.676-2.65c.918-.549,2.373.2,3.137.814s1.344,1.411,2.1,2.034a11.839,11.839,0,0,0,5.116,2.034l5.2,1.165a21.7,21.7,0,0,0,5.781.77c1.448-4.425,4.2-8.321,5.763-12.709.481-1.344.844-2.73,1.344-4.074a45.283,45.283,0,0,1,4.592-8.518,8.932,8.932,0,0,1,3.273-3.519A4.456,4.456,0,0,1,662.6,554.122Z" transform="translate(-292.026 -247.823)"/><path class="n" d="M675.334,515.579a5.479,5.479,0,0,0-.653-2.034,1.707,1.707,0,0,0-1.849-.814c-1.085.339-1.448,2.015-2.583,2.071-.764.037-1.313-.74-1.553-1.467a4.472,4.472,0,0,0-.943-2.071,3.514,3.514,0,0,0-1.344-.616c-2.632-.832-5.35-2.367-6.225-4.986a2.983,2.983,0,0,1-.142-1.67c.4-1.658,2.465-2.157,4.037-2.755s3.082-1.621,4.623-2.4a7.6,7.6,0,0,1,5.023-.931,26.187,26.187,0,0,1,2.533.943c2.552.888,5.677.475,7.655,2.317a7.908,7.908,0,0,1,1.849,3.23c1.381,3.834,2.256,8.382-.031,11.747-1.411,2.077-2.78,4.45-5.492,4.7C677.085,521.114,675.834,518.254,675.334,515.579Z" transform="translate(-308.625 -226.766)"/><g class="b" transform="translate(351.388 275.182)"><path d="M670.53,514.627a4.525,4.525,0,0,0-.937-2.071,3.514,3.514,0,0,0-1.344-.616c-2.638-.832-5.35-2.367-6.231-4.986a3.039,3.039,0,0,1-.136-1.67,2.089,2.089,0,0,1,.327-.733,3.229,3.229,0,0,0-2.126,2.04,2.982,2.982,0,0,0,.142,1.67c.875,2.62,3.593,4.154,6.225,4.986a3.513,3.513,0,0,1,1.344.616,4.506,4.506,0,0,1,.943,2.071c.247.733.789,1.5,1.553,1.467s1.134-.733,1.621-1.319A1.962,1.962,0,0,1,670.53,514.627Z" transform="translate(-660.023 -504.55)"/><path d="M690.338,527.994c-3.168.29-4.419-2.595-4.931-5.251a5.36,5.36,0,0,0-.616-2.034,1.713,1.713,0,0,0-1.849-.814,3.279,3.279,0,0,0-1.362,1.233,1.849,1.849,0,0,1,1.393.863,5.478,5.478,0,0,1,.653,2.034c.5,2.656,1.75,5.547,4.931,5.251a5.085,5.085,0,0,0,3.254-1.689A4.6,4.6,0,0,1,690.338,527.994Z" transform="translate(-668.294 -510.422)"/></g><ellipse class="d" cx="19.902" cy="3.827" rx="19.902" ry="3.827" transform="translate(480.166 399.333)"/><ellipse class="c" cx="2.317" cy="3.032" rx="2.317" ry="3.032" transform="translate(497.442 398.501)"/><ellipse class="c" cx="2.317" cy="3.032" rx="2.317" ry="3.032" transform="translate(497.442 394.79)"/><ellipse class="c" cx="2.317" cy="3.032" rx="2.317" ry="3.032" transform="translate(497.442 391.086)"/><ellipse class="c" cx="2.317" cy="3.032" rx="2.317" ry="3.032" transform="translate(497.442 387.376)"/><ellipse class="c" cx="2.317" cy="3.032" rx="2.317" ry="3.032" transform="translate(497.442 383.866)"/><ellipse class="c" cx="2.317" cy="3.032" rx="2.317" ry="3.032" transform="translate(497.442 380.17)"/><ellipse class="c" cx="2.317" cy="3.032" rx="2.317" ry="3.032" transform="translate(497.442 376.467)"/><path class="d" d="M902.958,621.828a11.216,11.216,0,0,0,.863-1.27l-6.089-1,6.589.043a11.162,11.162,0,0,0,.21-8.8l-8.838,4.586,8.148-5.991a11.094,11.094,0,1,0-18.318,12.425,11.052,11.052,0,0,0-1.27,2.022l7.908,4.111-8.432-2.829a11.1,11.1,0,0,0,1.794,10.4,11.094,11.094,0,1,0,17.449,0,11.094,11.094,0,0,0,0-13.726Z" transform="translate(-394.538 -267.665)"/><path class="e" d="M883.12,644a11.038,11.038,0,0,0,2.391,6.866,11.094,11.094,0,1,0,17.449,0C904.433,648.972,883.12,642.753,883.12,644Z" transform="translate(-394.528 -283.006)"/><ellipse class="d" cx="28.654" cy="5.51" rx="28.654" ry="5.51" transform="translate(62.824 472.283)"/><ellipse class="c" cx="3.334" cy="4.37" rx="3.334" ry="4.37" transform="translate(87.663 471.081)"/><ellipse class="c" cx="3.334" cy="4.37" rx="3.334" ry="4.37" transform="translate(87.663 465.744)"/><ellipse class="c" cx="3.334" cy="4.37" rx="3.334" ry="4.37" transform="translate(87.663 460.406)"/><ellipse class="c" cx="3.334" cy="4.37" rx="3.334" ry="4.37" transform="translate(87.663 455.069)"/><ellipse class="c" cx="3.334" cy="4.37" rx="3.334" ry="4.37" transform="translate(87.663 449.731)"/><ellipse class="c" cx="3.334" cy="4.37" rx="3.334" ry="4.37" transform="translate(87.663 444.388)"/><ellipse class="c" cx="3.334" cy="4.37" rx="3.334" ry="4.37" transform="translate(87.663 439.05)"/><path class="d" d="M238.758,702.812a16.781,16.781,0,0,0,1.233-1.849l-8.764-1.442,9.479.074a16.025,16.025,0,0,0,.3-12.666l-12.709,6.62,11.711-8.629a15.982,15.982,0,1,0-26.4,17.874,15.917,15.917,0,0,0-1.849,2.909l11.384,5.917-12.136-4.074a15.982,15.982,0,0,0,2.626,15.033,15.982,15.982,0,1,0,25.122,0,15.976,15.976,0,0,0,0-19.76Z" transform="translate(-135.273 -295.917)"/><path class="e" d="M210.239,734.85a15.931,15.931,0,0,0,3.419,9.859,15.982,15.982,0,1,0,25.124,0C240.908,741.987,210.239,733.031,210.239,734.85Z" transform="translate(-135.298 -318.05)"/></svg>