<svg width="631" height="600" xmlns="http://www.w3.org/2000/svg" opacity=".25"><g id="bg-brand" fill="#D7D8DA"><path d="M309.545 43.491L156.918.274c-.6-.17-1.237-.17-1.837 0L2.454 43.491a3.371 3.371 0 0 0-.294 6.391l73.705 28.423-2.578 20.448c-.626 4.921 1.817 9.73 6.228 12.272 14.028 8.7 58.305 30.025 71.598 33.208a21.45 21.45 0 0 0 11.572 0c13.286-3.179 57.567-24.504 71.6-33.208 4.414-2.541 6.857-7.352 6.23-12.27l-2.666-21.11 16.396-6.323v64.104c-5.324 1.48-9.248 6.358-9.248 12.147 0 4.102 1.977 7.743 5.018 10.05a258.806 258.806 0 0 1-2.511 10.151 3.338 3.338 0 0 0-.339 1.235 262.399 262.399 0 0 1-6 19.014 3.373 3.373 0 0 0 2.803 4.489 124.483 124.483 0 0 0 27.297 0 3.372 3.372 0 0 0 2.804-4.489 261.821 261.821 0 0 1-8.851-30.4c3.041-2.307 5.018-5.947 5.018-10.05 0-5.788-3.924-10.667-9.247-12.147V68.722l48.853-18.84a3.372 3.372 0 0 0-.297-6.39zm-60.604 142.707a269.186 269.186 0 0 0 4.212-13.557h8.922a268.97 268.97 0 0 0 4.212 13.557c-5.77.426-11.576.426-17.346 0zm11.327-20.3h-5.307a265.82 265.82 0 0 0 1.399-5.77 12.637 12.637 0 0 0 2.508 0 265.85 265.85 0 0 0 1.4 5.77zm3.222-18.326a5.882 5.882 0 0 1-5.875 5.876 5.883 5.883 0 0 1-5.876-5.876 5.882 5.882 0 0 1 5.876-5.875 5.881 5.881 0 0 1 5.875 5.875zm-31.797-64.833l-29.08 11.214a3.371 3.371 0 1 0 2.426 6.293l27.525-10.615.466 3.69-14.066 5.424a3.371 3.371 0 1 0 2.426 6.292l12.464-4.806c.016 2-1.094 3.904-2.965 4.969a3.768 3.768 0 0 0-.112.066c-14.632 9.09-58.06 29.669-69.717 32.423a3.516 3.516 0 0 0-.145.037 14.69 14.69 0 0 1-8.034 0 3.515 3.515 0 0 0-.145-.037c-11.663-2.758-55.088-23.335-69.714-32.423a3.022 3.022 0 0 0-.111-.066c-1.647-.938-2.698-2.525-2.92-4.258l10.618 4.095a3.373 3.373 0 0 0 2.426-6.292l-12.35-4.763.466-3.69 25.81 9.954a3.372 3.372 0 0 0 2.426-6.292L82.02 83.4l.327-2.596 72.44 27.935a3.375 3.375 0 0 0 2.426 0l74.154-28.596.325 2.596zm23.36-18.958l-98.37-20.345a3.372 3.372 0 0 0-1.366 6.604l88.114 18.223L156 101.979 14.015 47.226 156 7.023l141.984 40.203-42.93 16.555z" id="Shape"/><g id="bg-brand-copy" transform="translate(319 406)"><path d="M309.545 43.491L156.918.274c-.6-.17-1.237-.17-1.837 0L2.454 43.491a3.371 3.371 0 0 0-.294 6.391l73.705 28.423-2.578 20.448c-.626 4.921 1.817 9.73 6.228 12.272 14.028 8.7 58.305 30.025 71.598 33.208a21.45 21.45 0 0 0 11.572 0c13.286-3.179 57.567-24.504 71.6-33.208 4.414-2.541 6.857-7.352 6.23-12.27l-2.666-21.11 16.396-6.323v64.104c-5.324 1.48-9.248 6.358-9.248 12.147 0 4.102 1.977 7.743 5.018 10.05a258.806 258.806 0 0 1-2.511 10.151 3.338 3.338 0 0 0-.339 1.235 262.399 262.399 0 0 1-6 19.014 3.373 3.373 0 0 0 2.803 4.489 124.483 124.483 0 0 0 27.297 0 3.372 3.372 0 0 0 2.804-4.489 261.821 261.821 0 0 1-8.851-30.4c3.041-2.307 5.018-5.947 5.018-10.05 0-5.788-3.924-10.667-9.247-12.147V68.722l48.853-18.84a3.372 3.372 0 0 0-.297-6.39zm-60.604 142.707a269.186 269.186 0 0 0 4.212-13.557h8.922a268.97 268.97 0 0 0 4.212 13.557c-5.77.426-11.576.426-17.346 0zm11.327-20.3h-5.307a265.82 265.82 0 0 0 1.399-5.77 12.637 12.637 0 0 0 2.508 0 265.85 265.85 0 0 0 1.4 5.77zm3.222-18.326a5.882 5.882 0 0 1-5.875 5.876 5.883 5.883 0 0 1-5.876-5.876 5.882 5.882 0 0 1 5.876-5.875 5.881 5.881 0 0 1 5.875 5.875zm-31.797-64.833l-29.08 11.214a3.371 3.371 0 1 0 2.426 6.293l27.525-10.615.466 3.69-14.066 5.424a3.371 3.371 0 1 0 2.426 6.292l12.464-4.806c.016 2-1.094 3.904-2.965 4.969a3.768 3.768 0 0 0-.112.066c-14.632 9.09-58.06 29.669-69.717 32.423a3.516 3.516 0 0 0-.145.037 14.69 14.69 0 0 1-8.034 0 3.515 3.515 0 0 0-.145-.037c-11.663-2.758-55.088-23.335-69.714-32.423a3.022 3.022 0 0 0-.111-.066c-1.647-.938-2.698-2.525-2.92-4.258l10.618 4.095a3.373 3.373 0 0 0 2.426-6.292l-12.35-4.763.466-3.69 25.81 9.954a3.372 3.372 0 0 0 2.426-6.292L82.02 83.4l.327-2.596 72.44 27.935a3.375 3.375 0 0 0 2.426 0l74.154-28.596.325 2.596zm23.36-18.958l-98.37-20.345a3.372 3.372 0 0 0-1.366 6.604l88.114 18.223L156 101.979 14.015 47.226 156 7.023l141.984 40.203-42.93 16.555z" id="Shape"/></g></g></svg>