<svg xmlns="http://www.w3.org/2000/svg" width="120" height="120" viewBox="0 0 120 120"><defs><style>.a{fill:#ebf3fa;}.b{fill:none;stroke:#1868b9;stroke-linecap:round;stroke-linejoin:round;stroke-width:2px;}</style></defs><g transform="translate(-874 -1747)"><circle class="a" cx="60" cy="60" r="60" transform="translate(874 1747)"/><g transform="translate(902.973 1772.573)"><g transform="translate(0 0)"><path class="b" d="M61.187,22.945H11.473A11.473,11.473,0,1,1,11.473,0H61.187V5.469H11.473a6,6,0,1,0,0,12.008H61.187Z" transform="translate(0 40.792)"/><rect class="b" width="0.127" height="12.021" transform="translate(56.75 46.261)"/><rect class="b" width="7.648" height="0.127" transform="translate(13.116 52.199)"/><rect class="b" width="2.549" height="0.127" transform="translate(27.139 52.199)"/><rect class="b" width="15.297" height="0.127" transform="translate(36.062 52.199)"/><path class="b" d="M20.4,0a20.4,20.4,0,1,0,20.4,20.4A20.4,20.4,0,0,0,20.4,0ZM39.185,13.117ZM1.606,27.674Z" transform="translate(9.936 0)"/><path class="b" d="M24.716,15.173c-.307.306-.629.626-.89.888a1.882,1.882,0,0,0-.486.843c-.119.446-.215.9-.376,1.328l-1.369,3.689a15.735,15.735,0,0,1-3.358.369V20.135A5.9,5.9,0,0,0,16.455,16.1a2.52,2.52,0,0,1-.738-1.782V11.8a2.511,2.511,0,0,0-1.3-2.2C13.289,8.97,11.68,8.1,10.578,7.54A11.352,11.352,0,0,1,8.086,5.828l-.063-.057A8.985,8.985,0,0,1,6.6,4.138C5.862,3.054,4.659,1.27,3.877.111A15.833,15.833,0,0,1,12-7.911l1.89.946a1.26,1.26,0,0,0,1.824-1.127v-.89a15.744,15.744,0,0,1,1.92-.191l2.228,2.228a1.26,1.26,0,0,1,0,1.782l-.369.368-.814.814a.63.63,0,0,0,0,.891l.369.369a.63.63,0,0,1,0,.891l-.63.63a.628.628,0,0,1-.445.184h-.708a.629.629,0,0,0-.439.179l-.781.76a.63.63,0,0,0-.124.733l1.227,2.456a.63.63,0,0,1-.563.912h-.444a.629.629,0,0,1-.413-.154L15,3.235a1.263,1.263,0,0,0-1.224-.244l-2.454.818a.942.942,0,0,0-.643.893h0a.941.941,0,0,0,.52.842l.872.436a5.332,5.332,0,0,0,2.386.564c.828,0,1.779,2.149,2.52,2.52h5.256a2.521,2.521,0,0,1,1.782.738l1.078,1.078a2.394,2.394,0,0,1,.7,1.7h0A3.653,3.653,0,0,1,24.716,15.173Zm6.827-7.192A1.89,1.89,0,0,1,30.429,7.2L29.013,5.072a1.893,1.893,0,0,1,0-2.1L30.555.663a1.887,1.887,0,0,1,.728-.642L32.3-.489a15.623,15.623,0,0,1,1.679,7.033,15.686,15.686,0,0,1-.143,2.011Z" transform="translate(11.226 13.949)"/></g></g></g></svg>