<svg xmlns="http://www.w3.org/2000/svg" width="105.343" height="94.564" viewBox="0 0 105.343 94.564"><defs><style>.a{fill:#3f3d56;}.b{fill:#dedfdf;}.c{fill:teal;}.d{fill:#fff;}</style></defs><path class="a" d="M424.31,230.325a.184.184,0,0,1-.106-.033l-51.111-35.6a.927.927,0,0,0-1.059,0l-50.743,35.593a.185.185,0,1,1-.212-.3L371.821,194.4a1.3,1.3,0,0,1,1.482,0l51.112,35.6a.185.185,0,0,1-.106.337Z" transform="translate(-319.891 -194.162)"/><path class="b" d="M23.264,44.206,71.687,8.319l48.79,38.441L74.182,74.2,49.048,68.475Z" transform="translate(-18.965 -6.781)"/><path class="c" d="M378.808,640.844H354.885a1.118,1.118,0,1,1,0-2.235h23.922a1.118,1.118,0,1,1,0,2.235Z" transform="translate(-346.602 -556.47)"/><path class="c" d="M363.468,614.844h-8.583a1.118,1.118,0,1,1,0-2.235h8.583a1.118,1.118,0,1,1,0,2.235Z" transform="translate(-346.602 -535.275)"/><path class="d" d="M469.894,272.913a1.4,1.4,0,0,1-.53-.1L439.5,260.418V221.631a1.3,1.3,0,0,1,1.294-1.294h57.292a1.3,1.3,0,0,1,1.294,1.294v38.814l-.056.024L470.441,272.8A1.406,1.406,0,0,1,469.894,272.913Z" transform="translate(-416.491 -215.5)"/><path class="a" d="M469.487,272.6a1.492,1.492,0,0,1-.565-.111L439,260.072V221.223a1.388,1.388,0,0,1,1.386-1.386h57.292a1.388,1.388,0,0,1,1.386,1.386V260.1l-28.995,12.382A1.5,1.5,0,0,1,469.487,272.6ZM439.37,259.825l29.693,12.32a1.131,1.131,0,0,0,.863-.005l28.77-12.286V221.223a1.018,1.018,0,0,0-1.016-1.017H440.386a1.018,1.018,0,0,0-1.016,1.017Z" transform="translate(-416.083 -215.092)"/><path class="a" d="M419.049,387.837h-.037L397.8,396.9l-29.029,12.4a.937.937,0,0,1-.717,0L338.1,396.871l-21.738-9.019-.033-.015h-.037A1.3,1.3,0,0,0,315,389.131v56.183a1.3,1.3,0,0,0,1.294,1.294H419.049a1.3,1.3,0,0,0,1.294-1.294V389.131A1.3,1.3,0,0,0,419.049,387.837Zm.924,57.477a.924.924,0,0,1-.924.924H316.294a.924.924,0,0,1-.924-.924V389.131a.926.926,0,0,1,.889-.924L338.1,397.27l29.807,12.368a1.316,1.316,0,0,0,1.005-.006L397.8,397.3l21.29-9.091a.927.927,0,0,1,.887.924Z" transform="translate(-315 -352.043)"/><g transform="translate(-461.9 -222.5)"><path class="c" d="M9322.046-5240.855l-.052-15.779h0v-.461h0l.052-15.781a5.115,5.115,0,0,1,5.16-5.073l0,.185v-.185a5.121,5.121,0,0,1,5.073,5.157l-.086,15.928.086,15.925a5.123,5.123,0,0,1-5.073,5.16v-.185l0,.185h-.044A5.118,5.118,0,0,1,9322.046-5240.855Z" transform="translate(-9797.898 -2627.57) rotate(45)"/><path class="c" d="M9322.046-5240.855l-.052-15.779h0v-.461h0l.052-15.781a5.115,5.115,0,0,1,5.16-5.073l0,.185v-.185a5.121,5.121,0,0,1,5.073,5.157l-.086,15.928.086,15.925a5.123,5.123,0,0,1-5.073,5.16v-.185l0,.185h-.044A5.118,5.118,0,0,1,9322.046-5240.855Z" transform="translate(-2363.569 10562.993) rotate(-45)"/></g></svg>