<svg xmlns="http://www.w3.org/2000/svg" width="255.407" height="182.666" viewBox="0 0 255.407 182.666"><defs><style>.a{fill:#ffb8b8;}.b{fill:#dedfdf;}.c{fill:#fff;}.d{fill:teal;}.e{fill:#3f3d56;}</style></defs><path class="a" d="M833.407,468.489,830,473.142a3.294,3.294,0,0,1-4.153.986h0a3.294,3.294,0,0,1-.319-5.681l4.351-2.876,12.442-12.442,1.382-4.455h9.37l-4.915,10.6Z" transform="translate(-625.191 -359.082)"/><path class="b" d="M556.923,504.065a1.636,1.636,0,0,0-1.634,1.634v77.448a1.636,1.636,0,0,0,1.634,1.634H661.494a1.636,1.636,0,0,0,1.634-1.634V505.7a1.636,1.636,0,0,0-1.634-1.634Z" transform="translate(-444.957 -402.597)"/><path class="c" d="M568.162,588.467h98.755V516.591H568.162Z" transform="translate(-452.978 -410.703)"/><path class="b" d="M695.607,574.912H636.132a2.124,2.124,0,0,0,0,4.248h59.475a2.124,2.124,0,1,0,0-4.248Z" transform="translate(-495.299 -443.712)"/><path class="b" d="M636.132,611.956a2.124,2.124,0,1,0,0,4.248h59.475a2.124,2.124,0,1,0,0-4.248Z" transform="translate(-495.299 -468.876)"/><path class="b" d="M636.132,649a2.124,2.124,0,1,0,0,4.248h59.475a2.124,2.124,0,1,0,0-4.248Z" transform="translate(-495.299 -496.391)"/><circle class="d" cx="2.614" cy="2.614" r="2.614" transform="translate(131.861 130.837)"/><circle class="b" cx="2.614" cy="2.614" r="2.614" transform="translate(131.861 142.712)"/><circle class="b" cx="2.614" cy="2.614" r="2.614" transform="translate(131.861 152.283)"/><path class="d" d="M671.916,577.035h0a2.124,2.124,0,0,1-2.124,2.124H636.209a2.176,2.176,0,0,1-2.182-1.842,2.128,2.128,0,0,1,2.106-2.406h33.659a2.124,2.124,0,0,1,2.124,2.124Z" transform="translate(-493.372 -443.711)"/><circle class="b" cx="8.496" cy="8.496" r="8.496" transform="translate(157.891 84.128)"/><circle class="c" cx="4.248" cy="4.248" r="4.248" transform="translate(162.266 88.383)"/><path class="a" d="M941.321,637.489l-4.3,2-6.536-12.419c-4.035-6.181-6.668-13.588-8.518-21.681l6.759.461c4.024,5.743,7.005,11.5,7.966,17.288Z" transform="translate(-688.56 -468.166)"/><path class="e" d="M739.643,415.647h-8.6v-14.9l6.912-1.229Z" transform="translate(-498.094 -272.217)"/><path class="d" d="M890.387,419.592a42.382,42.382,0,0,0-12.718-.479l2.486-12.4a5.8,5.8,0,0,1,4.939-4.613h0a5.8,5.8,0,0,1,6.517,6.39Z" transform="translate(-659.893 -326.842)"/><circle class="a" cx="7.219" cy="7.219" r="7.219" transform="translate(217.202 55.159)"/><path class="a" d="M905.948,368.01l-9.523,6.759-2.535-12.058,7.143-2.842C901.322,363.031,903.029,365.721,905.948,368.01Z" transform="translate(-670.39 -297.993)"/><path class="e" d="M889.1,337.478c-.534-1.1-1.2-.337-1.8,1.005l-.852-3.407-1.022-.341-.682-2.726c-3.126-.746-5.634.815-8.858,2.55l-1.229,2.918h0A7.408,7.408,0,0,1,879.648,327a7.779,7.779,0,0,1,1.63-.189h0a7.738,7.738,0,0,1,7.814,7.979Z" transform="translate(-657.455 -275.383)"/><path class="e" d="M948.444,696.8l-14.7,4.794a2.235,2.235,0,0,1-2.5-1.261h0a2.236,2.236,0,0,1,.775-2.77c2.9-1.984,5.208-4.1,6.267-6.5.979-3.977,2.086-3.987,3.289-1.019,3.321,1.964,2.784.391,4.853-2.053l3.189,6.035a1.943,1.943,0,0,1-1.174,2.773Z" transform="translate(-694.435 -521.588)"/><path class="a" d="M872.9,650.521l-4.915-2.15,1.762-12.593,3.461-24.733,9.37,1.229a57.209,57.209,0,0,1-6.243,24.673Z" transform="translate(-653.628 -471.828)"/><path class="e" d="M897.33,563.333l-16.282-3.226,4.3-22.58-.768-6.144h21.351C905.153,539.338,901.438,551.082,897.33,563.333Z" transform="translate(-662.079 -416.074)"/><path class="d" d="M908.806,433.245c-7.881-1.995-15.634-2.277-23.194,0-1.414-14.573-1.8-28.47-.566-41.293a11.918,11.918,0,0,1,4.179-7.982l8.982-7.558,6.67,3.335a5.284,5.284,0,0,1,2.92,4.617C909.253,403.75,910.369,422.2,908.806,433.245Z" transform="translate(-664.186 -311.349)"/><path class="a" d="M952.846,464.874l1.343,4.7a3.592,3.592,0,0,1-2.894,4.535h0a3.592,3.592,0,0,1-4.122-4.015l.6-4.6-3.226-23.348-4.3-9.216,8.6-3.84,3.533,11.52Z" transform="translate(-700.392 -346.875)"/><path class="e" d="M847.116,711.887l-15.053-3.515A2.235,2.235,0,0,1,830.576,706h0a2.236,2.236,0,0,1,2.1-1.968c3.507-.2,6.579-.809,8.728-2.312,2.9-2.894,3.85-2.329,3.341.832,1.822,3.4,2.179,1.777,5.214.758l-.4,6.814a1.943,1.943,0,0,1-2.441,1.764Z" transform="translate(-629.407 -529.287)"/><path class="d" d="M941.082,405.687c-3.637.3-7.6,2.407-11.674,5.069L926.286,398.5a5.8,5.8,0,0,1,2.458-6.3h0a5.8,5.8,0,0,1,8.64,2.942Z" transform="translate(-691.239 -319.574)"/><path class="b" d="M191.239,240.618a1.621,1.621,0,0,0-1.619,1.619V318.99a1.621,1.621,0,0,0,1.619,1.619H294.871a1.621,1.621,0,0,0,1.619-1.619V242.237a1.621,1.621,0,0,0-1.619-1.619Z" transform="translate(-189.62 -214.224)"/><path class="c" d="M201.12,323.994h98.755V252.118H201.12Z" transform="translate(-197.062 -225.899)"/><path class="b" d="M224.766,348.243a2.105,2.105,0,1,0,0,4.21H304.11a2.105,2.105,0,1,0,0-4.21Z" transform="translate(-211.002 -289.737)"/><path class="b" d="M224.766,384.955a2.105,2.105,0,1,0,0,4.21H304.11a2.105,2.105,0,0,0,0-4.21Z" transform="translate(-211.002 -314.674)"/><path class="d" d="M325.264,423.5a2.105,2.105,0,1,0,0,4.21h8.42a2.105,2.105,0,0,0,0-4.21Z" transform="translate(-280.439 -340.859)"/><path class="d" d="M307.892,272.493a.648.648,0,0,0-.648.648v16.442a.648.648,0,0,0,.648.648h22.566a.648.648,0,0,0,.648-.648V273.141a.648.648,0,0,0-.648-.648Z" transform="translate(-265.74 -238.535)"/><circle class="c" cx="3.562" cy="3.562" r="3.562" transform="translate(45.309 37.326)"/><path class="c" d="M336.193,311.638a3.535,3.535,0,0,1-.389,1.619H324.923a3.562,3.562,0,0,1,3.174-5.182h4.534a3.56,3.56,0,0,1,3.562,3.562Z" transform="translate(-281.357 -262.474)"/><circle class="c" cx="3.562" cy="3.562" r="3.562" transform="translate(45.309 37.326)"/><path class="c" d="M336.193,311.638a3.535,3.535,0,0,1-.389,1.619H324.923a3.562,3.562,0,0,1,3.174-5.182h4.534a3.56,3.56,0,0,1,3.562,3.562Z" transform="translate(-281.357 -262.474)"/><circle class="b" cx="8.42" cy="8.42" r="8.42" transform="translate(40.744)"/><circle class="d" cx="4.21" cy="4.21" r="4.21" transform="translate(44.699 4.21)"/></svg>
