<svg xmlns="http://www.w3.org/2000/svg" width="11.344" height="10.064" viewBox="0 0 11.344 10.064"><defs><style>.a{fill:#fff;opacity:0.8;}</style></defs><g transform="translate(-134.801 -4.976)"><path class="a" d="M4.641.162a.553.553,0,0,1,.782,0L9.9,4.641a.553.553,0,0,1,0,.782l-.522.522a.553.553,0,0,1-.781,0L5.032,2.4,1.466,5.947a.553.553,0,0,1-.781,0L.162,5.423a.553.553,0,0,1,0-.782Z" transform="translate(146.145 4.976) rotate(90)"/><path class="a" d="M4.641.162a.553.553,0,0,1,.782,0L9.9,4.641a.553.553,0,0,1,0,.782l-.522.522a.553.553,0,0,1-.781,0L5.032,2.4,1.466,5.947a.553.553,0,0,1-.781,0L.162,5.423a.553.553,0,0,1,0-.782Z" transform="translate(140.909 4.976) rotate(90)"/></g></svg>