<svg xmlns="http://www.w3.org/2000/svg" xmlns:xlink="http://www.w3.org/1999/xlink" width="105" height="60" viewBox="0 0 105 60"><defs><style>.a{fill:#ced4da;opacity:0.9;}.b{fill:url(#a);}</style><linearGradient id="a" x1="0.065" y1="0.135" x2="1" y2="-0.627" gradientUnits="objectBoundingBox"><stop offset="0" stop-color="#4a7ee4"/><stop offset="1" stop-color="#e41d37"/></linearGradient></defs><path class="a" d="M18.95-2.711a1.2,1.2,0,0,0,1.681,0l.84-.828a1.16,1.16,0,0,0,0-1.657L18.817-7.812l2.653-2.616a1.16,1.16,0,0,0,0-1.657l-.84-.828a1.2,1.2,0,0,0-1.682,0L14.614-8.642a1.16,1.16,0,0,0,0,1.657Zm7.134-.828.84.828a1.2,1.2,0,0,0,1.682,0L32.94-6.983a1.16,1.16,0,0,0,0-1.657l-4.335-4.273a1.2,1.2,0,0,0-1.682,0l-.84.828a1.16,1.16,0,0,0,0,1.657l2.653,2.615L26.084-5.2A1.16,1.16,0,0,0,26.084-3.539ZM46.365,8.594H28.35a2.327,2.327,0,0,1-2.433,2.344H21.4a2.505,2.505,0,0,1-2.435-2.344H1.189A1.184,1.184,0,0,0,0,9.766v1.172a4.736,4.736,0,0,0,4.755,4.688H42.8a4.736,4.736,0,0,0,4.755-4.687V9.766A1.184,1.184,0,0,0,46.365,8.594ZM42.8-18.359a3.552,3.552,0,0,0-3.567-3.516H8.322a3.552,3.552,0,0,0-3.567,3.516V6.25H42.8ZM38.043,1.563H9.511v-18.75H38.043Z" transform="translate(0 43.063)"/><path class="b" d="M30.319-4.338a1.922,1.922,0,0,0,2.69,0l1.345-1.325a1.856,1.856,0,0,0,0-2.652L30.108-12.5l4.245-4.186a1.856,1.856,0,0,0,0-2.652l-1.345-1.325a1.922,1.922,0,0,0-2.69,0l-6.936,6.837a1.856,1.856,0,0,0,0,2.652ZM41.734-5.662l1.345,1.325a1.922,1.922,0,0,0,2.69,0L52.7-11.173a1.856,1.856,0,0,0,0-2.652l-6.936-6.837a1.922,1.922,0,0,0-2.69,0l-1.345,1.325a1.856,1.856,0,0,0,0,2.652L45.979-12.5,41.734-8.314A1.856,1.856,0,0,0,41.734-5.662ZM74.185,13.75H45.36a3.723,3.723,0,0,1-3.892,3.75H34.239a4.009,4.009,0,0,1-3.9-3.75H1.9A1.894,1.894,0,0,0,0,15.625V17.5A7.577,7.577,0,0,0,7.609,25h60.87a7.577,7.577,0,0,0,7.609-7.5V15.625A1.894,1.894,0,0,0,74.185,13.75ZM68.478-29.375A5.683,5.683,0,0,0,62.772-35H13.315a5.683,5.683,0,0,0-5.707,5.625V10h60.87ZM60.87,2.5H15.217v-30H60.87Z" transform="translate(28.913 35)"/></svg>