<svg xmlns="http://www.w3.org/2000/svg" xmlns:xlink="http://www.w3.org/1999/xlink" width="85.959" height="59.901" viewBox="0 0 85.959 59.901"><defs><style>.a{fill:#ced4da;opacity:0.9;}.b{fill:#fff;}.c{fill:url(#a);}</style><linearGradient id="a" x1="-0.039" y1="0.27" x2="1" y2="-0.645" gradientUnits="objectBoundingBox"><stop offset="0" stop-color="#4a7ee4"/><stop offset="1" stop-color="#e41d37"/></linearGradient></defs><path class="a" d="M30.047-4.388a1.894,1.894,0,0,0,2.666,0l1.332-1.323a1.863,1.863,0,0,0,0-2.648l-4.208-4.178,4.207-4.179a1.863,1.863,0,0,0,0-2.648l-1.332-1.323a1.9,1.9,0,0,0-2.666,0l-6.873,6.825a1.863,1.863,0,0,0,0,2.648ZM41.359-5.71l1.332,1.323a1.9,1.9,0,0,0,2.666,0l6.873-6.825a1.863,1.863,0,0,0,0-2.648l-6.873-6.826a1.9,1.9,0,0,0-2.666,0l-1.332,1.323a1.863,1.863,0,0,0,0,2.648l4.207,4.178L41.359-8.358A1.863,1.863,0,0,0,41.359-5.71ZM73.518,13.67H44.952a3.7,3.7,0,0,1-3.857,3.744H33.931a3.987,3.987,0,0,1-3.861-3.744H1.885A1.884,1.884,0,0,0,0,15.542v1.872A7.536,7.536,0,0,0,7.54,24.9H67.863a7.536,7.536,0,0,0,7.54-7.488V15.542A1.884,1.884,0,0,0,73.518,13.67ZM67.863-29.384A5.652,5.652,0,0,0,62.208-35H13.2A5.652,5.652,0,0,0,7.54-29.384V9.926H67.863ZM60.322,2.438H15.081V-27.512H60.322Z" transform="translate(10.556 35)"/><rect class="b" width="33" height="23" transform="translate(7.959 22.901)"/><path class="c" d="M20.643-.844a1.3,1.3,0,0,0,1.832,0l.915-.909a1.28,1.28,0,0,0,0-1.819L20.5-6.442,23.39-9.313a1.28,1.28,0,0,0,0-1.819l-.915-.909a1.3,1.3,0,0,0-1.832,0L15.92-7.352a1.28,1.28,0,0,0,0,1.819Zm7.771-.908.915.909a1.3,1.3,0,0,0,1.832,0l4.722-4.689a1.28,1.28,0,0,0,0-1.819l-4.722-4.689a1.3,1.3,0,0,0-1.832,0l-.915.909a1.28,1.28,0,0,0,0,1.819l2.891,2.87L28.415-3.571A1.28,1.28,0,0,0,28.415-1.752ZM50.509,11.563H30.884a2.544,2.544,0,0,1-2.65,2.572H23.312a2.739,2.739,0,0,1-2.653-2.572H1.3A1.294,1.294,0,0,0,0,12.849v1.286a5.178,5.178,0,0,0,5.18,5.144H46.624a5.178,5.178,0,0,0,5.18-5.144V12.849A1.294,1.294,0,0,0,50.509,11.563Zm-3.885-29.58a3.883,3.883,0,0,0-3.885-3.858H9.066A3.883,3.883,0,0,0,5.18-18.017V8.991H46.624ZM41.444,3.847H10.361V-16.731H41.444Z" transform="translate(0 39.312)"/></svg>