<svg xmlns="http://www.w3.org/2000/svg" xmlns:xlink="http://www.w3.org/1999/xlink" width="427.839" height="251.102" viewBox="0 0 427.839 251.102"><defs><style>.a,.j{fill:#342f57;}.b{fill:#7b769d;}.c,.d{fill:#2f5dab;}.c{opacity:0.59;}.e{fill:#2f2e41;}.f{fill:#fff;}.g{fill:#d0cde1;}.h{fill:#f2f2f2;}.i{fill:#e6e6e6;}.j{opacity:0.48;}.k{fill:url(#a);}</style><linearGradient id="a" x1="0.515" y1="1.048" x2="0.516" y2="-0.045" gradientUnits="objectBoundingBox"><stop offset="0" stop-color="#e41d37"/><stop offset="1" stop-color="#2454b2"/></linearGradient></defs><path class="a" d="M651.721,235.388h-150.7v-3.1H432.685v3.1H281.361a10.181,10.181,0,0,0-10.194,10.168V451.39a10.181,10.181,0,0,0,10.194,10.168h370.36a10.181,10.181,0,0,0,10.194-10.168V245.556a10.181,10.181,0,0,0-10.194-10.168Z" transform="translate(-255.966 -232.29)"/><rect class="b" width="363.994" height="205.009" transform="translate(28.578 20.62)"/><rect class="c" width="363.994" height="205.009" transform="translate(27.66 20.62)"/><ellipse class="d" cx="3.648" cy="3.639" rx="3.648" ry="3.639" transform="translate(206.55 7.884)"/><path class="a" d="M660.057,613.935h-35.4V611.44a.5.5,0,0,0-.506-.495H612.013a.5.5,0,0,0-.506.495v2.495h-7.586V611.44a.5.5,0,0,0-.506-.495H591.279a.5.5,0,0,0-.506.495v2.495h-7.586V611.44a.5.5,0,0,0-.506-.495H570.544a.5.5,0,0,0-.506.495v2.495h-7.585V611.44a.5.5,0,0,0-.506-.495H549.81a.5.5,0,0,0-.506.495v2.495h-7.586V611.44a.5.5,0,0,0-.506-.495H529.075a.5.5,0,0,0-.506.495v2.495h-7.586V611.44a.5.5,0,0,0-.506-.495H508.341a.5.5,0,0,0-.506.495v2.495h-7.586V611.44a.5.5,0,0,0-.506-.495H404.668a.5.5,0,0,0-.506.495v2.495h-7.586V611.44a.5.5,0,0,0-.506-.495H383.934a.5.5,0,0,0-.506.495v2.495h-7.586V611.44a.5.5,0,0,0-.506-.495H363.2a.5.5,0,0,0-.506.495v2.495h-7.586V611.44a.5.5,0,0,0-.506-.495H342.465a.5.5,0,0,0-.506.495v2.495h-7.586V611.44a.5.5,0,0,0-.506-.495H321.73a.5.5,0,0,0-.506.495v2.495h-7.586V611.44a.5.5,0,0,0-.506-.495H301a.5.5,0,0,0-.506.495v2.495H292.9V611.44a.5.5,0,0,0-.506-.495H280.261a.5.5,0,0,0-.506.495v2.495H256.493a12.007,12.007,0,0,0-12.137,11.872v5.368a12.007,12.007,0,0,0,12.137,11.872H660.057a12.007,12.007,0,0,0,12.137-11.872v-5.368a12.007,12.007,0,0,0-12.137-11.872Z" transform="translate(-244.355 -391.944)"/><ellipse class="e" cx="48.923" cy="48.799" rx="48.923" ry="48.799" transform="translate(163.621 101.946)"/><path class="e" d="M438.194,353.586l-14.626-2.641,4.744-30.46,14.625,2.641Z" transform="translate(-245.032 -134.38)"/><rect class="e" width="14.85" height="26.557" transform="translate(213.138 191.386) rotate(10.261)"/><path class="e" d="M4.627,0c2.56,0,4.637,5.547,4.639,12.387S7.2,24.77,4.635,24.769,0,19.222,0,12.382,2.067,0,4.627,0Z" transform="matrix(0.198, -0.98, 0.98, 0.198, 207.654, 221.23)"/><ellipse class="e" cx="4.637" cy="12.387" rx="4.637" ry="12.387" transform="translate(176.577 222.148) rotate(-82.454)"/><ellipse class="f" cx="16.721" cy="16.678" rx="16.721" ry="16.678" transform="translate(199.328 121.617)"/><ellipse class="a" cx="5.574" cy="5.559" rx="5.574" ry="5.559" transform="translate(217.485 126.606)"/><path class="e" d="M24.454-.009C37.963,0,48.915,3.432,48.917,7.665S37.969,15.325,24.46,15.32,0,11.879,0,7.646,10.945-.015,24.454-.009Z" transform="matrix(0.975, -0.223, 0.223, 0.975, 233.19, 139.401)"/><path class="e" d="M24.454-.009C37.963,0,48.915,3.432,48.917,7.665S37.969,15.325,24.46,15.32,0,11.879,0,7.646,10.945-.015,24.454-.009Z" transform="matrix(0.975, -0.223, 0.223, 0.975, 134.993, 155.682)"/><path class="f" d="M588.153,522.691a11.146,11.146,0,0,0,21.938,3.961c1.1-6.043-3.587-8.181-9.645-9.275S589.25,516.648,588.153,522.691Z" transform="translate(-389.091 -352.502)"/><g transform="translate(46.099 31.077)"><g transform="translate(0 0)"><rect class="g" width="80.443" height="76.325"/><rect class="f" width="62.16" height="47.413" transform="translate(9.141 9.118)"/><rect class="h" width="33.811" height="1.775" transform="translate(9.08 62.125)"/><rect class="h" width="33.811" height="1.775" transform="translate(9.08 67.45)"/><ellipse class="a" cx="7.118" cy="7.1" rx="7.118" ry="7.1" transform="translate(13.083 25.737)"/><ellipse class="d" cx="7.118" cy="7.1" rx="7.118" ry="7.1" transform="translate(33.103 25.737)"/><ellipse class="i" cx="7.118" cy="7.1" rx="7.118" ry="7.1" transform="translate(53.123 25.737)"/></g><ellipse class="a" cx="3.559" cy="3.55" rx="3.559" ry="3.55" transform="translate(36.662 0.888)"/></g><rect class="g" width="80.443" height="76.325" transform="translate(60.644 160.077)"/><rect class="f" width="62.16" height="47.413" transform="translate(71.405 169.194)"/><rect class="d" width="21.792" height="21.736" transform="translate(85.204 175.851)"/><path class="a" d="M406.284,546.262v26.394h26.462V546.262ZM431.6,571.511H407.431v-24.1H431.6Z" transform="translate(-312.541 -364.776)"/><rect class="h" width="33.811" height="1.775" transform="translate(71.223 221.315)"/><ellipse class="a" cx="3.559" cy="3.55" rx="3.559" ry="3.55" transform="translate(99.263 159.274)"/><rect class="g" width="80.443" height="76.325" transform="translate(276.69 136.151)"/><rect class="f" width="62.16" height="47.413" transform="translate(285.706 144.94)"/><rect class="a" width="13.372" height="3.953" transform="translate(309.819 182.182)"/><rect class="a" width="45.706" height="1.694" transform="translate(293.83 150.762)"/><rect class="a" width="45.706" height="1.694" transform="translate(293.83 156.234)"/><rect class="a" width="45.706" height="1.694" transform="translate(293.83 161.705)"/><rect class="a" width="45.706" height="1.694" transform="translate(293.83 167.176)"/><rect class="a" width="45.706" height="1.694" transform="translate(293.83 172.647)"/><rect class="h" width="33.811" height="1.775" transform="translate(285.166 197.452)"/><rect class="h" width="47.158" height="1.775" transform="translate(285.381 202.902)"/><ellipse class="a" cx="3.559" cy="3.55" rx="3.559" ry="3.55" transform="translate(312.915 135.959)"/><g transform="translate(258.96 10.8)"><rect class="g" width="80.443" height="76.325"/><rect class="f" width="62.16" height="47.413" transform="translate(9.141 9.118)"/><rect class="h" width="33.811" height="1.775" transform="translate(9.08 62.125)"/><rect class="h" width="33.811" height="1.775" transform="translate(9.08 67.45)"/><ellipse class="a" cx="4.881" cy="4.894" rx="4.881" ry="4.894" transform="translate(25.95 13.673) rotate(90)"/><ellipse class="d" cx="4.881" cy="4.894" rx="4.881" ry="4.894" transform="translate(25.95 27.402) rotate(90)"/><ellipse class="i" cx="4.881" cy="4.894" rx="4.881" ry="4.894" transform="translate(25.95 41.131) rotate(90)"/><ellipse class="a" cx="3.559" cy="3.55" rx="3.559" ry="3.55" transform="translate(36.662 0.888)"/><rect class="j" width="36.049" height="1.694" transform="translate(30.158 15.356)"/><rect class="j" width="36.049" height="1.694" transform="translate(30.158 20.72)"/><rect class="j" width="36.049" height="1.694" transform="translate(30.158 28.338)"/><rect class="j" width="36.049" height="1.694" transform="translate(30.158 33.702)"/><rect class="j" width="36.049" height="1.694" transform="translate(30.158 41.856)"/><rect class="j" width="36.049" height="1.694" transform="translate(30.158 47.22)"/></g><path class="k" d="M70.345,18.685c10.192,4.268,4.675,3.405,15.875,8.094a3.076,3.076,0,0,1,0,5.457L44.79,49.577a2.166,2.166,0,0,1-1.7,0L1.654,32.222a3.076,3.076,0,0,1,0-5.457l16.557-7.943c-1.826-6.078,12.064-5.177,25.709-5.169S72.079,12.761,70.345,18.685Zm9.539,5.436.021-11.406h-.672a.9.9,0,0,1-.935-.882l-.874-10.36c-.2-1.973,8.662-1.98,8.473.012-.3,2.918-.589,7.44-.88,10.357a.909.909,0,0,1-.938.88h-.674l.016,12.883L79.884,24.12Z" transform="translate(254.878 123.111) rotate(177)"/></svg>