<svg xmlns="http://www.w3.org/2000/svg" xmlns:xlink="http://www.w3.org/1999/xlink" width="87.838" height="61.016" viewBox="0 0 87.838 61.016"><defs><style>.a{fill:#d9dde1;}.a,.b{fill-rule:evenodd;}.b{fill:url(#a);}</style><linearGradient id="a" x1="0.078" y1="1" x2="1.134" y2="-0.214" gradientUnits="objectBoundingBox"><stop offset="0" stop-color="#3872e3"/><stop offset="1" stop-color="#e41d37"/></linearGradient></defs><g transform="translate(0 22.545)"><path class="a" d="M24.657,7.83V35.07h13.39a.256.256,0,0,1,.256.258v2.884a.259.259,0,0,1-.256.258H8.584a.259.259,0,0,1-.259-.258V35.329a.259.259,0,0,1,.259-.258h13.39V7.842a4.055,4.055,0,0,1-2.5-2.483H11.011V6.643a.255.255,0,0,1-.256.255H8.584a.259.259,0,0,1-.259-.255V5.359H6.171a.282.282,0,0,1-.3-.255V2.936a.283.283,0,0,1,.3-.258H19.486a4.05,4.05,0,0,1,7.621,0H40.46a.283.283,0,0,1,.3.258V5.1a.28.28,0,0,1-.3.255H38.032V6.643a.255.255,0,0,1-.256.255H35.6a.259.259,0,0,1-.259-.255V5.359H27.118A4.058,4.058,0,0,1,24.657,7.83Zm12.8.521,8.61,15.159a.784.784,0,0,1,.105.412h.008v.056c0,3.61-4.265,6.538-9.527,6.538-5.2,0-9.433-2.865-9.523-6.422a.8.8,0,0,1,.117-.64l8.805-15.14a.8.8,0,0,1,1.094-.292.844.844,0,0,1,.312.33Zm.034,3.3V23.109H44L37.487,11.65ZM35.954,23.106V11.669L29.3,23.106ZM10.35,8.351,18.96,23.51a.784.784,0,0,1,.105.412h.008v.056c0,3.61-4.265,6.538-9.527,6.538-5.2,0-9.433-2.865-9.523-6.422A.731.731,0,0,1,0,23.907a.805.805,0,0,1,.139-.449L8.944,8.317a.8.8,0,0,1,1.094-.292.811.811,0,0,1,.312.326Zm.034,3.3V23.109h6.509L10.384,11.65ZM8.847,23.106V11.669L2.195,23.106ZM23.3,2.273a1.756,1.756,0,1,1-1.763,1.756A1.76,1.76,0,0,1,23.3,2.273Z" transform="translate(0)"/></g><g transform="translate(16.422)"><path class="b" d="M39.628,14.1V53.25H58.844a.4.4,0,0,1,.4.4V59.6a.4.4,0,0,1-.4.4H13.275a.4.4,0,0,1-.4-.4V53.65a.4.4,0,0,1,.4-.4H32.492L32.555,14.3a8.2,8.2,0,0,1-3.672-4.03H17.03v.5a.4.4,0,0,1-.4.394h-3.36a.4.4,0,0,1-.4-.394v-.5H9.544a.437.437,0,0,1-.465-.394V5.038a.437.437,0,0,1,.465-.4H28.777a8.181,8.181,0,0,1,15.566,0l18.233.006a.437.437,0,0,1,.465.4V9.879a.433.433,0,0,1-.465.394H58.821v.5a.4.4,0,0,1-.4.394h-3.36a.4.4,0,0,1-.4-.394v-.5H44.095a8.717,8.717,0,0,1-4.467,4.588Zm18.3-.683L71.242,36.858a1.212,1.212,0,0,1,.163.637h.012v.087c0,5.583-6.6,10.113-14.734,10.113-8.05,0-14.589-4.431-14.728-9.933a1.241,1.241,0,0,1,.18-.99L55.752,13.355a1.239,1.239,0,0,1,1.691-.452,1.306,1.306,0,0,1,.482.51Zm.052,5.1V36.239H68.045L57.978,18.516ZM55.607,36.233V18.545L45.313,36.233Zm-39.6-22.82L29.323,36.858a1.212,1.212,0,0,1,.163.637H29.5v.087c0,5.583-6.6,10.113-14.734,10.113-8.05,0-14.589-4.431-14.728-9.933A1.13,1.13,0,0,1,0,37.472a1.245,1.245,0,0,1,.215-.7L13.833,13.361a1.239,1.239,0,0,1,1.691-.452,1.254,1.254,0,0,1,.482.5Zm.052,5.1V36.239H26.126L16.059,18.516ZM13.682,36.233V18.545L3.394,36.233Z" transform="translate(0 1.02)"/></g></svg>