<svg xmlns="http://www.w3.org/2000/svg" width="34" height="34" viewBox="0 0 34 34"><defs><style>.a{fill:#f8f9fa;stroke:#e9ecef;}.b{fill:teal;}.c{stroke:none;}.d{fill:none;}</style></defs><g class="a"><circle class="c" cx="17" cy="17" r="17"/><circle class="d" cx="17" cy="17" r="16.5"/></g><g transform="translate(8.5 10.6)"><path class="b" d="M5.525-3.775a.607.607,0,0,0-.188.029,3.5,3.5,0,0,1-1.087.184,3.507,3.507,0,0,1-1.088-.184.606.606,0,0,0-.187-.029A2.975,2.975,0,0,0,0-.784,1.272,1.272,0,0,0,1.275.475h5.95A1.272,1.272,0,0,0,8.5-.784,2.975,2.975,0,0,0,5.525-3.775ZM4.25-4.625A2.55,2.55,0,0,0,6.8-7.175a2.55,2.55,0,0,0-2.55-2.55A2.55,2.55,0,0,0,1.7-7.175,2.55,2.55,0,0,0,4.25-4.625Zm11.475-8.5H5.525A1.3,1.3,0,0,0,4.25-11.808v1.233a4.885,4.885,0,0,1,2.078.433v-.79l8.583.04v6.77H13.6V-5H10.2v.88H8.175A4.49,4.49,0,0,1,9.229-2.075h6.5A1.3,1.3,0,0,0,17-3.392v-8.416A1.3,1.3,0,0,0,15.725-13.125Z" transform="translate(0 13.125)"/></g></svg>