<svg xmlns="http://www.w3.org/2000/svg" width="34" height="34" viewBox="0 0 34 34"><defs><style>.a{fill:#f8f9fa;stroke:#e9ecef;}.b{fill:teal;}.c{stroke:none;}.d{fill:none;}</style></defs><g class="a"><circle class="c" cx="17" cy="17" r="17"/><circle class="d" cx="17" cy="17" r="16.5"/></g><g transform="translate(10 10)"><path class="b" d="M0-2.918V-1.75C0-.785,2.352,0,5.25,0S10.5-.785,10.5-1.75V-2.918A9.943,9.943,0,0,1,5.25-1.75,9.943,9.943,0,0,1,0-2.918ZM8.75-10.5c2.9,0,5.25-.785,5.25-1.75S11.648-14,8.75-14s-5.25.785-5.25,1.75S5.852-10.5,8.75-10.5ZM0-5.786v1.411c0,.965,2.352,1.75,5.25,1.75s5.25-.785,5.25-1.75V-5.786A8.806,8.806,0,0,1,5.25-4.375,8.806,8.806,0,0,1,0-5.786Zm11.375.3C12.942-5.789,14-6.352,14-7V-8.168a6.714,6.714,0,0,1-2.625.943ZM5.25-9.625c-2.9,0-5.25.979-5.25,2.188S2.352-5.25,5.25-5.25s5.25-.979,5.25-2.187S8.148-9.625,5.25-9.625Zm6,1.539C12.887-8.381,14-8.961,14-9.625v-1.168A8.9,8.9,0,0,1,9.606-9.65,3.062,3.062,0,0,1,11.246-8.086Z" transform="translate(0 14)"/></g></svg>