<svg xmlns="http://www.w3.org/2000/svg" width="120" height="120" viewBox="0 0 120 120"><defs><style>.a{fill:#ebf3fa;}.b{fill:none;stroke:#1868b9;stroke-linecap:round;stroke-linejoin:round;stroke-width:2px;}</style></defs><g transform="translate(-423 -1747)"><circle class="a" cx="60" cy="60" r="60" transform="translate(423 1747)"/><g transform="translate(453.782 1782.595)"><g transform="translate(0 0)"><path class="b" d="M59.078,8.752H0L4.376,0H54.7Z" transform="translate(0 33.913)"/><path class="b" d="M0,33.915V4.376A4.376,4.376,0,0,1,4.376,0H45.95a4.376,4.376,0,0,1,4.376,4.376V33.915Z" transform="translate(4.375 0)"/><path class="b" d="M59.078,0V2.188A3.282,3.282,0,0,1,55.8,5.47H3.282A3.282,3.282,0,0,1,0,2.188V0Z" transform="translate(0 42.666)"/><path class="b" d="M4.376.109H0V0H4.376Z" transform="translate(27.35 38.236)"/><path class="b" d="M14.091,16.437a1.215,1.215,0,0,1-.547-.131L.536,9.107A1.017,1.017,0,0,1,0,8.221a1.029,1.029,0,0,1,.536-.886L13.544.147a1.094,1.094,0,0,1,1.094,0L27.646,7.334a1.028,1.028,0,0,1,.536.886,1.017,1.017,0,0,1-.536.886l-13.008,7.2A1.215,1.215,0,0,1,14.091,16.437Z" transform="translate(15.448 6.011)"/><path class="b" d="M14.091.022V0H0V.055H14.058V6.728h.055V.022Z" transform="translate(29.538 14.209)"/><path class="b" d="M8.479,10.284a2.189,2.189,0,0,0,1.816,0l8.479-3.971V0L9.934,4.9a1.2,1.2,0,0,1-1.094,0L0,0V6.313Z" transform="translate(20.152 17.415)"/><circle class="b" cx="1.072" cy="1.072" r="1.072" transform="translate(42.579 20.928)"/></g></g></g></svg>