<svg width="724" height="200" xmlns="http://www.w3.org/2000/svg"><g id="Page-1" fill="none" fill-rule="evenodd"><g id="logo-light-bg" fill-rule="nonzero"><path d="M264.516 135.708c1.54-18.835 2.725-41.55 50.515-39.246l-43.692 101.667h-6.823v-62.421zm-1.318 0c-1.541-18.835-4.044-41.55-51.835-39.246l45.012 101.667h6.823v-62.421zm34.678-52.235c-.02-13.003 2.072-43.285-2.15-55.01 12.174-4.146 4.498-1.537 17.875-6.092 1.187-.402 1.977-1.463 1.977-2.65 0-1.188-.79-2.25-1.977-2.653L264.111.21a3.137 3.137 0 0 0-2.033 0l-49.49 16.86c-1.188.403-1.978 1.464-1.978 2.651 0 1.188.79 2.249 1.977 2.652l17.947 6.114c-4.284 11.604-2.221 41.541-2.22 55.002 3.044.51 6.313 1.279 9.515 2.232a76.425 76.425 0 0 1 7.56 2.674l9.113-8.532c-10.706-4.525-19.04-21.194-19.592-32.677 7.38-.473 33.134-3.341 34.892-11.211 2.43 4.227 15.28 15.63 20.48 16.434 0 0-5.047 21.051-18.834 27.44l9.303 8.528a76.384 76.384 0 0 1 7.52-2.656c3.233-.963 6.535-1.736 9.605-2.247zm8.158-58.52l.027 11.084h-.803c-.559-.048-1.052.332-1.117.857l-1.042 10.068c-.236 1.917 10.347 1.925 10.121-.011-.354-2.836-.705-7.23-1.053-10.065-.067-.522-.562-.902-1.12-.855h-.805l.017-12.52-4.225 1.443z" id="Shape" fill="#5B5B5B"/><path d="M666.853 90.427h15.749l41.356 107.702h-16.703l-28.154-76.123c-2.068-5.798-4.294-14.799-4.294-14.799h-.319s-2.226 9.001-4.294 14.799l-27.837 76.123h-17.02l41.516-107.702zM.043 198.129H15.79v-69.868c0-6.103-1.113-15.714-1.113-15.714h.318s5.248 9.764 9.385 15.714l50.106 69.868h15.428V90.427H74.167v70.022c0 5.95 1.114 15.56 1.114 15.56h-.319s-5.249-9.764-9.384-15.56L15.63 90.427H.042v107.702zM153.438 90.427h15.747l41.357 107.702H193.84l-28.155-76.123c-2.068-5.798-4.294-14.799-4.294-14.799h-.32s-2.226 9.001-4.294 14.799l-27.837 76.123h-17.019L153.44 90.427zm173.287 53.089c0 31.73 25.292 56.444 57.741 56.444 32.45 0 57.583-24.713 57.583-56.444 0-30.969-25.132-54.92-57.583-54.92-32.449 0-57.74 23.951-57.74 54.92zm16.225 0c0-23.493 18.611-41.19 41.516-41.19 22.906 0 41.357 17.697 41.357 41.19 0 24.255-18.451 42.562-41.357 42.562-22.905 0-41.516-18.307-41.516-42.562zm128.742 54.613h15.747V90.427h-15.747v107.702zm42.322-54.462c0 31.58 23.7 56.293 57.422 56.293 28.156 0 43.584-17.085 43.584-17.085l-8.43-10.832s-13.52 14.035-34.676 14.035c-24.973 0-41.676-19.527-41.676-42.562 0-22.884 16.383-41.19 41.517-41.19 19.405 0 32.449 11.746 32.449 11.746l7.794-11.288s-13.839-14.187-40.88-14.187c-32.608 0-57.104 23.798-57.104 55.07z" id="Shape" fill="#E41D37"/></g></g></svg>