<svg xmlns="http://www.w3.org/2000/svg" xmlns:xlink="http://www.w3.org/1999/xlink" width="719.499" height="236.958" viewBox="0 0 719.499 236.958"><defs><style>.a{opacity:0.34;}.b{opacity:0.66;}.b,.e{fill:url(#a);}.c{opacity:0.496;}.d{opacity:0.536;}.f{fill:#ebf3fa;}.g{opacity:0.8;}.h{opacity:0.336;}</style><linearGradient id="a" x1="0.5" x2="0.5" y2="1" gradientUnits="objectBoundingBox"><stop offset="0" stop-color="#f23d61"/><stop offset="1" stop-color="#de3849"/></linearGradient></defs><g class="a" transform="matrix(1, -0.017, 0.017, 1, 0, 12.49)"><g transform="translate(21 167.303)"><path class="b" d="M0,7.5c0,.185.005.367.021.547A7.5,7.5,0,1,0,14.134,4a6.905,6.905,0,0,0-.552-.887A7.5,7.5,0,0,0,.027,6.891C.008,7.092,0,7.3,0,7.5Z" transform="translate(0 0)"/></g><g class="c" transform="translate(0 189.492)"><path class="b" d="M0,7.5c0,.185.005.367.021.547A7.5,7.5,0,1,0,14.134,4a6.905,6.905,0,0,0-.552-.887A7.5,7.5,0,0,0,.027,6.891C.008,7.092,0,7.3,0,7.5Z" transform="translate(0 0)"/></g><g class="d" transform="translate(144.5 0)"><path class="e" d="M1.05,13.255c.1.2.212.387.33.569A9.013,9.013,0,1,0,14.07,1.562,8.271,8.271,0,0,0,12.986.931,9.011,9.011,0,0,0,.735,12.591C.828,12.815.934,13.036,1.05,13.255Z" transform="translate(0 0)"/><path class="f" d="M.315,7.2c.1.2.212.387.33.569L11.8,0,0,6.536C.093,6.76.2,6.981.315,7.2Z" transform="translate(0.735 6.055)"/><path class="f" d="M0,6.1l11.723-4.53A9.06,9.06,0,0,0,11.968,0Z" transform="translate(6.019 9.659)"/><path class="f" d="M0,4.342,9.6.631A8.3,8.3,0,0,0,8.516,0Z" transform="translate(4.47 0.931)"/></g><g class="g" transform="translate(627.986 197.046)"><path class="e" d="M1.6,20.163c.158.3.323.589.5.865A13.71,13.71,0,1,0,21.4,2.376a12.613,12.613,0,0,0-1.649-.96A13.708,13.708,0,0,0,1.118,19.153C1.26,19.494,1.421,19.829,1.6,20.163Z" transform="translate(0 0)"/><path class="f" d="M.48,10.953c.158.3.323.589.5.865L17.945,0,0,9.942C.142,10.283.3,10.619.48,10.953Z" transform="translate(1.118 9.21)"/><path class="f" d="M0,9.282,17.832,2.391A13.78,13.78,0,0,0,18.206,0Z" transform="translate(9.157 14.693)"/><path class="f" d="M0,6.605,14.6.96A12.6,12.6,0,0,0,12.954,0Z" transform="translate(6.8 1.416)"/></g><g class="h" transform="translate(629.146 130.542)"><path class="e" d="M1.388,17.477c.138.259.281.51.437.75A11.9,11.9,0,1,0,18.59,2.06a10.945,10.945,0,0,0-1.433-.832A11.9,11.9,0,0,0,.971,16.6C1.094,16.9,1.234,17.188,1.388,17.477Z" transform="translate(0 0)"/><path class="f" d="M.417,9.494c.137.259.28.51.436.75L15.586,0,0,8.618C.123,8.913.263,9.2.417,9.494Z" transform="translate(0.971 7.983)"/><path class="f" d="M0,8.045,15.488,2.073A11.927,11.927,0,0,0,15.813,0Z" transform="translate(7.953 12.736)"/><path class="f" d="M0,5.726,12.684.832A10.96,10.96,0,0,0,11.251,0Z" transform="translate(5.906 1.227)"/></g><g class="h" transform="translate(685.097 44.419)"><path class="e" d="M1.784,22.511c.177.334.361.657.561.966A15.306,15.306,0,1,0,23.9,2.653a14.054,14.054,0,0,0-1.842-1.072,15.3,15.3,0,0,0-20.806,19.8C1.406,21.763,1.587,22.138,1.784,22.511Z" transform="translate(0 0)"/><path class="f" d="M.536,12.228c.177.333.36.657.561.966L20.034,0,0,11.1C.158,11.481.339,11.855.536,12.228Z" transform="translate(1.249 10.283)"/><path class="f" d="M0,10.363,19.909,2.67A15.4,15.4,0,0,0,20.326,0Z" transform="translate(10.223 16.404)"/><path class="f" d="M0,7.375l16.3-6.3A14.075,14.075,0,0,0,14.462,0Z" transform="translate(7.592 1.581)"/></g><g class="h" transform="translate(1.35 112.127)"><path class="e" d="M.618,7.806c.061.116.125.228.195.335A5.308,5.308,0,1,0,8.286.92,4.875,4.875,0,0,0,7.648.548,5.307,5.307,0,0,0,.433,7.415C.488,7.547.55,7.677.618,7.806Z" transform="translate(0 0)"/><path class="f" d="M.186,4.241c.061.116.125.228.195.335L6.947,0,0,3.849C.055,3.981.117,4.111.186,4.241Z" transform="translate(0.433 3.566)"/><path class="f" d="M0,3.594,6.9.926A5.331,5.331,0,0,0,7.048,0Z" transform="translate(3.545 5.689)"/><path class="f" d="M0,2.557,5.654.372A4.889,4.889,0,0,0,5.015,0Z" transform="translate(2.633 0.548)"/></g><g class="h" transform="translate(609.278 83.243)"><path class="e" d="M848.243,571.7c.072.136.147.268.229.394a6.248,6.248,0,1,0,8.8-8.5,5.744,5.744,0,0,0-.752-.438,6.247,6.247,0,0,0-8.493,8.083C848.089,571.391,848.163,571.545,848.243,571.7Z" transform="translate(-847.515 -562.508)"/><path class="f" d="M864.777,586.284c.072.136.147.268.229.394l7.73-5.386-8.178,4.531C864.623,585.979,864.7,586.132,864.777,586.284Z" transform="translate(-864.048 -577.094)"/><path class="f" d="M847.6,596.705l8.127-3.14a6.283,6.283,0,0,0,.17-1.09Z" transform="translate(-843.424 -585.779)"/><path class="f" d="M859.774,568.405l6.655-2.573a5.743,5.743,0,0,0-.752-.438Z" transform="translate(-856.675 -564.75)"/></g></g></svg>