<svg xmlns="http://www.w3.org/2000/svg" xmlns:xlink="http://www.w3.org/1999/xlink" width="1659.898" height="455.466" viewBox="0 0 1659.898 455.466"><defs><style>.a{opacity:0.33;}.b,.l,.r,.s{fill:#1868b9;}.b{opacity:0.1;}.c{opacity:0.4;fill:url(#a);}.d{fill:#e62e47;opacity:0.11;}.e{opacity:0.7;}.f{opacity:0.52;}.f,.i,.v{fill:url(#b);}.g{fill:#ebf3fa;}.h{opacity:0.61;}.i{opacity:0.83;}.j{fill:#d9c1c1;}.k{fill:url(#d);}.m{opacity:0.15;}.n{fill:#4b4c4c;}.o{opacity:0.93;fill:url(#e);}.p{fill:#fff;}.q{fill:#4a5866;}.r{opacity:0.08;}.s{opacity:0.07;}.t{opacity:0.65;}.u{opacity:0.58;}.w{opacity:0.09;}.x{opacity:0.193;}.y{opacity:0.39;}.z{opacity:0.336;}</style><linearGradient id="a" x1="0.982" y1="1.511" x2="0.5" y2="-0.061" gradientUnits="objectBoundingBox"><stop offset="0" stop-color="#5a89b3" stop-opacity="0.631"/><stop offset="1" stop-color="#437fb3" stop-opacity="0.169"/></linearGradient><linearGradient id="b" x1="0.5" x2="0.5" y2="1" gradientUnits="objectBoundingBox"><stop offset="0" stop-color="#f23d61"/><stop offset="1" stop-color="#de3849"/></linearGradient><linearGradient id="d" x1="0.5" x2="0.5" y2="1" gradientUnits="objectBoundingBox"><stop offset="0" stop-color="#c0c9da"/><stop offset="0.446" stop-color="#d1d6df" stop-opacity="0.769"/><stop offset="1" stop-color="#fff" stop-opacity="0"/></linearGradient><linearGradient id="e" x1="0.5" x2="0.5" y2="1" gradientUnits="objectBoundingBox"><stop offset="0" stop-color="#f8679a"/><stop offset="1" stop-color="#f14253"/></linearGradient></defs><g transform="translate(-106.551 -114.819)"><g transform="translate(-173.875 -21.539)"><g class="a" transform="translate(363.426 259.661)"><path class="b" d="M452.024,80l-10.405,6.6,6.314-11.5a10.291,10.291,0,0,0-6.295-2.242h-.163a12.343,12.343,0,0,1-2.156-.163l-3.536,2.242,1.514-2.75a12.638,12.638,0,0,1-6.17-4.647L424.794,71.5l3.986-7.253c-3.689-4.436-8.671-7.157-14.142-7.157-6.563,0-12.456,3.909-16.192,9.993a12.092,12.092,0,0,1-10.7,5.749h-.316c-7.243,0-13.126,8.211-13.126,18.358s5.883,18.348,13.126,18.348A9.849,9.849,0,0,0,392,108.4a18.894,18.894,0,0,1,15.886-.307,16.643,16.643,0,0,0,13.51,0,18.923,18.923,0,0,1,15.742.307,9.917,9.917,0,0,0,4.523,1.111c7.253,0,13.126-8.211,13.126-18.348A23.337,23.337,0,0,0,452.024,80Z" transform="translate(-374.3 -57.09)"/><path class="b" d="M432.461,107.872a19.383,19.383,0,0,0-11.249,1.226,16.6,16.6,0,0,1-13.51,0,18.933,18.933,0,0,0-15.886.316,9.85,9.85,0,0,1-4.57,1.14c-6.439,0-11.795-6.487-12.906-15.043a12.524,12.524,0,0,0,3.219-3.468c3.775-6.084,9.581-9.993,16.183-9.993s12.35,3.833,16.125,9.878a12.455,12.455,0,0,0,10.693,5.883h.173C425.811,97.783,430.247,101.893,432.461,107.872Z" transform="translate(-374.286 -58.135)"/></g><g class="a" transform="translate(280.426 386.897)"><path class="b" d="M452.024,80l-10.405,6.6,6.314-11.5a10.291,10.291,0,0,0-6.295-2.242h-.163a12.343,12.343,0,0,1-2.156-.163l-3.536,2.242,1.514-2.75a12.638,12.638,0,0,1-6.17-4.647L424.794,71.5l3.986-7.253c-3.689-4.436-8.671-7.157-14.142-7.157-6.563,0-12.456,3.909-16.192,9.993a12.092,12.092,0,0,1-10.7,5.749h-.316c-7.243,0-13.126,8.211-13.126,18.358s5.883,18.348,13.126,18.348A9.849,9.849,0,0,0,392,108.4a18.894,18.894,0,0,1,15.886-.307,16.643,16.643,0,0,0,13.51,0,18.923,18.923,0,0,1,15.742.307,9.917,9.917,0,0,0,4.523,1.111c7.253,0,13.126-8.211,13.126-18.348A23.337,23.337,0,0,0,452.024,80Z" transform="translate(-374.3 -57.09)"/><path class="b" d="M432.461,107.872a19.383,19.383,0,0,0-11.249,1.226,16.6,16.6,0,0,1-13.51,0,18.933,18.933,0,0,0-15.886.316,9.85,9.85,0,0,1-4.57,1.14c-6.439,0-11.795-6.487-12.906-15.043a12.524,12.524,0,0,0,3.219-3.468c3.775-6.084,9.581-9.993,16.183-9.993s12.35,3.833,16.125,9.878a12.455,12.455,0,0,0,10.693,5.883h.173C425.811,97.783,430.247,101.893,432.461,107.872Z" transform="translate(-374.286 -58.135)"/></g><g class="a" transform="translate(293.547 222.009)"><path class="b" d="M413.162,68.545l-5.2,3.3,3.157-5.749a5.146,5.146,0,0,0-3.147-1.121h-.081a6.171,6.171,0,0,1-1.078-.081l-1.768,1.121.757-1.375a6.319,6.319,0,0,1-3.085-2.323L399.547,64.3l1.993-3.627a9.234,9.234,0,0,0-7.071-3.579,9.675,9.675,0,0,0-8.1,5,6.046,6.046,0,0,1-5.351,2.874h-.158c-3.622,0-6.563,4.106-6.563,9.179s2.942,9.174,6.563,9.174a4.925,4.925,0,0,0,2.285-.57,9.447,9.447,0,0,1,7.943-.153,8.322,8.322,0,0,0,6.755,0,9.461,9.461,0,0,1,7.871.153,4.958,4.958,0,0,0,2.261.556c3.626,0,6.563-4.106,6.563-9.174A11.668,11.668,0,0,0,413.162,68.545Z" transform="translate(-374.3 -57.09)"/><path class="b" d="M403.4,94.961a9.692,9.692,0,0,0-5.624.613,8.3,8.3,0,0,1-6.755,0,9.466,9.466,0,0,0-7.943.158,4.925,4.925,0,0,1-2.285.57c-3.219,0-5.9-3.243-6.453-7.521a6.262,6.262,0,0,0,1.61-1.734c1.888-3.042,4.791-5,8.092-5s6.175,1.916,8.063,4.939a6.228,6.228,0,0,0,5.346,2.941h.086C400.076,89.916,402.294,91.972,403.4,94.961Z" transform="translate(-374.313 -70.092)"/></g></g><path class="c" d="M488.045,154.667c0,16.545,3.919,30.164,10.716,41.831a83.6,83.6,0,0,0,7.616,10.938c24.989,30.564,71.45,47.293,113.441,74.39C743.769,361.809,757.2,233.643,751.6,154.667c-2.258-31.867-14.668-61.058-34.384-83.408A130.893,130.893,0,0,0,703.829,58.1a128.194,128.194,0,0,0-84.011-30.6c-56.118,0-104.042,33.848-123.042,81.545a123.186,123.186,0,0,0-8.731,45.618Z" transform="translate(510.315 119.951)"/><path class="d" d="M563.344,88.423l125.47,15.1A130.913,130.913,0,0,0,675.43,90.361Z" transform="translate(538.712 87.691)"/><path class="d" d="M783.05,384.493a83.576,83.576,0,0,0,7.616,10.938L898.142,382.5Z" transform="translate(226.026 -68.044)"/><path class="d" d="M654.05,202.128,836.2,178.5l-177.764,10.51A122.541,122.541,0,0,0,654.05,202.128Z" transform="translate(348.656 39.987)"/><g class="e" transform="translate(977.56 139.283)"><path class="f" d="M460.519,84.354c0,.317.009.629.037.936a12.849,12.849,0,1,0,24.176-6.934,11.834,11.834,0,0,0-.945-1.519,12.845,12.845,0,0,0-23.222,6.471C460.532,83.652,460.519,84,460.519,84.354Z" transform="translate(-196.695 -50.804)"/><path class="g" d="M474.519,97.882c0,.317.009.629.037.936L493.794,96.5l-19.229.33C474.533,97.179,474.519,97.528,474.519,97.882Z" transform="translate(-210.695 -64.332)"/><path class="g" d="M464.779,113.615l17.8,2.143a12.871,12.871,0,0,0,1.358-1.813Z" transform="translate(-196.366 -73.59)"/><path class="g" d="M463.759,82.615l14.575,1.753a11.82,11.82,0,0,0-.945-1.519Z" transform="translate(-190.297 -56.816)"/></g><g class="h" transform="translate(979.828 154.079)"><path class="i" d="M1054.2,116.418c-.223.229-.436.461-.633.7a12.965,12.965,0,1,0,22.35,12.024,11.911,11.911,0,0,0,.388-1.763,12.962,12.962,0,0,0-21.334-11.686C1054.707,115.921,1054.447,116.163,1054.2,116.418Z" transform="translate(-1050.519 -112.505)"/><path class="g" d="M1067.031,120.116c-.223.229-.437.461-.633.7l15.527,11.883L1067.8,119.393C1067.535,119.619,1067.276,119.861,1067.031,120.116Z" transform="translate(-1063.348 -116.203)"/><path class="g" d="M1071.881,138.039l11.347,14.087a12.994,12.994,0,0,0,2.258-.352Z" transform="translate(-1069.449 -126.215)"/><path class="g" d="M1050.834,123.526l9.294,11.535a11.925,11.925,0,0,0,.387-1.763Z" transform="translate(-1034.732 -118.422)"/></g><path class="j" d="M594.492,636.956s-28.906,1.2-28.906,8.431,32.52,0,32.52,0Z" transform="translate(628.367 -202.793)"/><path class="k" d="M231.4,716.285l55-2.678V659.423l14.626,53.348,53.833-1.676C353.634,665.6,331.6,595.236,330.4,589.22s-4.083-30.905-4.083-30.905c-5.263-11.165-32.845-12.213-54.464-11.2-8.961.41-16.91,1.18-21.812,1.734-3.24.361-5.155.626-5.155.626-8.636,8.9-14.2,21.029-17.621,34.579C214.932,632.869,231.4,716.285,231.4,716.285Z" transform="translate(1035.785 -153.684)"/><circle class="j" cx="30.111" cy="30.111" r="30.111" transform="translate(1296.328 205.323)"/><path class="j" d="M289.8,229.879s8.431,37.337,21.68,48.177-51.79,0-51.79,0,14.453-24.089,3.613-34.928S289.8,229.879,289.8,229.879Z" transform="translate(1057.111 12.78)"/><path class="l" d="M222.17,423.364l19.981,2.216,55.9,6.215s.265-.711.735-2c4.059-11.069,23.607-64.93,25.763-81.106,2.409-18.066-22.884-39.746-22.884-39.746s-24.088-4.818-31.315-4.818-36.133,10.84-36.133,10.84l-10.78,96.968-.927,8.395Z" transform="translate(1063.319 -26.538)"/><path class="m" d="M350.316,512.494l40.505-23.739s.711-2.313,1.915-6.215c.6-1.951,1.337-4.312,2.168-6.986,4.673-15.007,12.514-39.77,18.8-57.86,9.635-27.7-37.337,49.382-37.337,49.382l-2.348,1.819-.928,8.395c-3.24.361-5.155.626-5.155.626C359.3,486.816,353.737,498.944,350.316,512.494Z" transform="translate(912.734 -83.498)"/><path class="l" d="M460.472,328.277s12.044,15.657,2.409,43.359S440,442.7,440,442.7L370.14,483.648,360.5,471.6l65.039-50.586s2.409-91.536,14.453-95.149S460.472,328.277,460.472,328.277Z" transform="translate(856.333 -37.441)"/><path class="j" d="M272.223,546.818s-16.862,34.928-24.089,31.315S266.2,538.387,266.2,538.387Z" transform="translate(1104.2 -150.594)"/><path class="l" d="M109.142,352.77l63.835,52.995s24.088,16.862-20.475,28.906-48.177,19.271-48.177,19.271-4.818-15.658-10.84-13.249l51.79-25.293L103.12,390.108Z" transform="translate(1269.087 -52.298)"/><path class="n" d="M267.107,186.338c-3.35-1.659-16.034-6.409-22.336-10.443.442-13.124,1.8-22.315,0-30.2s-7.213-19.334-20.753-27.291-25.464-7.7-28.37-4.22c-31.813.628-37.9,28.146-37.9,28.146.166,10.43,11.006,10.76,20.5,10.38-.85,7.121,1.416,14.52,7.978,17.8,12.549,6.275,16.314,14.432,10.039,20.079s-17.569,20.706-2.51,24.471S210.7,226.357,206.3,229.494s10.039-5.647,10.039-5.647,2.51,15.059,15.687,11.294a7.925,7.925,0,0,0,3.521-2.495c3.559,3.91,6.734,6.222,9.126,6.235,13.7.073,12.061-15.106,12.061-15.106s16.266,4.568,11.19,2.731-9.782-8.4,3.7-16.083S274.671,190.084,267.107,186.338Z" transform="translate(1136.778 73.809)"/><path class="o" d="M651.394,282.106l.218-.029-.533,2.026a53.268,53.268,0,0,1-2.188,8.316l-15.631,59.42a10.071,10.071,0,0,1-8.2,7.391l-31.876,4.931a10.071,10.071,0,0,1-10.419-5.2L552.472,302.38a53.133,53.133,0,0,1-2.591-4.84l-1.029-1.921.16-.021a53.558,53.558,0,1,1,102.381-13.491Z" transform="translate(584.354 17.384)"/><path class="g" d="M548.576,363.888a10.965,10.965,0,0,0,1.676-.129l33.32-5.155a11,11,0,0,0,8.954-8.07l16.339-62.109a56.025,56.025,0,0,0,2.295-8.73l.413-2.717A56.465,56.465,0,0,0,546.94,214l.144.93A55.543,55.543,0,0,1,610.56,277.46l-.317,2.032a55.682,55.682,0,0,1-2.276,8.656l-16.35,62.146a10.053,10.053,0,0,1-8.188,7.38l-33.32,5.155a10.071,10.071,0,0,1-10.4-5.192l-.83.444A11.018,11.018,0,0,0,548.576,363.888Z" transform="translate(627.005 21.539)"/><rect class="p" width="58.952" height="1.217" transform="translate(1186.26 368.773) rotate(-110.115)"/><rect class="p" width="1.217" height="58.952" transform="translate(1198.857 366.822) rotate(-177.484)"/><path class="q" d="M576.229,583.055l42.7-6.605a1.217,1.217,0,1,0-.372-2.405l-42.7,6.605a1.217,1.217,0,0,0,.372,2.406Z" transform="translate(602.169 -169.47)"/><path class="q" d="M578.556,563.781l42.7-6.6a1.217,1.217,0,1,0-.372-2.406l-42.7,6.605a1.217,1.217,0,0,0,.372,2.405Z" transform="translate(598.747 -159.262)"/><path class="q" d="M580.883,544.508l42.7-6.605a1.217,1.217,0,0,0-.372-2.405l-42.7,6.605a1.217,1.217,0,0,0,.372,2.405Z" transform="translate(595.325 -149.057)"/><path class="q" d="M607.224,589.891c-8.469,1.31-16.064-2.348-16.965-8.17l30.668-4.745C621.829,582.8,615.693,588.581,607.224,589.891Z" transform="translate(593.848 -171.03)"/><path class="p" d="M639.608,345.324a7.5,7.5,0,0,0,4.155-2.687c.271-.316.535-.645.8-.974a9.508,9.508,0,0,1,3.136-2.919c2.793-1.3,6.084.517,8.933,2.47l.688-1c-3.133-2.148-6.785-4.131-10.136-2.569a10.544,10.544,0,0,0-3.57,3.26c-.257.319-.512.637-.775.944-.859,1-2.572,2.629-4.409,2.254a5.927,5.927,0,0,1-2.115-1.12,11.336,11.336,0,0,0-1.5-.944,5.96,5.96,0,0,0-6.542.925,11.832,11.832,0,0,0-.888.939,4.311,4.311,0,0,1-1.737,1.427c-.995.318-2.046-.25-3.16-.851a6.294,6.294,0,0,0-3.683-1.1l-.131.018c-2.4.371-3.5,3.022-4.128,5l1.161.366c.85-2.689,1.884-4.027,3.241-4.176a5.351,5.351,0,0,1,2.963.965c1.288.7,2.621,1.414,4.107.94A5.264,5.264,0,0,0,628.3,344.7a10.679,10.679,0,0,1,.794-.844,4.782,4.782,0,0,1,5.181-.732,10.247,10.247,0,0,1,1.334.847,6.914,6.914,0,0,0,2.573,1.318A4,4,0,0,0,639.608,345.324Z" transform="translate(546.118 -43.991)"/><path class="r" d="M428.728,106.213a18.138,18.138,0,0,0-10.526,1.148,15.529,15.529,0,0,1-12.642,0,17.717,17.717,0,0,0-14.866.3,9.217,9.217,0,0,1-4.277,1.067c-6.025,0-11.037-6.07-12.077-14.077a11.72,11.72,0,0,0,3.013-3.246c3.533-5.693,8.966-9.352,15.144-9.352s11.557,3.586,15.09,9.244A11.656,11.656,0,0,0,417.592,96.8h.161C422.506,96.772,426.657,100.619,428.728,106.213Z" transform="translate(1151.458 153.911)"/><path class="s" d="M447.033,78.528,437.3,84.705,443.2,73.946a9.629,9.629,0,0,0-5.891-2.1h-.152a11.557,11.557,0,0,1-2.017-.152l-3.309,2.1,1.417-2.573a11.828,11.828,0,0,1-5.774-4.349l-5.926,3.7,3.73-6.787c-3.452-4.151-8.114-6.7-13.234-6.7-6.142,0-11.656,3.658-15.153,9.352a11.315,11.315,0,0,1-10.015,5.38h-.3c-6.778,0-12.284,7.684-12.284,17.179s5.505,17.17,12.284,17.17a9.217,9.217,0,0,0,4.277-1.067,17.681,17.681,0,0,1,14.866-.287,15.574,15.574,0,0,0,12.642,0,17.708,17.708,0,0,1,14.731.287,9.281,9.281,0,0,0,4.232,1.04c6.787,0,12.283-7.684,12.283-17.17a21.841,21.841,0,0,0-2.582-10.445Z" transform="translate(1151.448 156.491)"/><path class="b" d="M428.728,106.213a18.138,18.138,0,0,0-10.526,1.148,15.529,15.529,0,0,1-12.642,0,17.717,17.717,0,0,0-14.866.3,9.217,9.217,0,0,1-4.277,1.067c-6.025,0-11.037-6.07-12.077-14.077a11.72,11.72,0,0,0,3.013-3.246c3.533-5.693,8.966-9.352,15.144-9.352s11.557,3.586,15.09,9.244A11.656,11.656,0,0,0,417.592,96.8h.161C422.506,96.772,426.657,100.619,428.728,106.213Z" transform="translate(604.232 415.924)"/><path class="b" d="M447.033,78.528,437.3,84.705,443.2,73.946a9.629,9.629,0,0,0-5.891-2.1h-.152a11.557,11.557,0,0,1-2.017-.152l-3.309,2.1,1.417-2.573a11.828,11.828,0,0,1-5.774-4.349l-5.926,3.7,3.73-6.787c-3.452-4.151-8.114-6.7-13.234-6.7-6.142,0-11.656,3.658-15.153,9.352a11.315,11.315,0,0,1-10.015,5.38h-.3c-6.778,0-12.284,7.684-12.284,17.179s5.505,17.17,12.284,17.17a9.217,9.217,0,0,0,4.277-1.067,17.681,17.681,0,0,1,14.866-.287,15.574,15.574,0,0,0,12.642,0,17.708,17.708,0,0,1,14.731.287,9.281,9.281,0,0,0,4.232,1.04c6.787,0,12.283-7.684,12.283-17.17a21.841,21.841,0,0,0-2.582-10.445Z" transform="translate(604.221 418.504)"/><path class="s" d="M189.164,238.714a22.362,22.362,0,0,0-12.931,1.4,19.054,19.054,0,0,1-15.53-.039,21.761,21.761,0,0,0-18.26.362,11.374,11.374,0,0,1-5.259,1.311c-7.4,0-13.564-7.457-14.844-17.3a14.2,14.2,0,0,0,3.7-3.987c4.341-6.994,11.065-11.49,18.615-11.49s14.188,4.442,18.507,11.358A14.281,14.281,0,0,0,175.5,227.1h.193C181.538,227.093,186.643,231.82,189.164,238.714Z" transform="translate(1275.646 -66.602)"/><g class="t" transform="translate(893.551 387.358)"><path class="b" d="M423.891,71.707l-6.639,4.212,4.029-7.336a6.566,6.566,0,0,0-4.017-1.431h-.1a7.875,7.875,0,0,1-1.375-.1l-2.256,1.431.966-1.755a8.064,8.064,0,0,1-3.937-2.965l-4.041,2.525,2.543-4.628a11.784,11.784,0,0,0-9.023-4.567c-4.188,0-7.947,2.494-10.331,6.376a7.715,7.715,0,0,1-6.829,3.668h-.2c-4.622,0-8.375,5.239-8.375,11.713s3.754,11.707,8.375,11.707a6.284,6.284,0,0,0,2.916-.727,12.056,12.056,0,0,1,10.136-.2,10.619,10.619,0,0,0,8.62,0,12.074,12.074,0,0,1,10.044.2,6.327,6.327,0,0,0,2.886.709c4.628,0,8.375-5.239,8.375-11.707A14.89,14.89,0,0,0,423.891,71.707Z" transform="translate(-374.3 -57.09)"/><path class="b" d="M411.424,98.525a12.367,12.367,0,0,0-7.177.783,10.588,10.588,0,0,1-8.62,0,12.08,12.08,0,0,0-10.136.2,6.284,6.284,0,0,1-2.916.728c-4.108,0-7.526-4.139-8.235-9.6a7.991,7.991,0,0,0,2.054-2.213c2.409-3.882,6.113-6.376,10.326-6.376s7.88,2.445,10.289,6.3a7.947,7.947,0,0,0,6.822,3.754h.11C407.181,92.088,410.011,94.711,411.424,98.525Z" transform="translate(-374.306 -66.791)"/></g><path class="s" d="M211.658,199.674l-11.968,7.588,7.264-13.209a11.828,11.828,0,0,0-7.241-2.583h-.193a14,14,0,0,1-2.483-.185L193,193.9l1.743-3.162a14.419,14.419,0,0,1-7.094-5.4l-7.264,4.627,4.573-8.405c-4.249-5.1-9.97-8.22-16.263-8.22-7.549,0-14.273,4.488-18.615,11.482a13.919,13.919,0,0,1-12.338,6.639h-.409c-8.336,0-15.091,9.446-15.091,21.105s6.755,21.105,15.091,21.105a11.266,11.266,0,0,0,5.259-1.319,21.76,21.76,0,0,1,18.26-.355,19.054,19.054,0,0,0,15.53.039,21.784,21.784,0,0,1,18.106.347,11.3,11.3,0,0,0,5.2,1.288c8.336,0,15.091-9.454,15.091-21.105A26.8,26.8,0,0,0,211.658,199.674Z" transform="translate(1275.746 -58.521)"/><g class="a" transform="translate(1589.551 361.134)"><path class="b" d="M452.024,80l-10.405,6.6,6.314-11.5a10.291,10.291,0,0,0-6.295-2.242h-.163a12.343,12.343,0,0,1-2.156-.163l-3.536,2.242,1.514-2.75a12.638,12.638,0,0,1-6.17-4.647L424.794,71.5l3.986-7.253c-3.689-4.436-8.671-7.157-14.142-7.157-6.563,0-12.456,3.909-16.192,9.993a12.092,12.092,0,0,1-10.7,5.749h-.316c-7.243,0-13.126,8.211-13.126,18.358s5.883,18.348,13.126,18.348A9.849,9.849,0,0,0,392,108.4a18.894,18.894,0,0,1,15.886-.307,16.643,16.643,0,0,0,13.51,0,18.923,18.923,0,0,1,15.742.307,9.917,9.917,0,0,0,4.523,1.111c7.253,0,13.126-8.211,13.126-18.348A23.337,23.337,0,0,0,452.024,80Z" transform="translate(-374.3 -57.09)"/><path class="b" d="M432.461,107.872a19.383,19.383,0,0,0-11.249,1.226,16.6,16.6,0,0,1-13.51,0,18.933,18.933,0,0,0-15.886.316,9.85,9.85,0,0,1-4.57,1.14c-6.439,0-11.795-6.487-12.906-15.043a12.524,12.524,0,0,0,3.219-3.468c3.775-6.084,9.581-9.993,16.183-9.993s12.35,3.833,16.125,9.878a12.455,12.455,0,0,0,10.693,5.883h.173C425.811,97.783,430.247,101.893,432.461,107.872Z" transform="translate(-374.286 -58.135)"/></g><g class="a" transform="translate(1707.551 252.188)"><path class="b" d="M431.178,73.855l-7.615,4.831,4.621-8.414a7.531,7.531,0,0,0-4.607-1.641h-.119a9.033,9.033,0,0,1-1.578-.119l-2.587,1.641L420.4,68.14a9.249,9.249,0,0,1-4.516-3.4l-4.635,2.9,2.917-5.308a13.516,13.516,0,0,0-10.349-5.238c-4.8,0-9.115,2.861-11.85,7.313a8.849,8.849,0,0,1-7.832,4.207h-.231c-5.3,0-9.606,6.009-9.606,13.434s4.305,13.427,9.606,13.427a7.208,7.208,0,0,0,3.345-.834,13.827,13.827,0,0,1,11.625-.224,12.179,12.179,0,0,0,9.886,0,13.848,13.848,0,0,1,11.52.224,7.257,7.257,0,0,0,3.31.813c5.308,0,9.606-6.009,9.606-13.427A17.078,17.078,0,0,0,431.178,73.855Z" transform="translate(-374.3 -57.09)"/><path class="b" d="M416.873,100.946a14.185,14.185,0,0,0-8.232.9,12.144,12.144,0,0,1-9.886,0,13.855,13.855,0,0,0-11.625.231,7.208,7.208,0,0,1-3.345.834c-4.712,0-8.631-4.747-9.445-11.008a9.165,9.165,0,0,0,2.356-2.538c2.763-4.452,7.012-7.313,11.843-7.313s9.038,2.8,11.8,7.229a9.115,9.115,0,0,0,7.825,4.305h.126C412.007,93.563,415.253,96.571,416.873,100.946Z" transform="translate(-374.301 -64.549)"/></g><path class="b" d="M200.04,243.553A26,26,0,0,0,185,245.185a22.155,22.155,0,0,1-18.058-.045,25.3,25.3,0,0,0-21.232.421,13.225,13.225,0,0,1-6.115,1.524c-8.607,0-15.771-8.67-17.26-20.111a16.506,16.506,0,0,0,4.3-4.635c5.048-8.132,12.866-13.359,21.644-13.359s16.5,5.164,21.518,13.207a16.605,16.605,0,0,0,14.346,7.863h.224C191.172,230.041,197.108,235.537,200.04,243.553Z" transform="translate(1057.587 323.199)"/><path class="b" d="M226.21,203.959l-13.915,8.823,8.446-15.359a13.754,13.754,0,0,0-8.419-3H212.1a16.28,16.28,0,0,1-2.887-.215l-4.7,3.039,2.026-3.676a16.766,16.766,0,0,1-8.249-6.276l-8.446,5.38,5.317-9.773c-4.94-5.927-11.593-9.558-18.909-9.558-8.778,0-16.6,5.218-21.644,13.35a16.184,16.184,0,0,1-14.346,7.72h-.475c-9.692,0-17.547,10.983-17.547,24.54s7.854,24.54,17.547,24.54a13.1,13.1,0,0,0,6.115-1.533,25.3,25.3,0,0,1,21.232-.412,22.155,22.155,0,0,0,18.058.045,25.329,25.329,0,0,1,21.052.4,13.134,13.134,0,0,0,6.043,1.5c9.692,0,17.547-10.992,17.547-24.54A31.166,31.166,0,0,0,226.21,203.959Z" transform="translate(1057.687 326.794)"/><g class="u" transform="matrix(0.999, -0.035, 0.035, 0.999, -63.777, -3138.698)"><path class="v" d="M848.866,579.52c.134.252.273.5.425.73a11.582,11.582,0,1,0,16.32-15.737,10.657,10.657,0,0,0-1.395-.81,11.579,11.579,0,0,0-15.756,14.965C848.58,578.955,848.717,579.238,848.866,579.52Z" transform="translate(191.721 3073.91)"/><path class="g" d="M864.964,590.533c.134.252.273.5.425.73l14.341-9.971-15.171,8.389C864.678,589.968,864.814,590.252,864.964,590.533Z" transform="translate(175.624 3062.897)"/><path class="g" d="M847.6,600.307l15.076-5.814a11.6,11.6,0,0,0,.316-2.018Z" transform="translate(199.381 3056.34)"/><path class="g" d="M859.774,570.968l12.346-4.763a10.662,10.662,0,0,0-1.394-.81Z" transform="translate(185.212 3072.217)"/></g><g class="w" transform="matrix(0.999, -0.035, 0.035, 0.999, -88.578, -3535.974)"><path class="v" d="M848.24,571.63c.072.135.146.266.228.391a6.211,6.211,0,1,0,8.751-8.439,5.706,5.706,0,0,0-.748-.434,6.209,6.209,0,0,0-8.449,8.025C848.086,571.327,848.159,571.479,848.24,571.63Z" transform="translate(625.774 3566.353)"/><path class="g" d="M864.776,586.248c.072.135.146.266.228.391l7.69-5.347-8.135,4.5C864.622,585.945,864.7,586.1,864.776,586.248Z" transform="translate(609.238 3551.735)"/><path class="g" d="M847.6,596.675l8.085-3.118a6.219,6.219,0,0,0,.169-1.082Z" transform="translate(629.844 3543.033)"/><path class="g" d="M859.774,568.384l6.621-2.554a5.719,5.719,0,0,0-.748-.434Z" transform="translate(616.599 3564.106)"/></g><g class="x" transform="matrix(0.999, -0.035, 0.035, 0.999, -141.643, -3562.57)"><path class="v" d="M848.745,578c.122.23.249.452.387.665A10.548,10.548,0,1,0,864,564.333a9.713,9.713,0,0,0-1.27-.738,10.545,10.545,0,0,0-14.35,13.629C848.485,577.487,848.609,577.745,848.745,578Z" transform="translate(625.774 3566.353)"/><path class="g" d="M864.928,589.709c.122.23.249.452.387.665l13.061-9.081-13.817,7.64C864.667,589.194,864.792,589.452,864.928,589.709Z" transform="translate(609.593 3554.646)"/><path class="g" d="M847.6,599.608l13.731-5.295a10.561,10.561,0,0,0,.288-1.838Z" transform="translate(632.743 3547.676)"/><path class="g" d="M859.774,570.471l11.245-4.338a9.716,9.716,0,0,0-1.27-.738Z" transform="translate(618.752 3564.553)"/></g><g class="y" transform="matrix(0.999, -0.035, 0.035, 0.999, -723.729, -3543.558)"><path class="v" d="M848.9,579.985c.138.259.281.51.437.75a11.9,11.9,0,1,0,16.766-16.167,10.945,10.945,0,0,0-1.433-.832,11.9,11.9,0,0,0-16.186,15.374C848.609,579.4,848.75,579.7,848.9,579.985Z" transform="translate(625.774 3566.353)"/><path class="g" d="M864.975,590.786c.137.259.28.51.436.75l14.733-10.244-15.586,8.618C864.681,590.206,864.821,590.5,864.975,590.786Z" transform="translate(609.703 3555.552)"/><path class="g" d="M847.6,600.521l15.488-5.973a11.927,11.927,0,0,0,.324-2.073Z" transform="translate(633.646 3549.121)"/><path class="g" d="M859.774,571.12l12.684-4.893a10.96,10.96,0,0,0-1.433-.832Z" transform="translate(619.422 3564.693)"/></g><g class="z" transform="matrix(0.999, -0.035, 0.035, 0.999, -860.549, -3591.709)"><path class="v" d="M848.9,580c.138.259.281.511.437.75a11.907,11.907,0,1,0,16.777-16.179,10.946,10.946,0,0,0-1.434-.833,11.9,11.9,0,0,0-16.2,15.385C848.61,579.416,848.75,579.707,848.9,580Z" transform="translate(625.774 3566.353)"/><path class="g" d="M864.975,590.793c.138.259.281.511.437.75l14.743-10.251-15.6,8.624C864.681,590.212,864.822,590.5,864.975,590.793Z" transform="translate(609.704 3555.557)"/><path class="g" d="M847.6,600.526l15.5-5.977a11.931,11.931,0,0,0,.325-2.074Z" transform="translate(633.651 3549.13)"/><path class="g" d="M859.774,571.125l12.693-4.9a10.965,10.965,0,0,0-1.434-.833Z" transform="translate(619.426 3564.694)"/></g><g class="z" transform="matrix(0.999, -0.035, 0.035, 0.999, -895.549, -3548.267)"><path class="v" d="M848.182,570.91c.066.125.135.245.21.36a5.721,5.721,0,1,0,8.061-7.773,5.26,5.26,0,0,0-.689-.4,5.719,5.719,0,0,0-7.782,7.392C848.041,570.631,848.109,570.771,848.182,570.91Z" transform="translate(625.774 3566.353)"/><path class="g" d="M864.758,585.857c.066.124.135.245.21.361l7.083-4.925-7.494,4.143C864.617,585.578,864.685,585.717,864.758,585.857Z" transform="translate(609.199 3551.407)"/><path class="g" d="M847.6,596.343l7.447-2.872a5.727,5.727,0,0,0,.156-1Z" transform="translate(629.516 3542.509)"/><path class="g" d="M859.774,568.148l6.1-2.353a5.272,5.272,0,0,0-.689-.4Z" transform="translate(616.355 3564.055)"/></g><g class="z" transform="matrix(0.999, -0.035, 0.035, 0.999, -206.102, -3626.506)"><path class="v" d="M848.725,577.744c.12.226.245.445.38.654A10.373,10.373,0,1,0,863.721,564.3a9.535,9.535,0,0,0-1.249-.725,10.37,10.37,0,0,0-14.111,13.4C848.469,577.237,848.591,577.491,848.725,577.744Z" transform="translate(625.774 3566.353)"/><path class="g" d="M864.921,589.569c.12.226.244.445.38.654l12.843-8.93L864.558,588.8C864.665,589.063,864.788,589.316,864.921,589.569Z" transform="translate(609.578 3554.528)"/><path class="g" d="M847.6,599.489l13.5-5.207a10.393,10.393,0,0,0,.283-1.807Z" transform="translate(632.626 3547.488)"/><path class="g" d="M859.774,570.386l11.057-4.266a9.561,9.561,0,0,0-1.249-.725Z" transform="translate(618.665 3564.535)"/></g><g class="z" transform="matrix(0.999, -0.035, 0.035, 0.999, -708.361, -3766.142)"><path class="v" d="M848.558,575.641c.1.195.211.383.328.563a8.941,8.941,0,1,0,12.6-12.149,8.219,8.219,0,0,0-1.077-.625,8.939,8.939,0,0,0-12.163,11.553C848.337,575.2,848.443,575.424,848.558,575.641Z" transform="translate(625.774 3566.353)"/><path class="g" d="M864.871,588.426c.1.195.211.383.328.563l11.071-7.7-11.712,6.476C864.651,587.99,864.756,588.209,864.871,588.426Z" transform="translate(609.461 3553.568)"/><path class="g" d="M847.6,598.521l11.639-4.488a8.959,8.959,0,0,0,.244-1.557Z" transform="translate(631.669 3545.956)"/><path class="g" d="M859.774,569.7l9.531-3.677a8.223,8.223,0,0,0-1.077-.625Z" transform="translate(617.954 3564.387)"/></g></g></svg>