<svg xmlns="http://www.w3.org/2000/svg" xmlns:xlink="http://www.w3.org/1999/xlink" width="841.557" height="365.304" viewBox="0 0 841.557 365.304"><defs><style>.a{opacity:0.4;fill:url(#a);}.b{fill:#e62e47;opacity:0.11;}.c{opacity:0.7;}.d{opacity:0.52;}.d,.g,.u{fill:url(#b);}.e{fill:#ebf3fa;}.f{opacity:0.61;}.g{opacity:0.83;}.h{fill:#d9c1c1;}.i{fill:url(#d);}.j,.p,.q{fill:#1868b9;}.k{opacity:0.15;}.l{fill:#4b4c4c;}.m{opacity:0.93;fill:url(#e);}.n{fill:#fff;}.o{fill:#4a5866;}.p{opacity:0.08;}.q{opacity:0.1;}.r{opacity:0.65;}.s{opacity:0.33;}.t{opacity:0.58;}.v{opacity:0.09;}.w{opacity:0.193;}.x{opacity:0.39;}.y{opacity:0.336;}</style><linearGradient id="a" x1="0.982" y1="1.511" x2="0.5" y2="-0.061" gradientUnits="objectBoundingBox"><stop offset="0" stop-color="#5a89b3" stop-opacity="0.631"/><stop offset="1" stop-color="#437fb3" stop-opacity="0.169"/></linearGradient><linearGradient id="b" x1="0.5" x2="0.5" y2="1" gradientUnits="objectBoundingBox"><stop offset="0" stop-color="#f23d61"/><stop offset="1" stop-color="#de3849"/></linearGradient><linearGradient id="d" x1="0.5" x2="0.5" y2="1" gradientUnits="objectBoundingBox"><stop offset="0" stop-color="#c0c9da"/><stop offset="0.446" stop-color="#d1d6df" stop-opacity="0.769"/><stop offset="1" stop-color="#fff" stop-opacity="0"/></linearGradient><linearGradient id="e" x1="0.5" x2="0.5" y2="1" gradientUnits="objectBoundingBox"><stop offset="0" stop-color="#f8679a"/><stop offset="1" stop-color="#f14253"/></linearGradient></defs><g transform="translate(-694.564 -105)"><path class="a" d="M488.045,127.342c0,12.99,3.076,23.683,8.414,32.842a65.634,65.634,0,0,0,5.98,8.587c19.62,24,56.1,37.131,89.064,58.405,97.316,62.8,107.857-37.829,103.462-99.835a110.634,110.634,0,0,0-27-65.485,102.77,102.77,0,0,0-10.508-10.331A100.647,100.647,0,0,0,591.5,27.5c-44.059,0-81.685,26.575-96.6,64.023a96.716,96.716,0,0,0-6.855,35.816Z" transform="translate(445.035 110.829)"/><path class="b" d="M563.344,88.423l98.509,11.852a102.783,102.783,0,0,0-10.508-10.331Z" transform="translate(451.15 72.41)"/><path class="b" d="M783.05,384.065a65.637,65.637,0,0,0,5.98,8.587l84.381-10.15Z" transform="translate(158.443 -113.053)"/><path class="b" d="M654.05,197.052,797.058,178.5l-139.566,8.251A96.248,96.248,0,0,0,654.05,197.052Z" transform="translate(282.442 15.6)"/><g class="c" transform="translate(1123.882 148.168)"><path class="d" d="M460.519,81.593c0,.249.007.494.029.735a10.088,10.088,0,1,0,18.981-5.444,9.293,9.293,0,0,0-.742-1.193,10.085,10.085,0,0,0-18.232,5.08C460.53,81.041,460.519,81.315,460.519,81.593Z" transform="translate(-460.519 -71.503)"/><path class="e" d="M474.519,97.586c0,.249.007.494.029.735l15.1-1.816-15.1.259C474.53,97.035,474.519,97.308,474.519,97.586Z" transform="translate(-474.519 -87.497)"/><path class="e" d="M464.779,113.615l13.973,1.683a10.1,10.1,0,0,0,1.066-1.423Z" transform="translate(-461.176 -98.442)"/><path class="e" d="M463.759,82.615,475.2,83.991a9.278,9.278,0,0,0-.742-1.193Z" transform="translate(-456.192 -78.611)"/></g><g class="f" transform="translate(918.531 143.533)"><path class="g" d="M1053.411,115.577c-.175.18-.342.362-.5.551a10.179,10.179,0,1,0,17.547,9.44,9.319,9.319,0,0,0,.3-1.384,10.176,10.176,0,0,0-16.75-9.175C1053.808,115.187,1053.6,115.377,1053.411,115.577Z" transform="translate(-1050.52 -112.505)"/><path class="e" d="M1066.9,119.961c-.176.18-.343.362-.5.551l12.191,9.33L1067.5,119.393C1067.291,119.57,1067.088,119.76,1066.9,119.961Z" transform="translate(-1064.003 -116.889)"/><path class="e" d="M1071.881,138.039l8.909,11.06a10.206,10.206,0,0,0,1.773-.277Z" transform="translate(-1069.972 -128.756)"/><path class="e" d="M1050.834,123.526l7.3,9.057a9.413,9.413,0,0,0,.3-1.384Z" transform="translate(-1038.192 -119.519)"/></g><path class="h" d="M588.281,636.956s-22.695.945-22.695,6.619,25.532,0,25.532,0Z" transform="translate(521.058 -273.524)"/><path class="i" d="M229.529,679.869l43.185-2.1V635.225L284.2,677.11l42.265-1.316c-.967-35.715-18.264-90.963-19.209-95.687s-3.206-24.264-3.206-24.264c-4.132-8.766-25.787-9.588-42.761-8.794-7.035.322-13.277.927-17.125,1.362-2.544.284-4.047.492-4.047.492-6.78,6.988-11.149,16.51-13.834,27.149C216.6,614.377,229.529,679.869,229.529,679.869Z" transform="translate(914.613 -215.598)"/><circle class="h" cx="23.64" cy="23.64" r="23.64" transform="translate(1167.021 183.765)"/><path class="h" d="M283.333,229.879s6.619,29.314,17.021,37.825-40.662,0-40.662,0,11.347-18.912,2.837-27.423S283.333,229.879,283.333,229.879Z" transform="translate(923.404 -16.8)"/><path class="j" d="M222.17,397.742l15.688,1.74,43.886,4.879s.208-.558.577-1.57c3.187-8.69,18.534-50.978,20.227-63.678,1.891-14.184-17.967-31.205-17.967-31.205s-18.912-3.782-24.586-3.782-28.368,8.51-28.368,8.51l-8.463,76.132-.728,6.591Z" transform="translate(936.341 -63.624)"/><path class="k" d="M350.316,490.832l31.8-18.638s.558-1.816,1.5-4.88c.473-1.532,1.05-3.385,1.7-5.484,3.669-11.783,9.825-31.224,14.761-45.427,7.565-21.749-29.314,38.771-29.314,38.771l-1.844,1.428-.728,6.591c-2.544.284-4.047.492-4.047.492C357.371,470.672,353,480.194,350.316,490.832Z" transform="translate(790.577 -131.457)"/><path class="j" d="M438.991,327.512s9.456,12.293,1.891,34.042-17.967,55.792-17.967,55.792L368.07,449.5,360.5,440.04l51.063-39.716s1.891-71.867,11.347-74.7A19.38,19.38,0,0,1,438.991,327.512Z" transform="translate(744.106 -76.608)"/><path class="h" d="M266.768,545.007s-13.239,27.423-18.912,24.586,14.184-31.206,14.184-31.206Z" transform="translate(963.137 -211.361)"/><path class="j" d="M105.778,352.77,155.9,394.377s18.912,13.239-16.076,22.695S102,432.2,102,432.2s-3.782-12.293-8.511-10.4l40.662-19.858-33.1-19.858Z" transform="translate(1125.545 -94.301)"/><path class="l" d="M243.607,170.338c-2.63-1.3-12.589-5.031-17.536-8.2.347-10.3,1.411-17.52,0-23.711s-5.663-15.18-16.294-21.426-19.992-6.043-22.274-3.313c-24.977.493-29.759,22.1-29.759,22.1.13,8.189,8.641,8.448,16.1,8.15-.668,5.591,1.112,11.4,6.264,13.976,9.853,4.926,12.809,11.331,7.882,15.764s-13.794,16.257-1.971,19.213,13.3,8.868,9.853,11.331,7.882-4.434,7.882-4.434,1.97,11.823,12.316,8.867a6.223,6.223,0,0,0,2.765-1.959c2.794,3.07,5.287,4.885,7.165,4.9,10.759.057,9.469-11.86,9.469-11.86s12.771,3.587,8.786,2.144-7.68-6.593,2.909-12.627S249.546,173.279,243.607,170.338Z" transform="translate(1007.859 56.471)"/><path class="m" d="M628.486,269.015l.171-.023-.418,1.591a41.83,41.83,0,0,1-1.718,6.529l-12.272,46.652a7.907,7.907,0,0,1-6.438,5.8l-25.027,3.872a7.907,7.907,0,0,1-8.18-4.082L550.82,284.932a41.724,41.724,0,0,1-2.034-3.8l-.808-1.508.126-.017a42.049,42.049,0,1,1,80.381-10.592Z" transform="translate(490.972 -11.317)"/><path class="e" d="M546.492,331.538a8.616,8.616,0,0,0,1.316-.1l26.161-4.047a8.632,8.632,0,0,0,7.03-6.336l12.828-48.763a44,44,0,0,0,1.8-6.854l.324-2.133a44.332,44.332,0,0,0-50.746-49.442l.113.73a43.608,43.608,0,0,1,49.837,49.091l-.249,1.6a43.737,43.737,0,0,1-1.787,6.8l-12.836,48.792a7.893,7.893,0,0,1-6.429,5.794l-26.16,4.047a7.907,7.907,0,0,1-8.168-4.076l-.651.349A8.651,8.651,0,0,0,546.492,331.538Z" transform="translate(525.728 -6.37)"/><rect class="n" width="46.284" height="0.955" transform="translate(1080.604 312.093) rotate(-110.115)"/><rect class="n" width="0.955" height="46.285" transform="translate(1090.495 310.562) rotate(-177.484)"/><path class="o" d="M575.928,581.116l33.521-5.186a.955.955,0,0,0-.292-1.889l-33.521,5.186a.955.955,0,0,0,.292,1.889Z" transform="translate(498.504 -233.84)"/><path class="o" d="M578.255,561.841l33.521-5.186a.956.956,0,0,0-.292-1.889l-33.521,5.186a.955.955,0,0,0,.292,1.888Z" transform="translate(495.317 -221.684)"/><path class="o" d="M580.582,542.569l33.521-5.186a.955.955,0,0,0-.292-1.888L580.29,540.68a.956.956,0,0,0,.292,1.889Z" transform="translate(492.13 -209.53)"/><path class="o" d="M603.579,587.116c-6.649,1.029-12.612-1.843-13.319-6.415l24.078-3.725C615.045,581.548,610.228,586.087,603.579,587.116Z" transform="translate(488.655 -235.698)"/><path class="n" d="M634.224,343.553a5.887,5.887,0,0,0,3.262-2.109c.213-.248.42-.506.627-.764a7.467,7.467,0,0,1,2.462-2.292c2.193-1.023,4.776.406,7.014,1.939l.54-.788c-2.459-1.686-5.327-3.244-7.958-2.017a8.279,8.279,0,0,0-2.8,2.559c-.2.251-.4.5-.608.742-.674.788-2.02,2.064-3.461,1.77a4.654,4.654,0,0,1-1.661-.879,8.892,8.892,0,0,0-1.175-.741,4.68,4.68,0,0,0-5.137.726,9.3,9.3,0,0,0-.7.737,2.378,2.378,0,0,1-3.845.452,4.942,4.942,0,0,0-2.892-.866l-.1.014c-1.882.291-2.75,2.373-3.241,3.926l.911.288c.667-2.112,1.479-3.162,2.544-3.279a4.2,4.2,0,0,1,2.326.758,3.26,3.26,0,0,0,5.017-.662,8.447,8.447,0,0,1,.624-.662,3.755,3.755,0,0,1,4.068-.575,8.036,8.036,0,0,1,1.048.665,5.43,5.43,0,0,0,2.02,1.035A3.138,3.138,0,0,0,634.224,343.553Z" transform="translate(445.961 -84.408)"/><path class="p" d="M417.041,101.021a14.241,14.241,0,0,0-8.264.9,12.192,12.192,0,0,1-9.926,0,13.91,13.91,0,0,0-11.671.232,7.237,7.237,0,0,1-3.358.838c-4.73,0-8.666-4.766-9.482-11.052a9.2,9.2,0,0,0,2.365-2.548c2.773-4.47,7.039-7.342,11.89-7.342s9.074,2.816,11.847,7.258A9.151,9.151,0,0,0,408.3,93.63h.127C412.156,93.609,415.415,96.629,417.041,101.021Z" transform="translate(972.842 125.77)"/><path class="p" d="M431.4,73.921l-7.645,4.85,4.639-8.447a7.56,7.56,0,0,0-4.625-1.647h-.12a9.077,9.077,0,0,1-1.584-.12l-2.6,1.647,1.112-2.02a9.286,9.286,0,0,1-4.533-3.414L411.4,67.677l2.928-5.329a13.569,13.569,0,0,0-10.39-5.258c-4.822,0-9.151,2.872-11.9,7.342a8.884,8.884,0,0,1-7.863,4.224h-.232c-5.322,0-9.644,6.033-9.644,13.488s4.322,13.48,9.644,13.48a7.236,7.236,0,0,0,3.358-.838,13.882,13.882,0,0,1,11.672-.225,12.227,12.227,0,0,0,9.925,0,13.9,13.9,0,0,1,11.566.225,7.286,7.286,0,0,0,3.323.817c5.329,0,9.644-6.033,9.644-13.48a17.147,17.147,0,0,0-2.027-8.2Z" transform="translate(972.842 133.159)"/><path class="q" d="M417.041,101.021a14.241,14.241,0,0,0-8.264.9,12.192,12.192,0,0,1-9.926,0,13.91,13.91,0,0,0-11.671.232,7.237,7.237,0,0,1-3.358.838c-4.73,0-8.666-4.766-9.482-11.052a9.2,9.2,0,0,0,2.365-2.548c2.773-4.47,7.039-7.342,11.89-7.342s9.074,2.816,11.847,7.258A9.151,9.151,0,0,0,408.3,93.63h.127C412.156,93.609,415.415,96.629,417.041,101.021Z" transform="translate(543.204 331.481)"/><path class="q" d="M431.4,73.921l-7.645,4.85,4.639-8.447a7.56,7.56,0,0,0-4.625-1.647h-.12a9.077,9.077,0,0,1-1.584-.12l-2.6,1.647,1.112-2.02a9.286,9.286,0,0,1-4.533-3.414L411.4,67.677l2.928-5.329a13.569,13.569,0,0,0-10.39-5.258c-4.822,0-9.151,2.872-11.9,7.342a8.884,8.884,0,0,1-7.863,4.224h-.232c-5.322,0-9.644,6.033-9.644,13.488s4.322,13.48,9.644,13.48a7.236,7.236,0,0,0,3.358-.838,13.882,13.882,0,0,1,11.672-.225,12.227,12.227,0,0,0,9.925,0,13.9,13.9,0,0,1,11.566.225,7.286,7.286,0,0,0,3.323.817c5.329,0,9.644-6.033,9.644-13.48a17.147,17.147,0,0,0-2.027-8.2Z" transform="translate(543.204 338.871)"/><path class="q" d="M183.344,236.124a20.414,20.414,0,0,0-11.805,1.281,17.394,17.394,0,0,1-14.177-.035,19.865,19.865,0,0,0-16.669.331,10.382,10.382,0,0,1-4.8,1.2c-6.758,0-12.382-6.807-13.551-15.789a12.96,12.96,0,0,0,3.379-3.639c3.963-6.385,10.1-10.489,16.993-10.489s12.953,4.055,16.895,10.369a13.037,13.037,0,0,0,11.263,6.174h.176C176.382,225.516,181.042,229.831,183.344,236.124Z" transform="translate(1112.671 -78.821)"/><g class="r" transform="translate(850.792 326.685)"><path class="q" d="M413.235,68.566l-5.212,3.307,3.163-5.76a5.155,5.155,0,0,0-3.153-1.123h-.082a6.183,6.183,0,0,1-1.08-.082L405.1,66.032l.758-1.378a6.331,6.331,0,0,1-3.091-2.328l-3.173,1.982,2-3.633a9.252,9.252,0,0,0-7.084-3.585A9.693,9.693,0,0,0,386.4,62.1a6.057,6.057,0,0,1-5.361,2.88h-.158c-3.628,0-6.576,4.113-6.576,9.2s2.947,9.191,6.576,9.191a4.934,4.934,0,0,0,2.289-.571,9.465,9.465,0,0,1,7.958-.154,8.337,8.337,0,0,0,6.768,0,9.479,9.479,0,0,1,7.886.154,4.968,4.968,0,0,0,2.266.557c3.633,0,6.575-4.113,6.575-9.191A11.69,11.69,0,0,0,413.235,68.566Z" transform="translate(-374.3 -57.09)"/><path class="q" d="M403.455,94.985a9.71,9.71,0,0,0-5.635.614,8.313,8.313,0,0,1-6.768,0,9.484,9.484,0,0,0-7.958.158,4.934,4.934,0,0,1-2.289.571c-3.225,0-5.909-3.249-6.465-7.536a6.277,6.277,0,0,0,1.613-1.737c1.891-3.048,4.8-5.006,8.107-5.006s6.187,1.92,8.078,4.949a6.239,6.239,0,0,0,5.356,2.947h.086C400.124,89.931,402.346,91.99,403.455,94.985Z" transform="translate(-374.313 -70.07)"/></g><path class="q" d="M203.869,197.38l-10.925,6.927,6.631-12.059a10.8,10.8,0,0,0-6.61-2.358h-.176a12.792,12.792,0,0,1-2.267-.169l-3.689,2.386,1.591-2.886a13.163,13.163,0,0,1-6.476-4.928l-6.631,4.224,4.174-7.673c-3.879-4.653-9.1-7.5-14.846-7.5-6.892,0-13.03,4.1-16.993,10.482a12.706,12.706,0,0,1-11.263,6.061h-.373c-7.61,0-13.776,8.623-13.776,19.267s6.167,19.267,13.776,19.267a10.285,10.285,0,0,0,4.8-1.2,19.865,19.865,0,0,1,16.669-.324,17.394,17.394,0,0,0,14.177.035,19.886,19.886,0,0,1,16.529.317,10.312,10.312,0,0,0,4.745,1.176c7.61,0,13.776-8.63,13.776-19.267A24.469,24.469,0,0,0,203.869,197.38Z" transform="translate(1112.771 -68.34)"/><g class="s" transform="translate(1397.236 306.096)"><path class="q" d="M435.323,75.076l-8.169,5.183,4.957-9.027a8.08,8.08,0,0,0-4.942-1.76h-.128a9.688,9.688,0,0,1-1.693-.128l-2.776,1.76,1.188-2.159a9.923,9.923,0,0,1-4.845-3.648L413.944,68.4l3.129-5.695a14.5,14.5,0,0,0-11.1-5.619c-5.153,0-9.779,3.069-12.713,7.846a9.493,9.493,0,0,1-8.4,4.513h-.248c-5.687,0-10.306,6.447-10.306,14.413s4.619,14.406,10.306,14.406a7.733,7.733,0,0,0,3.588-.9,14.834,14.834,0,0,1,12.472-.241,13.067,13.067,0,0,0,10.607,0,14.857,14.857,0,0,1,12.359.241,7.785,7.785,0,0,0,3.551.873c5.694,0,10.306-6.447,10.306-14.406A18.321,18.321,0,0,0,435.323,75.076Z" transform="translate(-374.3 -57.09)"/><path class="q" d="M419.972,102.323a15.218,15.218,0,0,0-8.832.963,13.029,13.029,0,0,1-10.607,0,14.864,14.864,0,0,0-12.472.248,7.733,7.733,0,0,1-3.588.9c-5.055,0-9.26-5.093-10.133-11.81a9.832,9.832,0,0,0,2.527-2.723c2.964-4.777,7.522-7.846,12.706-7.846s9.7,3.009,12.66,7.756a9.779,9.779,0,0,0,8.395,4.619h.135C414.751,94.4,418.234,97.629,419.972,102.323Z" transform="translate(-374.298 -63.274)"/></g><g class="s" transform="translate(1489.88 220.561)"><path class="q" d="M418.956,70.252l-5.978,3.793,3.628-6.606a5.913,5.913,0,0,0-3.617-1.288H412.9a7.093,7.093,0,0,1-1.239-.094l-2.031,1.288.87-1.58a7.261,7.261,0,0,1-3.545-2.67l-3.639,2.274L405.6,61.2a10.611,10.611,0,0,0-8.125-4.112c-3.771,0-7.156,2.246-9.3,5.742a6.947,6.947,0,0,1-6.149,3.3h-.182c-4.162,0-7.542,4.718-7.542,10.547s3.38,10.542,7.542,10.542a5.659,5.659,0,0,0,2.626-.655,10.856,10.856,0,0,1,9.127-.176,9.562,9.562,0,0,0,7.762,0,10.872,10.872,0,0,1,9.045.176,5.7,5.7,0,0,0,2.6.639c4.167,0,7.542-4.718,7.542-10.542A13.409,13.409,0,0,0,418.956,70.252Z" transform="translate(-374.3 -57.09)"/><path class="q" d="M407.733,96.886a11.136,11.136,0,0,0-6.463.7,9.535,9.535,0,0,1-7.762,0,10.878,10.878,0,0,0-9.127.182,5.659,5.659,0,0,1-2.626.655c-3.7,0-6.777-3.727-7.415-8.643a7.2,7.2,0,0,0,1.85-1.993c2.169-3.5,5.5-5.742,9.3-5.742s7.1,2.2,9.265,5.676a7.156,7.156,0,0,0,6.143,3.38h.1C403.913,91.089,406.462,93.451,407.733,96.886Z" transform="translate(-374.309 -68.31)"/></g><path class="q" d="M183.344,236.124a20.414,20.414,0,0,0-11.805,1.281,17.394,17.394,0,0,1-14.177-.035,19.865,19.865,0,0,0-16.669.331,10.382,10.382,0,0,1-4.8,1.2c-6.758,0-12.382-6.807-13.551-15.789a12.96,12.96,0,0,0,3.379-3.639c3.963-6.385,10.1-10.489,16.993-10.489s12.953,4.055,16.895,10.369a13.037,13.037,0,0,0,11.263,6.174h.176C176.382,225.516,181.042,229.831,183.344,236.124Z" transform="translate(953.292 231.406)"/><path class="q" d="M203.869,197.38l-10.925,6.927,6.631-12.059a10.8,10.8,0,0,0-6.61-2.358h-.176a12.792,12.792,0,0,1-2.267-.169l-3.689,2.386,1.591-2.886a13.163,13.163,0,0,1-6.476-4.928l-6.631,4.224,4.174-7.673c-3.879-4.653-9.1-7.5-14.846-7.5-6.892,0-13.03,4.1-16.993,10.482a12.706,12.706,0,0,1-11.263,6.061h-.373c-7.61,0-13.776,8.623-13.776,19.267s6.167,19.267,13.776,19.267a10.285,10.285,0,0,0,4.8-1.2,19.865,19.865,0,0,1,16.669-.324,17.394,17.394,0,0,0,14.177.035,19.886,19.886,0,0,1,16.529.317,10.312,10.312,0,0,0,4.745,1.176c7.61,0,13.776-8.63,13.776-19.267A24.469,24.469,0,0,0,203.869,197.38Z" transform="translate(953.392 241.888)"/><g class="t" transform="matrix(0.999, -0.035, 0.035, 0.999, 1014.242, 383.117)"><path class="u" d="M1.061,13.356c.105.2.214.39.334.573A9.093,9.093,0,1,0,14.207,1.574,8.364,8.364,0,0,0,13.112.938,9.091,9.091,0,0,0,.742,12.687C.836,12.913.943,13.135,1.061,13.356Z" transform="translate(0 0)"/><path class="e" d="M.319,7.256c.1.2.214.39.333.573L11.911,0,0,6.586C.094,6.812.2,7.034.319,7.256Z" transform="translate(0.742 6.101)"/><path class="e" d="M0,6.149,11.837,1.584A9.113,9.113,0,0,0,12.085,0Z" transform="translate(6.078 9.733)"/><path class="e" d="M0,4.376,9.693.636A8.367,8.367,0,0,0,8.6,0Z" transform="translate(4.514 0.938)"/></g><g class="v" transform="matrix(0.999, -0.035, 0.035, 0.999, 1348.84, 445.705)"><path class="u" d="M.569,7.162c.056.106.115.209.179.307A4.876,4.876,0,1,0,7.618.844,4.485,4.485,0,0,0,7.031.5,4.875,4.875,0,0,0,.4,6.8C.448,6.924.506,7.044.569,7.162Z" transform="translate(0 0)"/><path class="e" d="M.171,3.891C.227,4,.286,4.1.35,4.2L6.387,0,0,3.532C.05,3.653.108,3.772.171,3.891Z" transform="translate(0.398 3.272)"/><path class="e" d="M0,3.3,6.347.849A4.889,4.889,0,0,0,6.48,0Z" transform="translate(3.259 5.219)"/><path class="e" d="M0,2.346,5.2.341A4.492,4.492,0,0,0,4.611,0Z" transform="translate(2.421 0.503)"/></g><g class="w" transform="matrix(0.999, -0.035, 0.035, 0.999, 1307.177, 424.825)"><path class="u" d="M.966,12.165c.1.18.2.355.3.522A8.282,8.282,0,1,0,12.939,1.433a7.627,7.627,0,0,0-1-.579A8.279,8.279,0,0,0,.676,11.555C.761,11.76.859,11.963.966,12.165Z" transform="translate(0 0)"/><path class="e" d="M.29,6.608c.1.18.2.355.3.522L10.848,0,0,6C.086,6.2.183,6.406.29,6.608Z" transform="translate(0.676 5.557)"/><path class="e" d="M0,5.6,10.78,1.443A8.293,8.293,0,0,0,11.006,0Z" transform="translate(5.535 8.865)"/><path class="e" d="M0,3.985,8.828.579a7.626,7.626,0,0,0-1-.579Z" transform="translate(4.111 0.854)"/></g><g class="x" transform="matrix(0.999, -0.035, 0.035, 0.999, 850.171, 439.751)"><path class="u" d="M1.089,13.722c.108.2.22.4.343.589A9.342,9.342,0,1,0,14.6,1.617,8.594,8.594,0,0,0,13.47.964,9.339,9.339,0,0,0,.762,13.034C.859,13.266.969,13.494,1.089,13.722Z" transform="translate(0 0)"/><path class="e" d="M.327,7.454c.108.2.22.4.343.589L12.237,0,0,6.766C.1,7,.207,7.227.327,7.454Z" transform="translate(0.763 6.268)"/><path class="e" d="M0,6.317,12.16,1.627A9.357,9.357,0,0,0,12.415,0Z" transform="translate(6.244 9.999)"/><path class="e" d="M0,4.5,9.958.653A8.6,8.6,0,0,0,8.834,0Z" transform="translate(4.637 0.964)"/></g><g class="y" transform="matrix(0.999, -0.035, 0.035, 0.999, 752.956, 400.453)"><path class="u" d="M1.09,13.731c.108.2.22.4.343.589a9.348,9.348,0,1,0,13.172-12.7A8.589,8.589,0,0,0,13.48.964,9.345,9.345,0,0,0,.763,13.043C.859,13.275.97,13.5,1.09,13.731Z" transform="translate(0 0)"/><path class="e" d="M.328,7.459c.108.2.22.4.343.589L12.245,0,0,6.771C.1,7,.207,7.231.328,7.459Z" transform="translate(0.763 6.272)"/><path class="e" d="M0,6.321,12.169,1.628A9.37,9.37,0,0,0,12.424,0Z" transform="translate(6.248 10.006)"/><path class="e" d="M0,4.5,9.965.654A8.614,8.614,0,0,0,8.84,0Z" transform="translate(4.641 0.964)"/></g><g class="y" transform="matrix(0.999, -0.035, 0.035, 0.999, 694.564, 430.121)"><path class="u" d="M.524,6.6c.052.1.106.193.165.283A4.491,4.491,0,1,0,7.017.777,4.131,4.131,0,0,0,6.476.463a4.49,4.49,0,0,0-6.11,5.8C.413,6.378.466,6.488.524,6.6Z" transform="translate(0 0)"/><path class="e" d="M.157,3.584c.052.1.106.193.165.283L5.883,0,0,3.253C.046,3.365.1,3.474.157,3.584Z" transform="translate(0.367 3.014)"/><path class="e" d="M0,3.037,5.847.782A4.5,4.5,0,0,0,5.969,0Z" transform="translate(3.002 4.808)"/><path class="e" d="M0,2.161,4.788.314A4.139,4.139,0,0,0,4.247,0Z" transform="translate(2.23 0.463)"/></g><g class="y" transform="matrix(0.999, -0.035, 0.035, 0.999, 1256.569, 374.627)"><path class="u" d="M.95,11.962c.094.177.192.349.3.513A8.144,8.144,0,1,0,12.724,1.41a7.485,7.485,0,0,0-.981-.57A8.141,8.141,0,0,0,.665,11.363C.749,11.565.845,11.764.95,11.962Z" transform="translate(0 0)"/><path class="e" d="M.285,6.5c.094.177.192.349.3.513L10.668,0,0,5.9C.084,6.1.18,6.3.285,6.5Z" transform="translate(0.665 5.464)"/><path class="e" d="M0,5.507,10.6,1.419A8.165,8.165,0,0,0,10.823,0Z" transform="translate(5.443 8.717)"/><path class="e" d="M0,3.919,8.681.57A7.51,7.51,0,0,0,7.7,0Z" transform="translate(4.043 0.84)"/></g><g class="y" transform="matrix(0.999, -0.035, 0.035, 0.999, 862.236, 264.997)"><path class="u" d="M.819,10.311c.081.153.166.3.258.442a7.02,7.02,0,1,0,9.892-9.539,6.452,6.452,0,0,0-.845-.491,7.018,7.018,0,0,0-9.55,9.07C.645,9.969.728,10.141.819,10.311Z" transform="translate(0 0)"/><path class="e" d="M.246,5.6c.081.153.165.3.258.442L9.2,0,0,5.085C.073,5.259.155,5.43.246,5.6Z" transform="translate(0.573 4.71)"/><path class="e" d="M0,4.747,9.138,1.223A7.036,7.036,0,0,0,9.329,0Z" transform="translate(4.692 7.514)"/><path class="e" d="M0,3.378,7.483.491A6.456,6.456,0,0,0,6.638,0Z" transform="translate(3.485 0.724)"/></g></g></svg>