<svg xmlns="http://www.w3.org/2000/svg" xmlns:xlink="http://www.w3.org/1999/xlink" width="685.613" height="243.398" viewBox="0 0 685.613 243.398"><defs><style>.a{opacity:0.34;}.b{opacity:0.66;}.b,.e{fill:url(#a);}.c{opacity:0.496;}.d{opacity:0.89;}.f{fill:#ebf3fa;}.g{opacity:0.536;}.h{opacity:0.8;}.i{opacity:0.336;}</style><linearGradient id="a" x1="0.5" x2="0.5" y2="1" gradientUnits="objectBoundingBox"><stop offset="0" stop-color="#f23d61"/><stop offset="1" stop-color="#de3849"/></linearGradient></defs><g class="a" transform="translate(-236.137 -2857.622)"><g transform="matrix(1, -0.017, 0.017, 1, -777.458, -697.336)"><path class="b" d="M460.519,79c0,.185.005.367.021.547A7.5,7.5,0,1,0,474.653,75.5a6.905,6.905,0,0,0-.552-.887,7.5,7.5,0,0,0-13.556,3.777C460.527,78.6,460.519,78.8,460.519,79Z" transform="translate(487.901 3671.253)"/></g><g class="c" transform="matrix(1, -0.017, 0.017, 1, -762.196, -669.682)"><path class="b" d="M460.519,79c0,.185.005.367.021.547A7.5,7.5,0,1,0,474.653,75.5a6.905,6.905,0,0,0-.552-.887,7.5,7.5,0,0,0-13.556,3.777C460.527,78.6,460.519,78.8,460.519,79Z" transform="translate(487.901 3671.253)"/></g><g class="d" transform="matrix(1, -0.017, 0.017, 1, -827.839, -626.306)"><path class="e" d="M849.129,582.829c.16.3.326.593.508.872a13.835,13.835,0,1,0,19.494-18.8,12.735,12.735,0,0,0-1.666-.968,13.831,13.831,0,0,0-18.821,17.876C848.787,582.154,848.95,582.492,849.129,582.829Z" transform="translate(191.721 3073.91)"/><path class="f" d="M865.043,592.331c.16.3.326.593.507.872l17.13-11.911-18.123,10.02C864.7,591.656,864.864,591.994,865.043,592.331Z" transform="translate(175.808 3064.408)"/><path class="f" d="M847.6,601.83l18.009-6.945a13.861,13.861,0,0,0,.377-2.41Z" transform="translate(200.887 3058.751)"/><path class="f" d="M859.774,572.052l14.748-5.69a12.737,12.737,0,0,0-1.666-.968Z" transform="translate(186.33 3072.45)"/></g><g class="g" transform="matrix(1, -0.017, 0.017, 1, -1280.305, -1244.558)"><path class="e" d="M848.648,576.776c.112.211.229.417.356.612a9.714,9.714,0,1,0,13.687-13.2,8.936,8.936,0,0,0-1.17-.679,9.711,9.711,0,0,0-13.214,12.551C848.408,576.3,848.523,576.539,848.648,576.776Z" transform="translate(625.774 3566.353)"/><path class="f" d="M864.9,589.043c.112.211.229.417.356.612l12.027-8.363-12.724,7.035C864.659,588.569,864.773,588.806,864.9,589.043Z" transform="translate(609.524 3554.086)"/><path class="f" d="M847.6,599.043l12.644-4.876a9.732,9.732,0,0,0,.265-1.692Z" transform="translate(632.185 3546.782)"/><path class="f" d="M859.774,570.069l10.355-3.995a8.954,8.954,0,0,0-1.17-.679Z" transform="translate(618.337 3564.467)"/></g><g class="h" transform="matrix(1, -0.017, 0.017, 1, -677.653, -1031.049)"><path class="e" d="M849.238,584.212c.171.322.348.634.542.931A14.776,14.776,0,1,0,870.6,565.065a13.6,13.6,0,0,0-1.779-1.034,14.772,14.772,0,0,0-20.1,19.092C848.874,583.491,849.048,583.852,849.238,584.212Z" transform="translate(625.774 3566.353)"/><path class="f" d="M865.076,593.082c.171.322.348.634.542.931l18.3-12.721-19.356,10.7C864.711,592.361,864.885,592.723,865.076,593.082Z" transform="translate(609.938 3557.482)"/><path class="f" d="M847.6,602.466l19.234-7.417a14.8,14.8,0,0,0,.4-2.574Z" transform="translate(635.569 3552.201)"/><path class="f" d="M859.774,572.505l15.751-6.077a13.6,13.6,0,0,0-1.779-1.033Z" transform="translate(620.851 3564.989)"/></g><g class="i" transform="matrix(1, -0.017, 0.017, 1, -647.585, -1083.015)"><path class="e" d="M848.9,579.985c.138.259.281.51.437.75a11.9,11.9,0,1,0,16.766-16.167,10.945,10.945,0,0,0-1.433-.832,11.9,11.9,0,0,0-16.186,15.374C848.609,579.4,848.75,579.7,848.9,579.985Z" transform="translate(625.774 3566.353)"/><path class="f" d="M864.975,590.786c.137.259.28.51.436.75l14.733-10.244-15.586,8.618C864.681,590.206,864.821,590.5,864.975,590.786Z" transform="translate(609.703 3555.552)"/><path class="f" d="M847.6,600.521l15.488-5.973a11.927,11.927,0,0,0,.324-2.073Z" transform="translate(633.646 3549.121)"/><path class="f" d="M859.774,571.12l12.684-4.893a10.96,10.96,0,0,0-1.433-.832Z" transform="translate(619.422 3564.693)"/></g><g class="i" transform="matrix(1, -0.017, 0.017, 1, -1093.312, -1120.741)"><path class="e" d="M849.439,586.739c.191.359.389.707.605,1.04a16.5,16.5,0,1,0,23.245-22.415,15.167,15.167,0,0,0-1.986-1.154,16.492,16.492,0,0,0-22.441,21.315C849.032,585.934,849.226,586.337,849.439,586.739Z" transform="translate(625.774 3566.353)"/><path class="f" d="M865.136,594.455c.191.359.389.707.605,1.04l20.426-14.2L864.558,593.24C864.729,593.65,864.923,594.053,865.136,594.455Z" transform="translate(610.078 3558.637)"/><path class="f" d="M847.6,603.63l21.474-8.281a16.539,16.539,0,0,0,.45-2.874Z" transform="translate(636.719 3554.043)"/><path class="f" d="M859.774,573.333l17.585-6.784a15.2,15.2,0,0,0-1.986-1.154Z" transform="translate(621.705 3565.167)"/></g><g class="i" transform="matrix(1, -0.017, 0.017, 1, -1039.965, -1133.115)"><path class="e" d="M848.182,570.91c.066.125.135.245.21.36a5.721,5.721,0,1,0,8.061-7.773,5.26,5.26,0,0,0-.689-.4,5.719,5.719,0,0,0-7.782,7.392C848.041,570.631,848.109,570.771,848.182,570.91Z" transform="translate(625.774 3566.353)"/><path class="f" d="M864.758,585.857c.066.124.135.245.21.361l7.083-4.925-7.494,4.143C864.617,585.578,864.685,585.717,864.758,585.857Z" transform="translate(609.199 3551.407)"/><path class="f" d="M847.6,596.343l7.447-2.872a5.727,5.727,0,0,0,.156-1Z" transform="translate(629.516 3542.509)"/><path class="f" d="M859.774,568.148l6.1-2.353a5.272,5.272,0,0,0-.689-.4Z" transform="translate(616.355 3564.055)"/></g><g class="i" transform="matrix(1, -0.017, 0.017, 1, -671.796, -1134.88)"><path class="e" d="M848.3,572.4c.078.147.159.289.247.424a6.734,6.734,0,1,0,9.489-9.15,6.193,6.193,0,0,0-.811-.471,6.732,6.732,0,0,0-9.161,8.7C848.134,572.07,848.214,572.235,848.3,572.4Z" transform="translate(625.774 3566.353)"/><path class="f" d="M864.794,586.665c.078.147.159.289.247.424l8.338-5.8-8.821,4.877C864.628,586.337,864.707,586.5,864.794,586.665Z" transform="translate(609.281 3552.087)"/><path class="f" d="M847.6,597.029l8.766-3.38a6.752,6.752,0,0,0,.184-1.173Z" transform="translate(630.194 3543.593)"/><path class="f" d="M859.774,568.635l7.179-2.769a6.2,6.2,0,0,0-.811-.471Z" transform="translate(616.858 3564.16)"/></g></g></svg>