<svg xmlns="http://www.w3.org/2000/svg" xmlns:xlink="http://www.w3.org/1999/xlink" width="685.803" height="211.169" viewBox="0 0 685.803 211.169"><defs><style>.a{opacity:0.34;}.b{opacity:0.536;}.c{fill:url(#a);}.d{fill:#ebf3fa;}.e{opacity:0.6;}.f{opacity:0.8;}.g{opacity:0.193;}.h{opacity:0.593;}.i{opacity:0.336;}</style><linearGradient id="a" x1="0.5" x2="0.5" y2="1" gradientUnits="objectBoundingBox"><stop offset="0" stop-color="#f23d61"/><stop offset="1" stop-color="#de3849"/></linearGradient></defs><g class="a" transform="translate(-1015.221 -1335.669)"><g class="b" transform="translate(-316.422 -2793.192)"><path class="c" d="M848.648,576.776c.112.211.229.417.356.612a9.714,9.714,0,1,0,13.687-13.2,8.936,8.936,0,0,0-1.17-.679,9.711,9.711,0,0,0-13.214,12.551C848.408,576.3,848.523,576.539,848.648,576.776Z" transform="translate(625.774 3566.353)"/><path class="d" d="M864.9,589.043c.112.211.229.417.356.612l12.027-8.363-12.724,7.035C864.659,588.569,864.773,588.806,864.9,589.043Z" transform="translate(609.524 3554.086)"/><path class="d" d="M847.6,599.043l12.644-4.876a9.732,9.732,0,0,0,.265-1.692Z" transform="translate(632.185 3546.782)"/><path class="d" d="M859.774,570.069l10.355-3.995a8.954,8.954,0,0,0-1.17-.679Z" transform="translate(618.337 3564.467)"/></g><g class="e" transform="translate(-177.156 -2730.389)"><path class="c" d="M848.707,577.521c.118.222.241.438.375.644a10.221,10.221,0,1,0,14.4-13.888,9.415,9.415,0,0,0-1.231-.715,10.218,10.218,0,0,0-13.9,13.207C848.455,577.022,848.575,577.272,848.707,577.521Z" transform="translate(625.774 3566.353)"/><path class="d" d="M864.916,589.448c.118.222.241.438.375.644l12.656-8.8-13.389,7.4C864.664,588.949,864.784,589.2,864.916,589.448Z" transform="translate(609.566 3554.426)"/><path class="d" d="M847.6,599.386l13.305-5.131a10.247,10.247,0,0,0,.279-1.781Z" transform="translate(632.525 3547.326)"/><path class="d" d="M859.774,570.313l10.9-4.2a9.415,9.415,0,0,0-1.231-.715Z" transform="translate(618.589 3564.52)"/></g><g class="f" transform="translate(139.628 -2678.337)"><path class="c" d="M849.238,584.212c.171.322.348.634.542.931A14.776,14.776,0,1,0,870.6,565.065a13.6,13.6,0,0,0-1.779-1.034,14.772,14.772,0,0,0-20.1,19.092C848.874,583.491,849.048,583.852,849.238,584.212Z" transform="translate(625.774 3566.353)"/><path class="d" d="M865.076,593.082c.171.322.348.634.542.931l18.3-12.721-19.356,10.7C864.711,592.361,864.885,592.723,865.076,593.082Z" transform="translate(609.938 3557.482)"/><path class="d" d="M847.6,602.466l19.234-7.417a14.8,14.8,0,0,0,.4-2.574Z" transform="translate(635.569 3552.201)"/><path class="d" d="M859.774,572.505l15.751-6.077a13.6,13.6,0,0,0-1.779-1.033Z" transform="translate(620.851 3564.989)"/></g><g class="g" transform="translate(163.634 -2774.135)"><path class="c" d="M848.745,578c.122.23.249.452.387.665A10.548,10.548,0,1,0,864,564.333a9.713,9.713,0,0,0-1.27-.738,10.545,10.545,0,0,0-14.35,13.629C848.485,577.487,848.609,577.745,848.745,578Z" transform="translate(625.774 3566.353)"/><path class="d" d="M864.928,589.709c.122.23.249.452.387.665l13.061-9.081-13.817,7.64C864.667,589.194,864.792,589.452,864.928,589.709Z" transform="translate(609.593 3554.646)"/><path class="d" d="M847.6,599.608l13.731-5.295a10.561,10.561,0,0,0,.288-1.838Z" transform="translate(632.743 3547.676)"/><path class="d" d="M859.774,570.471l11.245-4.338a9.716,9.716,0,0,0-1.27-.738Z" transform="translate(618.752 3564.553)"/></g><g class="h" transform="translate(139.019 -2616.656)"><path class="c" d="M848.3,572.447c.078.147.16.29.248.426a6.767,6.767,0,1,0,9.535-9.195,6.235,6.235,0,0,0-.815-.473,6.765,6.765,0,0,0-9.206,8.744C848.137,572.117,848.217,572.283,848.3,572.447Z" transform="translate(625.774 3566.353)"/><path class="d" d="M864.97,590.666c.136.256.277.5.431.74l14.546-10.114L864.558,589.8C864.68,590.093,864.818,590.38,864.97,590.666Z" transform="translate(607.805 3549.583)"/><path class="d" d="M847.6,600.419l15.292-5.9a11.764,11.764,0,0,0,.32-2.046Z" transform="translate(624.654 3538.997)"/><path class="d" d="M859.774,571.048l2.56-4.831a7.943,7.943,0,0,0-.289-.822Z" transform="translate(619.347 3564.677)"/></g><g class="i" transform="translate(-458.068 -2763.586)"><path class="c" d="M848.9,579.985c.138.259.281.51.437.75a11.9,11.9,0,1,0,16.766-16.167,10.945,10.945,0,0,0-1.433-.832,11.9,11.9,0,0,0-16.186,15.374C848.609,579.4,848.75,579.7,848.9,579.985Z" transform="translate(625.774 3566.353)"/><path class="d" d="M864.975,590.786c.137.259.28.51.436.75l14.733-10.244-15.586,8.618C864.681,590.206,864.821,590.5,864.975,590.786Z" transform="translate(609.703 3555.552)"/><path class="d" d="M847.6,600.521l15.488-5.973a11.927,11.927,0,0,0,.324-2.073Z" transform="translate(633.646 3549.121)"/><path class="d" d="M859.774,571.12l12.684-4.893a10.96,10.96,0,0,0-1.433-.832Z" transform="translate(619.422 3564.693)"/></g><g class="i" transform="translate(-434.268 -2684.786)"><path class="c" d="M848.506,574.991c.1.185.2.364.312.536a8.5,8.5,0,1,0,11.975-11.548,7.812,7.812,0,0,0-1.023-.594,8.5,8.5,0,0,0-11.561,10.981C848.3,574.576,848.4,574.784,848.506,574.991Z" transform="translate(625.774 3566.353)"/><path class="d" d="M864.975,590.786c.137.259.28.51.436.75l14.733-10.244-15.586,8.618C864.681,590.206,864.821,590.5,864.975,590.786Z" transform="translate(609.703 3551.547)"/><path class="d" d="M847.6,600.521l15.488-5.973a11.927,11.927,0,0,0,.324-2.073Z" transform="translate(626.845 3542.321)"/><path class="d" d="M859.774,571.12l5.884-4.893a6.269,6.269,0,0,0-.665-.832Z" transform="translate(619.422 3564.693)"/></g><g class="g" transform="translate(206.635 -2688.886)"><path class="c" d="M848.745,578c.122.23.249.452.387.665A10.548,10.548,0,1,0,864,564.333a9.713,9.713,0,0,0-1.27-.738,10.545,10.545,0,0,0-14.35,13.629C848.485,577.487,848.609,577.745,848.745,578Z" transform="translate(625.774 3566.353)"/><path class="d" d="M864.928,589.709c.122.23.249.452.387.665l13.061-9.081-13.817,7.64C864.667,589.194,864.792,589.452,864.928,589.709Z" transform="translate(609.593 3554.646)"/><path class="d" d="M847.6,599.608l13.731-5.295a10.561,10.561,0,0,0,.288-1.838Z" transform="translate(632.743 3547.676)"/><path class="d" d="M859.774,570.471l11.245-4.338a9.716,9.716,0,0,0-1.27-.738Z" transform="translate(618.752 3564.553)"/></g><g class="g" transform="translate(47.635 -2603.121)"><path class="c" d="M848.745,578c.122.23.249.452.387.665A10.548,10.548,0,1,0,864,564.333a9.713,9.713,0,0,0-1.27-.738,10.545,10.545,0,0,0-14.35,13.629C848.485,577.487,848.609,577.745,848.745,578Z" transform="translate(625.774 3566.353)"/><path class="d" d="M864.928,589.709c.122.23.249.452.387.665l13.061-9.081-13.817,7.64C864.667,589.194,864.792,589.452,864.928,589.709Z" transform="translate(609.593 3554.646)"/><path class="d" d="M847.6,599.608l13.731-5.295a10.561,10.561,0,0,0,.288-1.838Z" transform="translate(632.743 3547.676)"/><path class="d" d="M859.774,570.471l11.245-4.338a9.716,9.716,0,0,0-1.27-.738Z" transform="translate(618.752 3564.553)"/></g></g></svg>