<svg xmlns="http://www.w3.org/2000/svg" width="120" height="120" viewBox="0 0 120 120"><defs><style>.a{fill:#ebf3fa;}.b{fill:none;stroke:#1868b9;stroke-linecap:round;stroke-linejoin:round;stroke-width:2px;}</style></defs><g transform="translate(-1301 -1747)"><circle class="a" cx="60" cy="60" r="60" transform="translate(1301 1747)"/><g transform="translate(1338.988 1778.11)"><path class="b" d="M33.667.962c6.259,1.548,10.152,4.424,10.55,10.119a.929.929,0,0,1-.918,1.006H.921A.929.929,0,0,1,0,11.081C.4,5.386,4.294,2.51,10.554.962L14.4,0c0,4.247,3.45,6.635,7.741,6.635S29.885,4.291,29.885,0Z" transform="translate(0 42.278)"/><path class="b" d="M12.552,1.416V0A8.847,8.847,0,0,1,2.931,0V1.416A4,4,0,0,1,0,5.275c0,4.247,3.45,6.635,7.741,6.635s7.741-2.345,7.741-6.635a4,4,0,0,1-2.931-3.86Z" transform="translate(14.369 37.004)"/><path class="b" d="M0,0V.531C0,7.985,5.894,14.012,11.557,14.012S23.113,7.951,23.113.531v-.5c-1.913,1.228-6.5,3.782-11.557,3.782S1.913,1.227,0,0Z" transform="translate(10.554 24.441)"/><path class="b" d="M24.971,8.648V.022L13.215,6.5a1.515,1.515,0,0,1-1.46,0L0,0V8.626S5.85,13.05,12.486,13.05,24.971,8.648,24.971,8.648Z" transform="translate(9.625 15.15)"/><path class="b" d="M18.734,21.863a1.559,1.559,0,0,1-.73-.188L.719,12.109a1.324,1.324,0,0,1,0-2.356L18,.187a1.515,1.515,0,0,1,1.46,0L36.749,9.753a1.324,1.324,0,0,1,0,2.356L19.464,21.653A1.559,1.559,0,0,1,18.734,21.863Z" transform="translate(3.376 0)"/><path class="b" d="M18.734.044V0H0V.078H18.7V7.841h.077V.044Z" transform="translate(22.111 10.894)"/><path class="b" d="M0,7.034V2.344a2.345,2.345,0,0,1,4.689,0V7.034Z" transform="translate(38.5 18.735)"/></g></g></svg>