<svg xmlns="http://www.w3.org/2000/svg" width="58.187" height="52.233" viewBox="0 0 58.187 52.233"><defs><style>.a{fill:#3f3d56;}.b{fill:#dedfdf;}.c{fill:teal;}.d{fill:#fff;}</style></defs><g transform="translate(0 0)"><path class="a" d="M378.063,214.137a.1.1,0,0,1-.058-.018l-28.232-19.661a.512.512,0,0,0-.585,0l-28.028,19.66a.1.1,0,0,1-.117-.167l28.028-19.66a.717.717,0,0,1,.819,0l28.232,19.661a.1.1,0,0,1-.058.186Z" transform="translate(-320.387 -194.163)"/><path class="b" d="M23.264,28.142,50.011,8.319,76.96,29.552,51.389,44.711,37.506,41.547Z" transform="translate(-20.889 -7.47)"/><path class="c" d="M367.6,639.844H354.385a.617.617,0,1,1,0-1.235H367.6a.617.617,0,0,1,0,1.235Z" transform="translate(-349.81 -593.24)"/><path class="c" d="M359.126,613.844h-4.741a.617.617,0,1,1,0-1.235h4.741a.617.617,0,1,1,0,1.235Z" transform="translate(-349.81 -569.894)"/><path class="d" d="M456.288,249.378a.772.772,0,0,1-.293-.057l-16.5-6.845V221.052a.715.715,0,0,1,.715-.715H471.86a.715.715,0,0,1,.715.715v21.439l-.031.013-15.953,6.813A.777.777,0,0,1,456.288,249.378Z" transform="translate(-426.791 -217.665)"/><path class="a" d="M455.84,248.98a.824.824,0,0,1-.312-.061L439,242.061V220.6a.766.766,0,0,1,.766-.766h31.646a.766.766,0,0,1,.766.766v21.473l-16.015,6.839A.828.828,0,0,1,455.84,248.98ZM439.2,241.925l16.4,6.805a.625.625,0,0,0,.477,0l15.891-6.786V220.6a.562.562,0,0,0-.561-.561H439.766a.562.562,0,0,0-.561.561Z" transform="translate(-426.342 -217.217)"/><path class="a" d="M372.472,387.837h-.02l-11.719,5L344.7,399.688a.517.517,0,0,1-.4,0l-16.542-6.863-12.007-4.982-.018-.008h-.02a.715.715,0,0,0-.715.714v31.033a.715.715,0,0,0,.715.715h56.758a.715.715,0,0,0,.715-.715V388.552A.715.715,0,0,0,372.472,387.837Zm.51,31.748a.511.511,0,0,1-.51.51H315.715a.511.511,0,0,1-.51-.51V388.552a.511.511,0,0,1,.491-.51l12.065,5.006,16.464,6.831a.727.727,0,0,0,.555,0l15.953-6.813,11.76-5.021a.512.512,0,0,1,.49.51Z" transform="translate(-315 -368.067)"/><path class="c" d="M521.532,264.241a2.807,2.807,0,0,1-1.689-.561l-.03-.023-6.361-4.87a2.826,2.826,0,1,1,3.437-4.486l4.12,3.159,9.736-12.7a2.826,2.826,0,0,1,3.962-.523l-.061.082.062-.081a2.829,2.829,0,0,1,.523,3.962L523.78,263.138a2.827,2.827,0,0,1-2.248,1.1Z" transform="translate(-492.199 -238.604)"/></g></svg>