<svg xmlns="http://www.w3.org/2000/svg" width="34" height="34" viewBox="0 0 34 34"><defs><style>.a{fill:#f8f9fa;stroke:#e9ecef;}.b{fill:teal;}.c{stroke:none;}.d{fill:none;}</style></defs><g class="a"><circle class="c" cx="17" cy="17" r="17"/><circle class="d" cx="17" cy="17" r="16.5"/></g><g transform="translate(10.5 8.667)"><path class="b" d="M3.288-3.474c-.294-.294-.141-.211-.85-.4a2.442,2.442,0,0,1-.861-.451L.041-.56A.542.542,0,0,0,.563.186L2.347.118l1.227,1.3a.542.542,0,0,0,.895-.168L6.23-3.074a2.457,2.457,0,0,1-1.2.324A2.455,2.455,0,0,1,3.288-3.474ZM12.959-.56,11.423-4.326a2.437,2.437,0,0,1-.861.451c-.713.191-.557.108-.85.4a2.456,2.456,0,0,1-1.748.723,2.461,2.461,0,0,1-1.2-.324l1.762,4.32a.542.542,0,0,0,.895.168l1.227-1.3,1.784.068A.542.542,0,0,0,12.959-.56ZM8.9-4.24c.517-.526.577-.481,1.313-.682a1.376,1.376,0,0,0,.964-.981,2.176,2.176,0,0,1,.879-1.549,1.4,1.4,0,0,0,.353-1.34,2.2,2.2,0,0,1,0-1.788,1.4,1.4,0,0,0-.353-1.34,2.176,2.176,0,0,1-.879-1.549,1.376,1.376,0,0,0-.964-.981A2.122,2.122,0,0,1,8.7-15.344,1.347,1.347,0,0,0,7.378-15.7a2.1,2.1,0,0,1-1.757,0,1.346,1.346,0,0,0-1.317.359,2.121,2.121,0,0,1-1.521.894,1.376,1.376,0,0,0-.964.981A2.175,2.175,0,0,1,.941-11.92a1.4,1.4,0,0,0-.353,1.34,2.2,2.2,0,0,1,0,1.788,1.405,1.405,0,0,0,.353,1.34A2.176,2.176,0,0,1,1.82-5.9a1.376,1.376,0,0,0,.964.981c.758.206.814.174,1.313.682a1.345,1.345,0,0,0,1.684.2A1.336,1.336,0,0,1,6.5-4.251a1.346,1.346,0,0,1,.721.208A1.345,1.345,0,0,0,8.9-4.24Zm-5.6-5.553A3.223,3.223,0,0,1,6.5-13.044,3.223,3.223,0,0,1,9.694-9.793,3.223,3.223,0,0,1,6.5-6.542,3.223,3.223,0,0,1,3.306-9.793Z" transform="translate(0 15.75)"/></g></svg>